<svg xmlns="http://www.w3.org/2000/svg" xmlns:xlink="http://www.w3.org/1999/xlink" width="190" height="136" viewBox="0 0 190 136">
  <defs>
    <clipPath id="clip-path">
      <rect id="Rectángulo_377326" data-name="Rectángulo 377326" width="133.731" height="135.763" fill="none"/>
    </clipPath>
    <clipPath id="clip-path-5">
      <rect id="Rectángulo_377314" data-name="Rectángulo 377314" width="24.227" height="28.793" fill="none"/>
    </clipPath>
    <clipPath id="clip-path-6">
      <rect id="Rectángulo_377315" data-name="Rectángulo 377315" width="13.482" height="13.482" fill="none"/>
    </clipPath>
    <clipPath id="clip-path-9">
      <rect id="Rectángulo_377320" data-name="Rectángulo 377320" width="32.953" height="39.163" fill="none"/>
    </clipPath>
    <clipPath id="clip-path-11">
      <rect id="Rectángulo_377322" data-name="Rectángulo 377322" width="6.121" height="6.395" fill="none"/>
    </clipPath>
    <clipPath id="clip-path-12">
      <rect id="Rectángulo_377323" data-name="Rectángulo 377323" width="2.068" height="5.618" fill="none"/>
    </clipPath>
    <clipPath id="clip-path-13">
      <rect id="Rectángulo_377324" data-name="Rectángulo 377324" width="5.199" height="7.696" fill="none"/>
    </clipPath>
  </defs>
  <g id="Grupo_1071228" data-name="Grupo 1071228" transform="translate(-180 -397)">
    <g id="Grupo_1071227" data-name="Grupo 1071227" transform="translate(208.5 397.119)">
      <g id="Grupo_1071226" data-name="Grupo 1071226" clip-path="url(#clip-path)">
        <g id="Grupo_1071197" data-name="Grupo 1071197">
          <g id="Grupo_1071196" data-name="Grupo 1071196" clip-path="url(#clip-path)">
            <path id="Trazado_608375" data-name="Trazado 608375" d="M322.069.088,313.46,4.406A1.745,1.745,0,0,0,312.4,6.012v4.026a18.691,18.691,0,0,0,3.069,10.31c1.551,2.363,3.607,5.382,7.029,7.109h1.544c3.809-1.162,6.652-4.258,8.39-6.907a18.689,18.689,0,0,0,3.069-10.31V6.012a1.745,1.745,0,0,0-1.061-1.606L324.634.228a5.986,5.986,0,0,0-2.566-.14" transform="translate(-220.463 0)" fill="#e0e0e0"/>
            <path id="Trazado_608376" data-name="Trazado 608376" d="M318.018.439l-9.806,4.178a1.745,1.745,0,0,0-1.062,1.606V10.25a18.854,18.854,0,0,0,11.643,17.419c3.808-1.162,6.652-4.258,8.39-6.907a18.691,18.691,0,0,0,3.069-10.31V6.223a1.745,1.745,0,0,0-1.061-1.606L319.387.439a1.745,1.745,0,0,0-1.368,0" transform="translate(-216.759 -0.211)" fill="#f5f5f5"/>
            <path id="Trazado_608377" data-name="Trazado 608377" d="M368.293,31.091a.862.862,0,0,1,.019.185c.006.138.014.315.024.533s.023.516.007.845,0,.706-.051,1.118-.067.868-.152,1.349c-.039.241-.069.492-.119.747l-.168.785a19.337,19.337,0,0,1-1.131,3.386,19.918,19.918,0,0,1-1.759,3.107c-.327.442-.628.868-.952,1.235-.159.185-.3.373-.458.538l-.448.474c-.278.309-.564.554-.8.781s-.455.411-.637.556l-.416.335a.839.839,0,0,1-.151.109.878.878,0,0,1,.132-.132l.4-.356c.175-.151.387-.338.617-.573s.511-.482.782-.794l.438-.478c.152-.166.293-.354.449-.54.317-.368.612-.795.934-1.235a20.578,20.578,0,0,0,1.735-3.089,19.928,19.928,0,0,0,1.133-3.356l.173-.778c.052-.253.085-.5.126-.741.09-.477.124-.928.17-1.339s.049-.785.074-1.112.019-.61.019-.842,0-.395.005-.533a.846.846,0,0,1,.012-.187" transform="translate(-254.83 -21.941)" fill="#e0e0e0"/>
            <path id="Trazado_608378" data-name="Trazado 608378" d="M330.433,37.814l-5.625-4.472,1.561-1.963,3.772,3,5.508-6.164,1.87,1.671Z" transform="translate(-229.219 -19.911)" fill="#fff"/>
            <path id="Trazado_608379" data-name="Trazado 608379" d="M417.231,52.787h-1.064V46.994a2.473,2.473,0,0,0-4.946,0v5.793h-1.064V46.994a3.537,3.537,0,0,1,7.074,0Z" transform="translate(-289.451 -30.668)" fill="#ebebeb"/>
            <path id="Trazado_608380" data-name="Trazado 608380" d="M414.606,69.269h-7.723a.906.906,0,0,1-.906-.906V62.7a.905.905,0,0,1,.906-.906h7.723a.905.905,0,0,1,.905.906v5.66a.906.906,0,0,1-.905.906" transform="translate(-286.502 -43.611)" fill="#ebebeb"/>
            <path id="Trazado_608381" data-name="Trazado 608381" d="M420.357,70.883a1.035,1.035,0,0,0,.3-.732,1.049,1.049,0,1,0-1.335,1l-.225,1h1l-.2-1a1.054,1.054,0,0,0,.461-.272" transform="translate(-295.383 -48.767)" fill="#fafafa"/>
            <path id="Trazado_608382" data-name="Trazado 608382" d="M9.3,359.36a8.825,8.825,0,0,0-3.776-1.3,2.517,2.517,0,0,0-1.786.328.368.368,0,0,0-.184.326.4.4,0,0,0,.175.223,5.4,5.4,0,0,0,5.572.422" transform="translate(-2.506 -252.666)" fill="#e0e0e0"/>
            <path id="Trazado_608383" data-name="Trazado 608383" d="M13.135,347.984a18.438,18.438,0,0,1-2.439-2.146,6.17,6.17,0,0,1-1.529-2.828,1.141,1.141,0,0,1,.121-.946,9.488,9.488,0,0,1,3.848,5.92" transform="translate(-6.437 -241.397)" fill="#e0e0e0"/>
            <path id="Trazado_608384" data-name="Trazado 608384" d="M22.724,348.479a8.824,8.824,0,0,1,.045-3.2,4.331,4.331,0,0,1,1.706-2.642,3.779,3.779,0,0,1-.045,2.511,12.19,12.19,0,0,1-1.691,3.561" transform="translate(-15.949 -241.8)" fill="#e0e0e0"/>
            <path id="Trazado_608385" data-name="Trazado 608385" d="M18.081,374.1a5.582,5.582,0,0,0-3.029,1.533,5.731,5.731,0,0,0-1.732,2.974,4.084,4.084,0,0,0,2.8-1.768c.7-.9,1.182-1.882,1.949-2.721" transform="translate(-9.4 -264.005)" fill="#e0e0e0"/>
            <path id="Trazado_608386" data-name="Trazado 608386" d="M29.655,359.012a7.469,7.469,0,0,1,.863-7.065,9,9,0,0,1-.863,7.065" transform="translate(-20.56 -248.372)" fill="#e0e0e0"/>
            <path id="Trazado_608387" data-name="Trazado 608387" d="M26.889,386.12a5.4,5.4,0,0,0-5.165,2.973c-.064.128-.12.29-.035.4a.384.384,0,0,0,.343.1,4.5,4.5,0,0,0,2.664-1.375,25.471,25.471,0,0,1,2.215-2.106" transform="translate(-15.276 -272.481)" fill="#e0e0e0"/>
            <path id="Trazado_608388" data-name="Trazado 608388" d="M38.151,368.43a9.619,9.619,0,0,1-.1-5.373,2.619,2.619,0,0,1,1.147-1.744.225.225,0,0,1,.175-.031.232.232,0,0,1,.111.128,3.236,3.236,0,0,1,.27,1.541,9.648,9.648,0,0,1-.241,1.561,8.305,8.305,0,0,1-.832,2.8,5.661,5.661,0,0,0-.333.615c-.1.209-.1.283-.191.449" transform="translate(-26.619 -254.954)" fill="#e0e0e0"/>
            <path id="Trazado_608389" data-name="Trazado 608389" d="M61.4,374.771a6.927,6.927,0,0,1,1.214-5.7c.087-.114.2-.235.345-.222.218.02.275.311.265.529a10.294,10.294,0,0,1-1.824,5.389" transform="translate(-43.196 -260.302)" fill="#e0e0e0"/>
            <path id="Trazado_608390" data-name="Trazado 608390" d="M63.881,385.638a8.286,8.286,0,0,0,6.8-1.383A5.506,5.506,0,0,0,67,383.8a5.253,5.253,0,0,0-3.118,1.835" transform="translate(-45.081 -270.758)" fill="#e0e0e0"/>
            <path id="Trazado_608391" data-name="Trazado 608391" d="M65.6,377.554a7.858,7.858,0,0,1,6.171-3.568,3.8,3.8,0,0,1-2.018,2.231,11.207,11.207,0,0,1-2.962.866,2.088,2.088,0,0,0-1.19.47" transform="translate(-46.297 -263.925)" fill="#e0e0e0"/>
            <path id="Trazado_608392" data-name="Trazado 608392" d="M60.144,348.248a17.927,17.927,0,0,0,.789-3.614,6.017,6.017,0,0,0-.72-3.574,7.869,7.869,0,0,0-.105,7.312" transform="translate(-41.819 -240.689)" fill="#e0e0e0"/>
            <path id="Trazado_608393" data-name="Trazado 608393" d="M75.93,346.954a9.684,9.684,0,0,1,7.128-4.849,7.942,7.942,0,0,1-7.128,4.849" transform="translate(-53.584 -241.426)" fill="#e0e0e0"/>
            <path id="Trazado_608394" data-name="Trazado 608394" d="M72.945,359.272c2.082.317,3.857,1.647,5.8,2.454a2.6,2.6,0,0,0,1.312.251,1.027,1.027,0,0,0,.643-1.817,2.809,2.809,0,0,0-.953-.578,10.588,10.588,0,0,0-6.625-.369" transform="translate(-51.478 -253.248)" fill="#e0e0e0"/>
            <path id="Trazado_608395" data-name="Trazado 608395" d="M68.85,364.992a2.461,2.461,0,0,1,1.006.7,10.849,10.849,0,0,0,4.4,2.26c.168.042.388.059.472-.093.073-.133-.019-.293-.114-.412a6.059,6.059,0,0,0-2.657-1.8,6.781,6.781,0,0,0-3.107-.736" transform="translate(-48.588 -257.507)" fill="#e0e0e0"/>
            <path id="Trazado_608396" data-name="Trazado 608396" d="M64.229,334.72a8.328,8.328,0,0,0,6.385,2.172.437.437,0,0,0,.29-.1c.161-.175-.032-.444-.22-.59a7.355,7.355,0,0,0-6.456-1.477" transform="translate(-45.327 -236.055)" fill="#e0e0e0"/>
            <path id="Trazado_608397" data-name="Trazado 608397" d="M69.708,329.1a8.9,8.9,0,0,1,7.966-1.315,6.325,6.325,0,0,1-3.8,1.667,12.023,12.023,0,0,1-4.17-.352" transform="translate(-49.194 -231.024)" fill="#e0e0e0"/>
            <path id="Trazado_608398" data-name="Trazado 608398" d="M64.95,305.969c-.184-1.873-.065-3.353-.195-5.235-.01-.15-.043-.331-.183-.385-.2-.075-.359.165-.423.365a6,6,0,0,0,.8,5.214" transform="translate(-45.077 -211.949)" fill="#e0e0e0"/>
            <path id="Trazado_608399" data-name="Trazado 608399" d="M67.073,306.06a11.017,11.017,0,0,0,3.1-3.016,4.125,4.125,0,0,0,.99-2.873,2.971,2.971,0,0,0-2.239,1.112,6.25,6.25,0,0,0-1.141,2.3c-.248.824-.422,1.671-.714,2.482" transform="translate(-47.334 -211.833)" fill="#e0e0e0"/>
            <path id="Trazado_608400" data-name="Trazado 608400" d="M77.339,306.053a25.026,25.026,0,0,0,7.637-4.5,3.9,3.9,0,0,0-2.869.221,9.045,9.045,0,0,0-4.808,4.263" transform="translate(-54.551 -212.673)" fill="#e0e0e0"/>
            <path id="Trazado_608401" data-name="Trazado 608401" d="M69.986,318.37a15.521,15.521,0,0,0,4.241.021,17.991,17.991,0,0,0,3.959-1.315.464.464,0,0,0,.269-.2.309.309,0,0,0-.1-.339.818.818,0,0,0-.338-.158,7.331,7.331,0,0,0-4.278.256,19.846,19.846,0,0,0-3.757,1.74" transform="translate(-49.39 -223.117)" fill="#e0e0e0"/>
            <path id="Trazado_608402" data-name="Trazado 608402" d="M40.936,320.589a7.5,7.5,0,0,1-.069-6.209,4.74,4.74,0,0,1,.549,3.087c-.107,1.061-.43,2.152-.451,3.218" transform="translate(-28.39 -221.861)" fill="#e0e0e0"/>
            <path id="Trazado_608403" data-name="Trazado 608403" d="M14.142,328.888a8.659,8.659,0,0,0-6.435,2.741,6.015,6.015,0,0,0,3.523-.653,17.933,17.933,0,0,0,3.02-2.021" transform="translate(-5.439 -232.098)" fill="#e0e0e0"/>
            <path id="Trazado_608404" data-name="Trazado 608404" d="M6.277,325.685a8.977,8.977,0,0,0-3.435.105,4.12,4.12,0,0,0-2.618,2.22,6.207,6.207,0,0,0,3.22-.608,18.522,18.522,0,0,0,2.833-1.717" transform="translate(-0.158 -229.758)" fill="#e0e0e0"/>
            <path id="Trazado_608405" data-name="Trazado 608405" d="M17.274,321.765a10.831,10.831,0,0,0-3.373-1.685,3.676,3.676,0,0,0-3.515.853,6.568,6.568,0,0,0,3.36.653,11.609,11.609,0,0,1,3.66.371" transform="translate(-7.329 -225.799)" fill="#e0e0e0"/>
            <path id="Trazado_608406" data-name="Trazado 608406" d="M28.9,308.565a7.841,7.841,0,0,1-1.765-7.388,11.258,11.258,0,0,1,1.765,7.388" transform="translate(-18.944 -212.543)" fill="#e0e0e0"/>
            <path id="Trazado_608407" data-name="Trazado 608407" d="M50.7,295.216c.341-.792.58-1.624.886-2.43a6.976,6.976,0,0,1,1.264-2.24,3.328,3.328,0,0,1,2.238-1.16,9.013,9.013,0,0,1-4.343,5.843" transform="translate(-35.777 -204.221)" fill="#e0e0e0"/>
            <path id="Trazado_608408" data-name="Trazado 608408" d="M36.432,305.12a11.62,11.62,0,0,0-1.98-2.409A3.312,3.312,0,0,0,31.758,302a6.275,6.275,0,0,0,4.674,3.117" transform="translate(-22.412 -213.078)" fill="#e0e0e0"/>
            <path id="Trazado_608409" data-name="Trazado 608409" d="M45.958,295.454a13.4,13.4,0,0,1-.891-2.887,4.5,4.5,0,0,1,.452-2.936,6.661,6.661,0,0,1,.49,5.843" transform="translate(-31.758 -204.396)" fill="#e0e0e0"/>
            <path id="Trazado_608410" data-name="Trazado 608410" d="M50.727,280.1a6.3,6.3,0,0,1,4.1-3.855,1.53,1.53,0,0,1,.719-.108.623.623,0,0,1,.53.442c.067.316-.194.6-.44.81a13.962,13.962,0,0,1-4.911,2.711" transform="translate(-35.798 -194.868)" fill="#e0e0e0"/>
            <path id="Trazado_608411" data-name="Trazado 608411" d="M50.725,269.486a13.322,13.322,0,0,1,.536-3.55,4.488,4.488,0,0,1,2.234-2.7A5.262,5.262,0,0,1,52.5,266.7a15.851,15.851,0,0,0-1.807,3.186" transform="translate(-35.777 -185.77)" fill="#e0e0e0"/>
            <path id="Trazado_608412" data-name="Trazado 608412" d="M42.338,271.646c-.464-1.355-.512-3.075-1.323-4.255-.567-.825-1.475-1.387-1.964-2.26a3.438,3.438,0,0,0,.114,2.566,7.425,7.425,0,0,0,1.5,2.148c.6.641,1.114,1.123,1.672,1.8" transform="translate(-27.419 -187.104)" fill="#e0e0e0"/>
            <path id="Trazado_608413" data-name="Trazado 608413" d="M50.559,326.031c-.036,0-.067-9.037-.07-20.181s.025-20.183.061-20.183.067,9.034.07,20.183-.025,20.181-.061,20.181" transform="translate(-35.631 -201.598)" fill="#e0e0e0"/>
            <path id="Trazado_608414" data-name="Trazado 608414" d="M58.6,330.84a1.949,1.949,0,0,1-.34.128l-.935.315c-.788.269-1.871.658-3.047,1.139a12.364,12.364,0,0,0-2.887,1.446,2.123,2.123,0,0,0-.58.767c-.089.212-.106.342-.117.34a.265.265,0,0,1,0-.095,1.45,1.45,0,0,1,.066-.263,2.039,2.039,0,0,1,.566-.818,5.085,5.085,0,0,1,1.253-.778c.5-.234,1.056-.478,1.646-.72,1.179-.483,2.27-.86,3.068-1.106.4-.124.724-.216.949-.276a1.957,1.957,0,0,1,.354-.079" transform="translate(-35.771 -233.476)" fill="#e0e0e0"/>
            <path id="Trazado_608415" data-name="Trazado 608415" d="M62.675,309.239a.56.56,0,0,1-.1.1l-.29.272-1.082.983L57.6,313.8c-1.406,1.252-2.622,2.448-3.464,3.349-.422.45-.754.822-.981,1.082l-.262.3a.555.555,0,0,1-.1.1.55.55,0,0,1,.077-.116c.055-.073.134-.181.243-.315.215-.271.537-.653.952-1.112a45.734,45.734,0,0,1,3.445-3.384c1.411-1.249,2.7-2.371,3.629-3.18l1.11-.952.306-.254a.577.577,0,0,1,.113-.082" transform="translate(-37.261 -218.233)" fill="#e0e0e0"/>
            <path id="Trazado_608416" data-name="Trazado 608416" d="M63.958,321.577c-.037-.016.257-.695.55-1.553s.434-1.582.472-1.576a5.305,5.305,0,0,1-.348,1.617,10.55,10.55,0,0,1-.437,1.086,1.7,1.7,0,0,1-.236.425" transform="translate(-45.134 -224.732)" fill="#e0e0e0"/>
            <path id="Trazado_608417" data-name="Trazado 608417" d="M38.2,331.841a1.607,1.607,0,0,1-.217-.252l-.555-.712c-.466-.6-1.111-1.435-1.834-2.345s-1.387-1.728-1.868-2.319l-.567-.7a1.578,1.578,0,0,1-.2-.268,1.639,1.639,0,0,1,.234.235c.145.157.35.388.6.676.5.576,1.176,1.385,1.9,2.3s1.358,1.754,1.805,2.371c.224.309.4.561.522.737a1.605,1.605,0,0,1,.176.282" transform="translate(-23.258 -229.526)" fill="#e0e0e0"/>
            <path id="Trazado_608418" data-name="Trazado 608418" d="M42.717,333.561a3.186,3.186,0,0,1-.725-1.358,3.883,3.883,0,0,1-.165-1.369l.058,0c-.026.1-.045.16-.055.158s-.011-.06,0-.167l.058,0a6.223,6.223,0,0,0,.232,1.332,10.143,10.143,0,0,0,.6,1.4" transform="translate(-29.512 -233.469)" fill="#e0e0e0"/>
            <path id="Trazado_608419" data-name="Trazado 608419" d="M27.9,329.225a2.346,2.346,0,0,0-.506-.294,3.388,3.388,0,0,0-1.406-.112,8.671,8.671,0,0,0-1.416.229,4.308,4.308,0,0,1-.583.14,2.035,2.035,0,0,1,.558-.229,6.47,6.47,0,0,1,1.431-.27,3.07,3.07,0,0,1,1.451.156.9.9,0,0,1,.472.38" transform="translate(-16.927 -231.945)" fill="#e0e0e0"/>
            <path id="Trazado_608420" data-name="Trazado 608420" d="M22.3,326.248c-.01.02-.295-.118-.776-.282a7.811,7.811,0,0,0-3.91-.3c-.5.089-.8.183-.81.162a.741.741,0,0,1,.206-.088,4.8,4.8,0,0,1,.586-.164,6.9,6.9,0,0,1,3.96.3,4.839,4.839,0,0,1,.554.251.745.745,0,0,1,.19.118" transform="translate(-11.856 -229.65)" fill="#e0e0e0"/>
            <path id="Trazado_608421" data-name="Trazado 608421" d="M48.276,308.944a31.978,31.978,0,0,1-1.005-3.963,32.116,32.116,0,0,1,1.005,3.963" transform="translate(-33.357 -215.227)" fill="#e0e0e0"/>
            <path id="Trazado_608422" data-name="Trazado 608422" d="M47.1,313.337a9.589,9.589,0,0,0-.627-1.177,5.181,5.181,0,0,0-.923-.953.863.863,0,0,1,.356.184,2.863,2.863,0,0,1,.674.694,2.616,2.616,0,0,1,.521,1.252" transform="translate(-32.144 -219.62)" fill="#e0e0e0"/>
            <path id="Trazado_608423" data-name="Trazado 608423" d="M30.876,374.826c-.014,0-.041-.217-.142-.6a8.574,8.574,0,0,0-.6-1.564,21.659,21.659,0,0,0-3.2-4.514c-.715-.817-1.409-1.588-2-2.326A16.323,16.323,0,0,1,23.5,363.76a9.932,9.932,0,0,1-.721-1.529c-.066-.188-.115-.335-.142-.437a.733.733,0,0,1-.037-.156c.011,0,.077.207.226.575a11.179,11.179,0,0,0,.753,1.5,17.326,17.326,0,0,0,1.443,2.032c.592.73,1.286,1.5,2,2.316a20.527,20.527,0,0,1,3.189,4.559,7.814,7.814,0,0,1,.57,1.592,4.361,4.361,0,0,1,.08.454.747.747,0,0,1,.013.16" transform="translate(-15.947 -255.21)" fill="#e0e0e0"/>
            <path id="Trazado_608424" data-name="Trazado 608424" d="M57.862,379.064a3.3,3.3,0,0,1-.374.21,8.179,8.179,0,0,0-.97.641,11.178,11.178,0,0,0-1.274,1.162c-.447.473-.907,1.021-1.378,1.609-.939,1.179-1.818,2.223-2.345,3.056-.267.413-.461.762-.589,1.006a3.247,3.247,0,0,1-.206.377.354.354,0,0,1,.034-.106c.028-.067.066-.168.126-.293a9.528,9.528,0,0,1,.557-1.033,33.655,33.655,0,0,1,2.321-3.088c.471-.589.937-1.139,1.393-1.61a10.32,10.32,0,0,1,1.305-1.153,6.8,6.8,0,0,1,1-.612c.124-.062.225-.1.292-.129a.353.353,0,0,1,.106-.036" transform="translate(-35.797 -267.508)" fill="#e0e0e0"/>
            <path id="Trazado_608425" data-name="Trazado 608425" d="M63.623,387.928a5.433,5.433,0,0,1-.79.115,10.412,10.412,0,0,0-1.875.369,5.636,5.636,0,0,0-1.679.881c-.387.3-.569.546-.587.532a.614.614,0,0,1,.117-.182,2.974,2.974,0,0,1,.412-.421,5.074,5.074,0,0,1,1.7-.934,8.447,8.447,0,0,1,1.906-.337,4.329,4.329,0,0,1,.8-.023" transform="translate(-41.419 -273.757)" fill="#e0e0e0"/>
            <path id="Trazado_608426" data-name="Trazado 608426" d="M59.469,387c-.041-.023.315-.567.591-1.3.259-.739.32-1.386.367-1.379a1.254,1.254,0,0,1-.013.424,4.546,4.546,0,0,1-.23,1,4.847,4.847,0,0,1-.459.916,1.275,1.275,0,0,1-.256.338" transform="translate(-41.966 -271.218)" fill="#e0e0e0"/>
            <path id="Trazado_608427" data-name="Trazado 608427" d="M60.179,355.211a.6.6,0,0,1-.127.067l-.371.169c-.163.07-.36.158-.583.276s-.484.234-.755.4l-.431.245c-.149.086-.3.188-.455.287-.318.193-.636.431-.976.673a16.744,16.744,0,0,0-3.76,3.891c-.231.348-.457.674-.639,1-.093.161-.19.312-.271.465l-.23.439c-.154.277-.263.541-.371.768s-.191.427-.255.592l-.156.377a.611.611,0,0,1-.063.129.571.571,0,0,1,.038-.138l.133-.386c.057-.168.132-.372.236-.6s.206-.5.355-.78l.224-.446c.079-.155.175-.308.266-.471.179-.329.4-.66.634-1.012a16.137,16.137,0,0,1,3.788-3.919c.344-.242.667-.477.99-.668.16-.1.31-.2.462-.282l.438-.239c.276-.159.541-.272.768-.382s.428-.194.594-.257l.382-.147a.6.6,0,0,1,.136-.043" transform="translate(-35.804 -250.675)" fill="#e0e0e0"/>
            <path id="Trazado_608428" data-name="Trazado 608428" d="M63.634,365.808a.907.907,0,0,1,.31-.462,1.959,1.959,0,0,1,1.251-.48,3.425,3.425,0,0,1,1.317.257,1.884,1.884,0,0,1,.5.242,3.052,3.052,0,0,1-.528-.155A3.979,3.979,0,0,0,65.2,365a2.038,2.038,0,0,0-1.2.419,3.683,3.683,0,0,0-.371.393" transform="translate(-44.906 -257.488)" fill="#e0e0e0"/>
            <path id="Trazado_608429" data-name="Trazado 608429" d="M60.762,365.364A3.339,3.339,0,0,0,61.038,363a.762.762,0,0,1,.147.337,2.387,2.387,0,0,1-.2,1.732c-.11.2-.207.3-.22.294" transform="translate(-42.878 -256.173)" fill="#e0e0e0"/>
            <path id="Trazado_608430" data-name="Trazado 608430" d="M29.52,410.854a29.907,29.907,0,0,0,2.836,10.516h6.961a30.236,30.236,0,0,0,2.667-10.516Z" transform="translate(-20.833 -289.943)" fill="#e0e0e0"/>
            <path id="Trazado_608431" data-name="Trazado 608431" d="M43.491,429.685c0,.036-2.292.065-5.118.065s-5.119-.029-5.119-.065,2.291-.065,5.119-.065,5.118.029,5.118.065" transform="translate(-23.468 -303.186)" fill="#fafafa"/>
            <path id="Trazado_608432" data-name="Trazado 608432" d="M44.5,433.936c0,.036-2.149.065-4.8.065s-4.8-.029-4.8-.065,2.148-.065,4.8-.065,4.8.029,4.8.065" transform="translate(-24.63 -306.186)" fill="#fafafa"/>
            <path id="Trazado_608433" data-name="Trazado 608433" d="M39.381,418.558a19.705,19.705,0,0,1,0,3.207,19.706,19.706,0,0,1,0-3.207" transform="translate(-27.746 -295.38)" fill="#fafafa"/>
            <path id="Trazado_608434" data-name="Trazado 608434" d="M52.054,418.558a21.13,21.13,0,0,1,0,3.321,21.132,21.132,0,0,1,0-3.321" transform="translate(-36.689 -295.38)" fill="#fafafa"/>
            <path id="Trazado_608435" data-name="Trazado 608435" d="M63.95,418.463a21.983,21.983,0,0,1,0,3.387,21.982,21.982,0,0,1,0-3.387" transform="translate(-45.084 -295.313)" fill="#fafafa"/>
            <path id="Trazado_608436" data-name="Trazado 608436" d="M42.331,418.4c0,.036-2.688.065-6,.065s-6-.029-6-.065,2.687-.065,6-.065,6,.029,6,.065" transform="translate(-21.4 -295.223)" fill="#fafafa"/>
            <path id="Trazado_608437" data-name="Trazado 608437" d="M420.469,292.664a3.559,3.559,0,0,0,2.12-3.292,3.344,3.344,0,1,0-6.675-.031,3.553,3.553,0,0,0,2.127,3.323c-5.136.774-4.9,6.355-4.9,6.355l12.145.056s.277-5.642-4.814-6.411" transform="translate(-291.554 -201.689)" fill="#ebebeb"/>
            <path id="Trazado_608438" data-name="Trazado 608438" d="M239.061,22.339a2.331,2.331,0,0,0,1.84-1.787,2.191,2.191,0,1,0-4.255-1.007,2.328,2.328,0,0,0,.866,2.435c-3.392-.266-4.069,3.331-4.069,3.331l7.742,1.832s1.011-3.56-2.124-4.8" transform="translate(-164.743 -12.508)" fill="#ebebeb"/>
            <path id="Trazado_608439" data-name="Trazado 608439" d="M429.483,125.189a2.235,2.235,0,0,0,1.022-2.237,2.1,2.1,0,1,0-4.152.581,2.231,2.231,0,0,0,1.621,1.875c-3.123.943-2.477,4.392-2.477,4.392l7.555-1.057s-.335-3.533-3.569-3.554" transform="translate(-300.238 -85.397)" fill="#f5f5f5"/>
            <path id="Trazado_608440" data-name="Trazado 608440" d="M17.347,122.134l-4.082-3.245,1.132-1.424,2.737,2.176,4-4.473,1.357,1.212Z" transform="translate(-9.361 -81.275)" fill="#f5f5f5"/>
          </g>
        </g>
        <g id="Grupo_1071199" data-name="Grupo 1071199">
          <g id="Grupo_1071198" data-name="Grupo 1071198" clip-path="url(#clip-path)">
            <path id="Trazado_608441" data-name="Trazado 608441" d="M131.641,446.762c0,.042-29.471.077-65.817.077S0,446.8,0,446.762s29.465-.077,65.824-.077,65.817.034,65.817.077" transform="translate(0 -315.229)" fill="#263238"/>
          </g>
        </g>
        <g id="Grupo_1071207" data-name="Grupo 1071207">
          <g id="Grupo_1071206" data-name="Grupo 1071206" clip-path="url(#clip-path)">
            <path id="Trazado_608442" data-name="Trazado 608442" d="M21.745,154.594l-9.027,4.528a1.831,1.831,0,0,0-1.113,1.684v4.223a19.6,19.6,0,0,0,3.219,10.812c1.626,2.478,3.783,5.645,7.371,7.455h1.62c3.994-1.218,6.976-4.465,8.8-7.243a19.6,19.6,0,0,0,3.219-10.812v-4.435a1.831,1.831,0,0,0-1.113-1.684L24.436,154.74a6.277,6.277,0,0,0-2.691-.147" transform="translate(-8.19 -109.033)" fill="#ff725e"/>
            <g id="Grupo_1071202" data-name="Grupo 1071202" transform="translate(3.415 45.469)" opacity="0.3">
              <g id="Grupo_1071201" data-name="Grupo 1071201">
                <g id="Grupo_1071200" data-name="Grupo 1071200" clip-path="url(#clip-path-5)">
                  <path id="Trazado_608443" data-name="Trazado 608443" d="M21.745,154.594l-9.027,4.528a1.831,1.831,0,0,0-1.113,1.684v4.223a19.6,19.6,0,0,0,3.219,10.812c1.626,2.478,3.783,5.645,7.371,7.455h1.62c3.994-1.218,6.976-4.465,8.8-7.243a19.6,19.6,0,0,0,3.219-10.812v-4.435a1.831,1.831,0,0,0-1.113-1.684L24.436,154.74a6.277,6.277,0,0,0-2.691-.147" transform="translate(-11.605 -154.502)"/>
                </g>
              </g>
            </g>
            <path id="Trazado_608444" data-name="Trazado 608444" d="M17.5,154.962,7.214,159.343A1.83,1.83,0,0,0,6.1,161.027v4.222a19.771,19.771,0,0,0,12.21,18.267c3.994-1.218,6.976-4.466,8.8-7.243a19.6,19.6,0,0,0,3.219-10.811v-4.435a1.83,1.83,0,0,0-1.113-1.684l-10.283-4.382a1.83,1.83,0,0,0-1.435,0" transform="translate(-4.306 -109.254)" fill="#ff725e"/>
            <g id="Grupo_1071205" data-name="Grupo 1071205" transform="translate(7.168 51.836)" opacity="0.3">
              <g id="Grupo_1071204" data-name="Grupo 1071204">
                <g id="Grupo_1071203" data-name="Grupo 1071203" clip-path="url(#clip-path-6)">
                  <path id="Trazado_608445" data-name="Trazado 608445" d="M37.84,182.879a6.741,6.741,0,1,1-6.741-6.741,6.741,6.741,0,0,1,6.741,6.741" transform="translate(-24.358 -176.138)"/>
                </g>
              </g>
            </g>
            <path id="Trazado_608446" data-name="Trazado 608446" d="M43.35,184.088a2.8,2.8,0,1,1-2.8-2.8,2.8,2.8,0,0,1,2.8,2.8" transform="translate(-26.643 -127.937)" fill="#fff"/>
            <path id="Trazado_608447" data-name="Trazado 608447" d="M29.9,206.52a5.471,5.471,0,0,1,5.008-3.108,5.95,5.95,0,0,1,5.214,3.108,6.285,6.285,0,0,1-5.309,2.347A6.406,6.406,0,0,1,29.9,206.52" transform="translate(-21.098 -143.549)" fill="#fff"/>
            <path id="Trazado_608448" data-name="Trazado 608448" d="M37.656,182.74a.605.605,0,0,1-.014-.109c-.006-.079-.014-.185-.024-.32,0-.071-.01-.149-.015-.235s-.029-.18-.044-.281a4.949,4.949,0,0,0-.143-.694,6.445,6.445,0,0,0-.75-1.782,6.679,6.679,0,0,0-8.023-2.844,6.124,6.124,0,0,0-1.687.909,6.1,6.1,0,0,0-1.409,1.416,6.452,6.452,0,0,0-.953,1.836,6.608,6.608,0,0,0,0,4.206,6.459,6.459,0,0,0,.952,1.837,6.093,6.093,0,0,0,1.409,1.417,6.122,6.122,0,0,0,1.687.909,6.7,6.7,0,0,0,8.023-2.845,6.432,6.432,0,0,0,.75-1.782,4.949,4.949,0,0,0,.143-.694c.016-.1.034-.195.044-.281s.011-.164.015-.235c.01-.134.018-.24.024-.319a.606.606,0,0,1,.014-.109.615.615,0,0,1,0,.109c0,.08,0,.186-.009.321,0,.072-.005.15-.008.237s-.024.181-.037.284a4.773,4.773,0,0,1-.13.7,6.366,6.366,0,0,1-.734,1.811,6.787,6.787,0,0,1-4.569,3.22,6.818,6.818,0,0,1-3.577-.286,6.257,6.257,0,0,1-1.726-.924,6.237,6.237,0,0,1-1.443-1.445,6.6,6.6,0,0,1-.976-1.878,6.745,6.745,0,0,1,0-4.3,6.589,6.589,0,0,1,.976-1.877,6.24,6.24,0,0,1,1.443-1.445,6.26,6.26,0,0,1,1.726-.924,6.817,6.817,0,0,1,3.576-.286,6.784,6.784,0,0,1,4.569,3.22,6.379,6.379,0,0,1,.734,1.811,4.8,4.8,0,0,1,.13.7c.013.1.03.2.037.283s.006.166.008.237c0,.135.007.241.009.321a.614.614,0,0,1,0,.109" transform="translate(-17.005 -124.163)" fill="#263238"/>
            <path id="Trazado_608449" data-name="Trazado 608449" d="M70.219,187.106a.988.988,0,0,1,.019.194c.006.144.014.329.024.559s.023.541.006.886q-.008.26-.016.554c0,.2-.014.4-.038.619-.042.433-.071.91-.16,1.415-.041.252-.073.516-.125.783l-.177.823a20.257,20.257,0,0,1-1.186,3.55,20.9,20.9,0,0,1-1.844,3.258c-.343.463-.658.911-1,1.3-.167.195-.318.391-.48.564l-.469.5c-.291.324-.591.581-.84.82s-.477.431-.667.583l-.436.352a.938.938,0,0,1-.158.114.966.966,0,0,1,.139-.138l.416-.373c.184-.158.406-.354.647-.6s.536-.505.821-.832l.459-.5c.159-.174.307-.371.471-.566.333-.386.643-.833.98-1.3a21.532,21.532,0,0,0,1.82-3.24,20.873,20.873,0,0,0,1.188-3.52l.182-.816c.054-.265.089-.527.132-.777.094-.5.129-.974.178-1.4.027-.215.043-.421.049-.616s.019-.378.028-.55c.025-.344.02-.64.019-.883s0-.415,0-.559a.917.917,0,0,1,.012-.2" transform="translate(-44.229 -132.042)" fill="#263238"/>
          </g>
        </g>
        <g id="Grupo_1071209" data-name="Grupo 1071209">
          <g id="Grupo_1071208" data-name="Grupo 1071208" clip-path="url(#clip-path)">
            <path id="Trazado_608450" data-name="Trazado 608450" d="M156.419,174.961H86.832a3.47,3.47,0,0,1-3.41-3.527V65.066a3.47,3.47,0,0,1,3.41-3.527h69.587a3.47,3.47,0,0,1,3.41,3.527V171.433a3.47,3.47,0,0,1-3.41,3.527" transform="translate(-58.872 -43.429)" fill="#263238"/>
            <path id="Trazado_608451" data-name="Trazado 608451" d="M202.224,421.782a3.241,3.241,0,1,1-3.24-3.182,3.211,3.211,0,0,1,3.24,3.182" transform="translate(-138.137 -295.41)" fill="#455a64"/>
            <path id="Trazado_608452" data-name="Trazado 608452" d="M199.809,76.507H184.2a1.126,1.126,0,0,1,0-2.251h15.6a1.126,1.126,0,0,1,0,2.251" transform="translate(-129.226 -52.403)" fill="#455a64"/>
            <rect id="Rectángulo_377317" data-name="Rectángulo 377317" width="71.588" height="94.721" transform="translate(26.894 26.202)" fill="#fff"/>
            <rect id="Rectángulo_377318" data-name="Rectángulo 377318" width="3.054" height="94.721" transform="translate(95.428 26.202)" fill="#f5f5f5"/>
            <path id="Trazado_608453" data-name="Trazado 608453" d="M327.169,149.86h0a.952.952,0,0,1-.952-.952V127.955a.952.952,0,1,1,1.9,0v20.953a.952.952,0,0,1-.952.952" transform="translate(-230.214 -89.627)" fill="#e0e0e0"/>
            <path id="Trazado_608454" data-name="Trazado 608454" d="M172.7,155H119.914a1.518,1.518,0,0,1,0-3.037H172.7a1.518,1.518,0,0,1,0,3.037" transform="translate(-83.553 -107.242)" fill="#e0e0e0"/>
            <path id="Trazado_608455" data-name="Trazado 608455" d="M192.066,117.354h-33.2a1.518,1.518,0,0,1,0-3.036h33.2a1.518,1.518,0,1,1,0,3.036" transform="translate(-111.038 -80.675)" fill="#ff725e"/>
            <path id="Trazado_608456" data-name="Trazado 608456" d="M183.179,175.768H145.384a1.518,1.518,0,0,1,0-3.036h37.795a1.518,1.518,0,1,1,0,3.036" transform="translate(-101.527 -121.898)" fill="#e0e0e0"/>
            <path id="Trazado_608457" data-name="Trazado 608457" d="M146.1,266.3H117.019a1.518,1.518,0,0,1,0-3.036H146.1a1.518,1.518,0,1,1,0,3.036" transform="translate(-81.51 -185.786)" fill="#e0e0e0"/>
            <path id="Trazado_608458" data-name="Trazado 608458" d="M169.8,244.693H117.018a1.518,1.518,0,1,1,0-3.037H169.8a1.518,1.518,0,0,1,0,3.037" transform="translate(-81.509 -170.539)" fill="#e0e0e0"/>
            <path id="Trazado_608459" data-name="Trazado 608459" d="M185.588,314.288h-46.2a1.518,1.518,0,1,1,0-3.036h46.2a1.518,1.518,0,1,1,0,3.036" transform="translate(-97.294 -219.653)" fill="#e0e0e0"/>
            <path id="Trazado_608460" data-name="Trazado 608460" d="M169.8,336.34H117.018a1.518,1.518,0,1,1,0-3.036H169.8a1.518,1.518,0,0,1,0,3.036" transform="translate(-81.509 -235.215)" fill="#e0e0e0"/>
            <path id="Trazado_608461" data-name="Trazado 608461" d="M169.8,358.734H117.018a1.518,1.518,0,1,1,0-3.036H169.8a1.518,1.518,0,0,1,0,3.036" transform="translate(-81.509 -251.019)" fill="#e0e0e0"/>
            <path id="Trazado_608462" data-name="Trazado 608462" d="M121.168,312.629a1.577,1.577,0,1,1-1.577-1.577,1.577,1.577,0,0,1,1.577,1.577" transform="translate(-83.283 -219.512)" fill="#ff725e"/>
            <path id="Trazado_608463" data-name="Trazado 608463" d="M185.588,224.542h-46.2a1.518,1.518,0,0,1,0-3.036h46.2a1.518,1.518,0,1,1,0,3.036" transform="translate(-97.294 -156.318)" fill="#e0e0e0"/>
            <path id="Trazado_608464" data-name="Trazado 608464" d="M121.168,222.883a1.577,1.577,0,1,1-1.577-1.577,1.577,1.577,0,0,1,1.577,1.577" transform="translate(-83.283 -156.177)" fill="#ff725e"/>
            <path id="Trazado_608465" data-name="Trazado 608465" d="M260.8,387.225H248.96a2.42,2.42,0,1,1,0-4.839H260.8a2.42,2.42,0,1,1,0,4.839" transform="translate(-173.985 -269.853)" fill="#ff725e"/>
          </g>
        </g>
        <g id="Grupo_1071214" data-name="Grupo 1071214">
          <g id="Grupo_1071213" data-name="Grupo 1071213" clip-path="url(#clip-path)">
            <path id="Trazado_608466" data-name="Trazado 608466" d="M54.584,10.652,42.306,16.811a2.49,2.49,0,0,0-1.514,2.29v5.744A26.658,26.658,0,0,0,45.17,39.55c2.212,3.37,5.145,7.677,10.025,10.14h2.2c5.433-1.657,9.488-6.074,11.968-9.851a26.657,26.657,0,0,0,4.379-14.705V19.1a2.49,2.49,0,0,0-1.514-2.29l-13.987-5.96a8.537,8.537,0,0,0-3.66-.2" transform="translate(-28.787 -7.429)" fill="#ff725e"/>
            <g id="Grupo_1071212" data-name="Grupo 1071212" transform="translate(12.005 3.098)" opacity="0.3">
              <g id="Grupo_1071211" data-name="Grupo 1071211">
                <g id="Grupo_1071210" data-name="Grupo 1071210" clip-path="url(#clip-path-9)">
                  <path id="Trazado_608467" data-name="Trazado 608467" d="M54.584,10.652,42.306,16.811a2.49,2.49,0,0,0-1.514,2.29v5.744A26.658,26.658,0,0,0,45.17,39.55c2.212,3.37,5.145,7.677,10.025,10.14h2.2c5.433-1.657,9.488-6.074,11.968-9.851a26.657,26.657,0,0,0,4.379-14.705V19.1a2.49,2.49,0,0,0-1.514-2.29l-13.987-5.96a8.537,8.537,0,0,0-3.66-.2" transform="translate(-40.792 -10.527)"/>
                </g>
              </g>
            </g>
            <path id="Trazado_608468" data-name="Trazado 608468" d="M48.806,11.152l-13.987,5.96a2.49,2.49,0,0,0-1.514,2.29v5.744A26.892,26.892,0,0,0,49.912,49.991c5.433-1.657,9.488-6.074,11.967-9.851a26.657,26.657,0,0,0,4.378-14.705V19.4a2.489,2.489,0,0,0-1.514-2.29l-13.987-5.96a2.489,2.489,0,0,0-1.952,0" transform="translate(-23.504 -7.729)" fill="#ff725e"/>
            <path id="Trazado_608469" data-name="Trazado 608469" d="M120.517,54.873a.23.23,0,0,1,.009.067l.011.2q.01.281.028.761c.011.33.029.735,0,1.2q-.011.353-.024.752-.007.2-.014.411l-.04.431c-.058.589-.1,1.237-.221,1.922-.056.343-.1.7-.172,1.064l-.241,1.118a27.682,27.682,0,0,1-1.613,4.823,28.546,28.546,0,0,1-2.5,4.428c-.465.63-.893,1.238-1.353,1.762-.226.265-.431.531-.652.767l-.636.677c-.4.441-.8.792-1.139,1.117-.172.159-.328.313-.48.444l-.423.352-.589.482-.155.122a.235.235,0,0,1-.056.038s.014-.019.046-.05l.146-.134.569-.5.413-.361c.15-.134.3-.291.471-.453.332-.331.731-.686,1.119-1.13l.627-.68c.217-.237.419-.5.642-.77.454-.524.876-1.133,1.336-1.762a29.193,29.193,0,0,0,2.48-4.41,28.3,28.3,0,0,0,1.616-4.793l.246-1.111c.074-.361.12-.717.179-1.059.127-.682.174-1.326.238-1.912l.045-.429q.01-.21.019-.409.019-.4.036-.749c.032-.468.024-.871.022-1.2s0-.573,0-.76c0-.079,0-.144,0-.2a.234.234,0,0,1,.007-.068" transform="translate(-77.808 -38.724)" fill="#263238"/>
            <path id="Trazado_608470" data-name="Trazado 608470" d="M84.344,49.747H82.853V41.628a3.466,3.466,0,1,0-6.931,0v8.119H74.43V41.628a4.957,4.957,0,1,1,9.914,0Z" transform="translate(-52.526 -25.879)" fill="#f5f5f5"/>
            <path id="Trazado_608471" data-name="Trazado 608471" d="M80.225,72.848H70.284a1.71,1.71,0,0,1-1.71-1.71V64.087a1.71,1.71,0,0,1,1.71-1.71h9.941a1.71,1.71,0,0,1,1.71,1.71v7.052a1.71,1.71,0,0,1-1.71,1.71" transform="translate(-48.393 -44.02)" fill="#fff"/>
            <path id="Trazado_608472" data-name="Trazado 608472" d="M80.041,72.664a3,3,0,0,0,.445-.077,1.7,1.7,0,0,0,1.229-1.647c0-.345,0-.719-.006-1.12,0-.805-.007-1.72-.011-2.731s-.01-2.118-.016-3.3a1.644,1.644,0,0,0-.97-1.381,1.969,1.969,0,0,0-.916-.142l-.991,0-8.7.006a1.649,1.649,0,0,0-1.018.356,1.631,1.631,0,0,0-.571.9,2.125,2.125,0,0,0-.046.54q0,.28,0,.558,0,.555,0,1.1c0,1.456,0,2.86,0,4.2a3.669,3.669,0,0,0,.232,1.876,1.656,1.656,0,0,0,1.489.8l3.31.009,4.793.024,1.3.014.339.007a.644.644,0,0,1,.115.008.646.646,0,0,1-.115.008l-.339.007-1.3.014-4.793.024-3.31.009a1.783,1.783,0,0,1-1.861-1.815q0-.489,0-.991c0-1.338,0-2.743,0-4.2q0-.546,0-1.1,0-.278,0-.558a2.28,2.28,0,0,1,.05-.575,1.782,1.782,0,0,1,.624-.983,1.8,1.8,0,0,1,1.114-.39l8.7.006H79.8a2.1,2.1,0,0,1,.971.157,1.773,1.773,0,0,1,1.042,1.494c.01,1.2,0,2.3,0,3.314s-.008,1.926-.011,2.731c0,.4,0,.775-.006,1.12a1.745,1.745,0,0,1-.258.912,1.7,1.7,0,0,1-1.035.766,1.35,1.35,0,0,1-.453.047" transform="translate(-48.209 -43.836)" fill="#263238"/>
            <path id="Trazado_608473" data-name="Trazado 608473" d="M88.726,75.111a1.45,1.45,0,0,0,.423-1.026,1.469,1.469,0,1,0-1.87,1.407l-.316,1.4h1.4l-.281-1.4a1.487,1.487,0,0,0,.646-.381" transform="translate(-60.839 -51.246)" fill="#ff725e"/>
          </g>
        </g>
        <g id="Grupo_1071225" data-name="Grupo 1071225">
          <g id="Grupo_1071224" data-name="Grupo 1071224" clip-path="url(#clip-path)">
            <path id="Trazado_608474" data-name="Trazado 608474" d="M380.419,102.779v11.926c.026,2.062.329,5.3-2.934,5.191-2.824-.308-3.573-2.981-3.6-4.906-.01-.913-.021-1.674-.028-1.768a3.678,3.678,0,0,1-3.352-3.305c-.126-1.476-.138-4.536-.117-7.3a5.708,5.708,0,0,1,5.294-5.646l.295-.021c3.193-.047,4.48,2.641,4.438,5.834" transform="translate(-261.383 -68.415)" fill="#ffc09d"/>
            <path id="Trazado_608475" data-name="Trazado 608475" d="M382.2,148.739a7.4,7.4,0,0,0,3.893-1.467,3.833,3.833,0,0,1-3.877,2.25Z" transform="translate(-269.723 -103.931)" fill="#ff9b6c"/>
            <path id="Trazado_608476" data-name="Trazado 608476" d="M388.13,119.162c.061.062.413-.222.925-.236s.894.237.947.171c.027-.029-.037-.142-.2-.259a1.281,1.281,0,0,0-.76-.216,1.238,1.238,0,0,0-.734.267c-.154.128-.2.245-.174.273" transform="translate(-273.901 -83.712)" fill="#263238"/>
            <path id="Trazado_608477" data-name="Trazado 608477" d="M388.122,124.407a.414.414,0,0,0,.428.387.4.4,0,0,0,.4-.4.414.414,0,0,0-.428-.388.4.4,0,0,0-.4.4" transform="translate(-273.901 -87.51)" fill="#263238"/>
            <path id="Trazado_608478" data-name="Trazado 608478" d="M380.864,123.127a3.121,3.121,0,0,0-.773-.082c-.121,0-.236-.019-.262-.1a.613.613,0,0,1,.054-.361q.137-.448.288-.939a15.756,15.756,0,0,0,.622-2.447,15.784,15.784,0,0,0-.818,2.391q-.143.494-.273.944a.7.7,0,0,0-.028.475.3.3,0,0,0,.21.161.806.806,0,0,0,.206.014,3.064,3.064,0,0,0,.773-.055" transform="translate(-267.916 -84.119)" fill="#263238"/>
            <path id="Trazado_608479" data-name="Trazado 608479" d="M388.881,112.141c.049.114.459.028.949.053s.893.133.95.024c.025-.052-.051-.157-.218-.258a1.606,1.606,0,0,0-1.447-.059c-.173.087-.256.185-.235.239" transform="translate(-274.434 -78.868)" fill="#263238"/>
            <path id="Trazado_608480" data-name="Trazado 608480" d="M372.371,114.712c.054.092.453-.01.936-.025s.885.047.936-.05c.022-.046-.057-.129-.226-.2a1.689,1.689,0,0,0-.715-.118,1.745,1.745,0,0,0-.711.175c-.166.087-.244.176-.22.22" transform="translate(-262.782 -80.673)" fill="#263238"/>
            <path id="Trazado_608481" data-name="Trazado 608481" d="M356.6,95.467a.5.5,0,0,1,.232-.289,1.521,1.521,0,0,1,.781-.127,4.41,4.41,0,0,0,2.3-.7,10.251,10.251,0,0,1,1.069-1.295,7.774,7.774,0,0,1,2.475-1.921,7.091,7.091,0,0,1,3.785-.3,2.865,2.865,0,0,1,2.164,2.229,2.2,2.2,0,0,1,2.216-.208l.018-.008a2.772,2.772,0,0,1,1.506,1.966,10.246,10.246,0,0,0,.776,2.444c.091.154.2.34.12.5a.341.341,0,0,1-.357.155,1,1,0,0,1-.376-.17l.27.647a1.913,1.913,0,0,1-.879-.059,18.754,18.754,0,0,1-.575,2.173,1.245,1.245,0,0,0-.855.21c-.283.255-.41.733-.88.552-.24-.092-.458-.595-.538-.838a11.917,11.917,0,0,1-.516-5.044,3.834,3.834,0,0,0-1.183-.854l.036.033a3.471,3.471,0,0,0-2.628-.187,5.631,5.631,0,0,0-1.467,1.483,4.793,4.793,0,0,1-3.417,1.578c-.045.86.027,2.075-.018,2.935L359.933,99v.007c-.059-.1-.108-.2-.156-.3l-.016-.031v0a5.352,5.352,0,0,0-.242-.489l-.008.007a.537.537,0,0,1-.785-.718,1.209,1.209,0,0,1,.26-.261.849.849,0,0,1-.81.21.666.666,0,0,1-.471-.659.567.567,0,0,1,.338-.455,1.914,1.914,0,0,1-1.089-.24c-.215-.123-.426-.325-.353-.6" transform="translate(-251.645 -64.01)" fill="#263238"/>
            <path id="Trazado_608482" data-name="Trazado 608482" d="M396.868,99.936a2.637,2.637,0,0,1,.306.28,2.189,2.189,0,0,1,.469,1.014,3.846,3.846,0,0,1,.078.776c0,.281-.021.583-.043.9a8.092,8.092,0,0,0-.023,1,3.5,3.5,0,0,0,.069.529,1.1,1.1,0,0,0,.216.513.461.461,0,0,0,.431.145.685.685,0,0,0,.388-.219,1.58,1.58,0,0,0,.294-.777l-.064.008a2.565,2.565,0,0,0,.371.64.913.913,0,0,0,.594.324.589.589,0,0,0,.315-.055.506.506,0,0,0,.214-.211.523.523,0,0,0,.065-.271.38.38,0,0,0-.1-.237l-.032.029a1.968,1.968,0,0,0,.656.492,1.73,1.73,0,0,0,.2.079.314.314,0,0,0,.073.018.378.378,0,0,0-.069-.029c-.045-.019-.113-.046-.2-.089a2.028,2.028,0,0,1-.633-.5l-.032.029a.391.391,0,0,1,.02.454.455.455,0,0,1-.193.187.532.532,0,0,1-.286.046.852.852,0,0,1-.552-.308,2.527,2.527,0,0,1-.358-.626l-.044-.1-.02.106a1.532,1.532,0,0,1-.28.742.619.619,0,0,1-.347.2.389.389,0,0,1-.366-.123,1.041,1.041,0,0,1-.2-.479,3.535,3.535,0,0,1-.068-.518,8.179,8.179,0,0,1,.019-.993c.02-.317.04-.62.036-.9a3.841,3.841,0,0,0-.088-.786,2.161,2.161,0,0,0-.5-1.022,1.24,1.24,0,0,0-.327-.262" transform="translate(-280.073 -70.526)" fill="#455a64"/>
            <path id="Trazado_608483" data-name="Trazado 608483" d="M364.762,98.8s.008.008.024.021l.076.056a1.03,1.03,0,0,0,.129.083,1.568,1.568,0,0,0,.186.1,2.707,2.707,0,0,0,1.307.235,3.459,3.459,0,0,0,1.843-.681,5.993,5.993,0,0,0,1.584-1.825c.222-.37.4-.749.6-1.1a4.039,4.039,0,0,1,.682-.93,2.083,2.083,0,0,1,.88-.534,1.493,1.493,0,0,1,.464-.054,1.636,1.636,0,0,1,.425.082,1.765,1.765,0,0,1,.981.83,2.13,2.13,0,0,1,.158.458.112.112,0,0,0,0-.032l-.014-.094a1.513,1.513,0,0,0-.116-.345,1.738,1.738,0,0,0-.342-.464,1.789,1.789,0,0,0-.648-.4,1.689,1.689,0,0,0-.439-.089,1.548,1.548,0,0,0-.483.052,2.138,2.138,0,0,0-.91.544,4.075,4.075,0,0,0-.7.943c-.2.353-.383.731-.6,1.1a6,6,0,0,1-1.561,1.808,3.441,3.441,0,0,1-1.808.684,2.751,2.751,0,0,1-1.293-.21,4.326,4.326,0,0,1-.427-.232" transform="translate(-257.415 -66.414)" fill="#455a64"/>
            <path id="Trazado_608484" data-name="Trazado 608484" d="M363.818,105.472a.463.463,0,0,0,.109.076,2.382,2.382,0,0,0,.324.165,3.167,3.167,0,0,0,.514.169,3.32,3.32,0,0,0,1.318.042,3.141,3.141,0,0,0,.523-.135,2.36,2.36,0,0,0,.334-.144.484.484,0,0,0,.114-.069c-.006-.012-.175.075-.464.165a3.621,3.621,0,0,1-.518.119,3.574,3.574,0,0,1-1.293-.041,3.611,3.611,0,0,1-.509-.151c-.283-.109-.446-.206-.453-.194" transform="translate(-256.749 -74.432)" fill="#455a64"/>
            <path id="Trazado_608485" data-name="Trazado 608485" d="M372.284,119.162c.061.062.413-.222.925-.236s.893.237.947.171c.026-.029-.036-.142-.2-.259a1.282,1.282,0,0,0-.761-.216,1.236,1.236,0,0,0-.734.267c-.154.128-.2.245-.174.272" transform="translate(-262.718 -83.712)" fill="#263238"/>
            <path id="Trazado_608486" data-name="Trazado 608486" d="M374.074,124.407a.414.414,0,0,0,.428.387.4.4,0,0,0,.4-.4.414.414,0,0,0-.428-.388.4.4,0,0,0-.4.4" transform="translate(-263.987 -87.51)" fill="#263238"/>
            <path id="Trazado_608487" data-name="Trazado 608487" d="M404.211,124.161c.05-.026,2.052-.773,2.138,1.318a1.574,1.574,0,0,1-2.038,1.687c-.006-.06-.1-3-.1-3" transform="translate(-285.255 -87.515)" fill="#ffc09d"/>
            <path id="Trazado_608488" data-name="Trazado 608488" d="M406.607,127.943c.009-.007.037.024.1.05a.364.364,0,0,0,.273-.006.9.9,0,0,0,.384-.826,1.207,1.207,0,0,0-.123-.517.421.421,0,0,0-.286-.268.185.185,0,0,0-.211.109c-.026.06-.011.1-.022.1s-.046-.033-.033-.12a.233.233,0,0,1,.077-.134.276.276,0,0,1,.2-.062.512.512,0,0,1,.394.309,1.24,1.24,0,0,1,.15.578.947.947,0,0,1-.495.925.391.391,0,0,1-.336-.042c-.067-.049-.08-.1-.073-.1" transform="translate(-286.945 -89.111)" fill="#ff9b6c"/>
            <path id="Trazado_608489" data-name="Trazado 608489" d="M385.171,134.022c.017,0,.018.123-.055.3a1.263,1.263,0,0,1-.481.558,1.166,1.166,0,0,1-.713.192c-.192-.017-.3-.081-.29-.1s.118,0,.291-.011a1.339,1.339,0,0,0,.63-.212,1.5,1.5,0,0,0,.467-.478c.09-.15.127-.256.151-.25" transform="translate(-270.732 -94.581)" fill="#263238"/>
            <path id="Trazado_608490" data-name="Trazado 608490" d="M411.6,415.187l.625,7.074,2.211,5.461a.718.718,0,0,1-.5.954.808.808,0,0,1-.7-.119c-1.263-.919-5.814-4.3-5.865-4.736-.066-.569-1.226-7.525-1.226-7.525Z" transform="translate(-286.625 -293.001)" fill="#455a64"/>
            <path id="Trazado_608491" data-name="Trazado 608491" d="M416.578,447.449l-6.686-5.66.065.524c.045.286.05.442.251.621a63.938,63.938,0,0,0,5.6,4.516.909.909,0,0,0,.768,0" transform="translate(-289.264 -311.774)" fill="#263238"/>
            <path id="Trazado_608492" data-name="Trazado 608492" d="M412.814,434.176a.427.427,0,0,1,.192.559.464.464,0,0,1-.587.184.45.45,0,0,1-.2-.593.486.486,0,0,1,.634-.127" transform="translate(-290.87 -306.368)" fill="#fff"/>
            <path id="Trazado_608493" data-name="Trazado 608493" d="M425.571,448.9c.045.015.172-.371.6-.615a2.476,2.476,0,0,1,.847-.242c0-.018-.1-.063-.275-.069a1.264,1.264,0,0,0-.66.179,1.16,1.16,0,0,0-.456.484c-.071.154-.071.259-.052.263" transform="translate(-300.321 -316.142)" fill="#263238"/>
            <path id="Trazado_608494" data-name="Trazado 608494" d="M427.763,452.706a6.4,6.4,0,0,1,.631-.37,6.569,6.569,0,0,1,.723-.162.9.9,0,0,0-.787.018c-.428.165-.608.5-.567.514" transform="translate(-301.872 -319.052)" fill="#263238"/>
            <path id="Trazado_608495" data-name="Trazado 608495" d="M421.742,444.911a7.728,7.728,0,0,1,.932-.633,8.094,8.094,0,0,1,1.086-.355,1.809,1.809,0,0,0-1.162.217,1.657,1.657,0,0,0-.856.771" transform="translate(-297.624 -313.261)" fill="#263238"/>
            <path id="Trazado_608496" data-name="Trazado 608496" d="M420.451,439.1c.025.04.421-.164.959-.236s.979.007.99-.038a1.579,1.579,0,0,0-1.015-.116,1.533,1.533,0,0,0-.934.39" transform="translate(-296.715 -309.582)" fill="#263238"/>
            <path id="Trazado_608497" data-name="Trazado 608497" d="M419.638,432.017a2.6,2.6,0,0,1,2.014-.135c.011-.016-.082-.1-.265-.173a1.76,1.76,0,0,0-.769-.118,1.74,1.74,0,0,0-.743.22c-.17.1-.249.192-.236.207" transform="translate(-296.141 -304.575)" fill="#263238"/>
            <path id="Trazado_608498" data-name="Trazado 608498" d="M420,427.641a.573.573,0,0,0-.02-.268,1.806,1.806,0,0,0-.3-.677.861.861,0,0,0-.42-.355.323.323,0,0,0-.341.1.454.454,0,0,0-.083.33,1.075,1.075,0,0,0,1.06.851,1.269,1.269,0,0,0,1.169-.744.391.391,0,0,0-.018-.344.315.315,0,0,0-.334-.119,1.086,1.086,0,0,0-.467.291,2.076,2.076,0,0,0-.451.6.609.609,0,0,0-.088.255,3.324,3.324,0,0,1,.619-.775,1.018,1.018,0,0,1,.414-.245.167.167,0,0,1,.183.064.267.267,0,0,1,0,.227,1.135,1.135,0,0,1-1.021.634.935.935,0,0,1-.911-.71.327.327,0,0,1,.047-.233.175.175,0,0,1,.187-.058.783.783,0,0,1,.361.295,2.666,2.666,0,0,1,.42.881" transform="translate(-295.574 -300.863)" fill="#263238"/>
            <path id="Trazado_608499" data-name="Trazado 608499" d="M349.323,416.281l.279,5.99s-6.384,2.278-6.447,3.39l12.375-.091-.027-9.35Z" transform="translate(-242.167 -293.73)" fill="#455a64"/>
            <path id="Trazado_608500" data-name="Trazado 608500" d="M376.609,434.928a.474.474,0,0,1,.354.54.488.488,0,0,1-.566.334.5.5,0,0,1-.372-.573.514.514,0,0,1,.63-.287" transform="translate(-265.352 -306.919)" fill="#e0e0e0"/>
            <path id="Trazado_608501" data-name="Trazado 608501" d="M355.517,445.733l-.042-.942-11.849.439s-.549.23-.484.594Z" transform="translate(-242.154 -313.893)" fill="#263238"/>
            <path id="Trazado_608502" data-name="Trazado 608502" d="M364.377,436.457c0,.057.3.08.6.261s.459.418.515.4-.037-.35-.4-.563-.729-.145-.715-.093" transform="translate(-257.144 -307.973)" fill="#263238"/>
            <path id="Trazado_608503" data-name="Trazado 608503" d="M359.981,438.277c-.013.055.249.15.456.388s.269.492.329.49.1-.325-.168-.617-.617-.315-.617-.261" transform="translate(-254.041 -309.279)" fill="#263238"/>
            <path id="Trazado_608504" data-name="Trazado 608504" d="M356.339,440.972c.055.012.137-.273-.021-.583s-.441-.432-.467-.384.151.212.277.469.151.493.211.5" transform="translate(-251.124 -310.508)" fill="#263238"/>
            <path id="Trazado_608505" data-name="Trazado 608505" d="M364.7,431.425c.026.051.3-.029.644-.009s.609.119.64.069-.227-.25-.629-.267-.685.162-.655.207" transform="translate(-257.374 -304.313)" fill="#263238"/>
            <path id="Trazado_608506" data-name="Trazado 608506" d="M356.8,266.6c.007.347,1.438,48.22,1.438,48.22h7.649l1.55-40.952s1.809,21.412,1.809,21.874,1.6,19.308,1.6,19.308l7.092-.544-.465-43.116-.866-6.322Z" transform="translate(-251.793 -187.064)" fill="#263238"/>
            <path id="Trazado_608507" data-name="Trazado 608507" d="M392.043,277.482a1.463,1.463,0,0,1-.31.123c-.2.07-.5.166-.864.282l-.07.022-.005-.068c-.042-.576-.091-1.346-.135-2.19-.049-.915-.084-1.744-.1-2.344-.009-.3-.014-.543-.014-.711a.132.132,0,1,1,.059,0c.018.167.039.41.062.709.046.6.1,1.427.147,2.342.045.844.079,1.615.1,2.192l-.074-.046c.37-.1.67-.186.88-.24a1.511,1.511,0,0,1,.331-.069" transform="translate(-275.609 -192.189)" fill="#455a64"/>
            <path id="Trazado_608508" data-name="Trazado 608508" d="M392.847,272.595c0-.006.025-.038.1-.063a.5.5,0,0,1,.338.028.4.4,0,0,1,.256.393.494.494,0,0,1-.407.424.572.572,0,0,1-.564-.24.406.406,0,0,1,.006-.455.5.5,0,0,1,.253-.2c.075-.025.12-.021.122-.013s-.172.055-.28.256a.323.323,0,0,0,.018.346.441.441,0,0,0,.415.172.375.375,0,0,0,.3-.3.3.3,0,0,0-.169-.3.637.637,0,0,0-.388-.049" transform="translate(-276.994 -192.28)" fill="#455a64"/>
            <path id="Trazado_608509" data-name="Trazado 608509" d="M405.247,272.32c-.041,0-.1-.2-.129-.464s-.02-.473.021-.477.1.2.129.464.02.473-.021.477" transform="translate(-285.882 -191.514)" fill="#455a64"/>
            <path id="Trazado_608510" data-name="Trazado 608510" d="M407.214,272.043c-.042,0-.077-.221-.078-.494s.031-.494.073-.494.077.221.078.494-.031.494-.073.494" transform="translate(-287.319 -191.286)" fill="#455a64"/>
            <path id="Trazado_608511" data-name="Trazado 608511" d="M375.66,272.835c-.042,0-.106-.245-.145-.556s-.036-.566.006-.57.106.245.145.556.035.566-.006.57" transform="translate(-264.985 -191.747)" fill="#455a64"/>
            <path id="Trazado_608512" data-name="Trazado 608512" d="M377.8,272.87a.837.837,0,0,1-.187-.582.824.824,0,0,1,.133-.594c.043.009,0,.27.018.588s.077.576.036.588" transform="translate(-266.485 -191.736)" fill="#455a64"/>
            <path id="Trazado_608513" data-name="Trazado 608513" d="M361.932,273.518a.642.642,0,0,1-.026.211,3.934,3.934,0,0,1-.154.561,5.825,5.825,0,0,1-.947,1.706,6.478,6.478,0,0,1-1.494,1.359,4.888,4.888,0,0,1-.543.314.864.864,0,0,1-.215.091c-.012-.019.277-.172.7-.473a7.315,7.315,0,0,0,1.442-1.361,6.659,6.659,0,0,0,.967-1.663c.18-.455.247-.75.271-.745" transform="translate(-253.034 -193.024)" fill="#455a64"/>
            <path id="Trazado_608514" data-name="Trazado 608514" d="M415.749,277.568a.788.788,0,0,1-.232.034,3.837,3.837,0,0,1-.64-.011,4.371,4.371,0,0,1-1.959-.681,3.726,3.726,0,0,1-1.306-1.472,2.862,2.862,0,0,1-.2-.544.569.569,0,0,1-.032-.208c.024-.006.089.288.32.716a3.966,3.966,0,0,0,1.3,1.411,4.607,4.607,0,0,0,1.891.694c.525.071.859.04.86.062" transform="translate(-290.312 -193.848)" fill="#455a64"/>
            <path id="Trazado_608515" data-name="Trazado 608515" d="M370.393,363.633c-.01.032-1.278-.242-2.831-.612s-2.806-.7-2.8-.73,1.277.242,2.832.612,2.806.7,2.8.73" transform="translate(-257.418 -255.671)" fill="#455a64"/>
            <path id="Trazado_608516" data-name="Trazado 608516" d="M413.793,360.934c.018.029-1.085.606-2.464,1.287s-2.512,1.21-2.53,1.181,1.085-.605,2.464-1.287,2.512-1.21,2.53-1.181" transform="translate(-288.492 -254.713)" fill="#455a64"/>
            <path id="Trazado_608517" data-name="Trazado 608517" d="M334.831,211.934l1.046,1.308v-2.25h3.295s.366,5.152.288,6.25a8.9,8.9,0,0,1-.4,1.681,1.934,1.934,0,0,1-3.194.8,11.118,11.118,0,0,1-1.031-1.147,63.568,63.568,0,0,1-3.9-6.469l2.537-1.533Z" transform="translate(-233.543 -148.604)" fill="#ffc09d"/>
            <path id="Trazado_608518" data-name="Trazado 608518" d="M343.465,214.37a3.73,3.73,0,0,0,.431.575c.277.345.663.819,1.1,1.333s.856.965,1.179,1.272a2.368,2.368,0,0,0,.56.454,5.494,5.494,0,0,0-.481-.53c-.3-.323-.7-.784-1.139-1.3a16.2,16.2,0,0,0-1.651-1.807" transform="translate(-242.386 -151.282)" fill="#ff9b6c"/>
            <path id="Trazado_608519" data-name="Trazado 608519" d="M369.717,157.26l3.475-1.363,6.4-.362,3.008,1.144-4.122,2.289-3.554-.131Z" transform="translate(-260.912 -109.763)" fill="#ffc09d"/>
            <path id="Trazado_608520" data-name="Trazado 608520" d="M347.16,189.957c.314.054,21.286.945,21.286.945l-.737-18.857-.06-3.7-1.191-11.216s-3.135-1.078-4.734-1.593a6.866,6.866,0,0,1-4.884,1.707c-3.129-.047-3.783-.752-3.783-.752l-4.375,1.677s-3.111,1.115-3.646,2.492c-.521,1.34-1.476,8.991-1.476,8.991H348.1l-.086,13.517Z" transform="translate(-242.454 -109.762)" fill="#455a64"/>
            <g id="Grupo_1071217" data-name="Grupo 1071217" transform="translate(117.892 54.792)" opacity="0.2">
              <g id="Grupo_1071216" data-name="Grupo 1071216">
                <g id="Grupo_1071215" data-name="Grupo 1071215" clip-path="url(#clip-path-11)">
                  <path id="Trazado_608521" data-name="Trazado 608521" d="M400.6,186.419l.65,4.754,3.146,1.4,2.326-1.982v-4.413Z" transform="translate(-400.596 -186.183)"/>
                </g>
              </g>
            </g>
            <path id="Trazado_608522" data-name="Trazado 608522" d="M407.112,191.4c0,.039-1.308.072-2.92.072s-2.92-.032-2.92-.072,1.307-.072,2.92-.072,2.92.032,2.92.072" transform="translate(-283.181 -135.02)" fill="#263238"/>
            <path id="Trazado_608523" data-name="Trazado 608523" d="M350.987,179.622a.607.607,0,0,1,.034.125l.084.364a12.037,12.037,0,0,0,.418,1.338c.209.563.5,1.224.865,1.966.341.756.65,1.627.973,2.57l0,.01v.011c-.007,1.13-.016,2.366-.024,3.658-.03,2.883-.058,5.493-.078,7.4-.017.936-.03,1.7-.039,2.241q-.011.382-.017.609a1.242,1.242,0,0,1-.016.212,1.278,1.278,0,0,1-.012-.213q0-.228-.008-.61c0-.544,0-1.306,0-2.242.01-1.9.023-4.514.038-7.4.012-1.291.023-2.528.033-3.657l0,.02c-.317-.941-.62-1.815-.95-2.565a21.094,21.094,0,0,1-.84-1.984,10.237,10.237,0,0,1-.385-1.355c-.031-.161-.054-.285-.064-.37a.614.614,0,0,1-.012-.129" transform="translate(-247.694 -126.761)" fill="#263238"/>
            <path id="Trazado_608524" data-name="Trazado 608524" d="M425.419,172.126a2.413,2.413,0,0,1,0,.4c-.011.283-.024.651-.041,1.094-.037.949-.087,2.214-.143,3.612s-.121,2.664-.163,3.612c-.026.443-.047.811-.063,1.094a2.3,2.3,0,0,1-.042.4,2.288,2.288,0,0,1-.011-.4c0-.283.012-.652.02-1.1.023-.925.065-2.2.124-3.614s.123-2.687.182-3.611c.03-.462.059-.835.084-1.093a2.191,2.191,0,0,1,.057-.4" transform="translate(-299.892 -121.471)" fill="#263238"/>
            <g id="Grupo_1071220" data-name="Grupo 1071220" transform="translate(103.296 53.546)" opacity="0.3">
              <g id="Grupo_1071219" data-name="Grupo 1071219">
                <g id="Grupo_1071218" data-name="Grupo 1071218" clip-path="url(#clip-path-12)">
                  <path id="Trazado_608525" data-name="Trazado 608525" d="M351.008,181.95a7.881,7.881,0,0,0,2.059,5.618c-.427-1.945-1.492-3.756-2.059-5.618" transform="translate(-350.999 -181.95)"/>
                </g>
              </g>
            </g>
            <g id="Grupo_1071223" data-name="Grupo 1071223" transform="translate(112.516 64.518)" opacity="0.3">
              <g id="Grupo_1071222" data-name="Grupo 1071222">
                <g id="Grupo_1071221" data-name="Grupo 1071221" clip-path="url(#clip-path-13)">
                  <path id="Trazado_608526" data-name="Trazado 608526" d="M382.328,226.928a3.925,3.925,0,0,0,2.517-1.4,11.905,11.905,0,0,0,1.69-2.447,9.647,9.647,0,0,0,.991-3.848,18.145,18.145,0,0,1-5.2,7.7" transform="translate(-382.328 -219.232)"/>
                </g>
              </g>
            </g>
            <path id="Trazado_608527" data-name="Trazado 608527" d="M385.7,214.379a.4.4,0,0,1-.017.121l-.076.34c-.032.148-.077.328-.141.534s-.126.443-.22.7a16.228,16.228,0,0,1-.724,1.761,18.623,18.623,0,0,1-1.154,2.027,18.191,18.191,0,0,1-1.423,1.849,15.217,15.217,0,0,1-1.352,1.341c-.2.184-.395.333-.563.467s-.316.246-.442.33l-.288.2a.417.417,0,0,1-.106.061s.029-.033.09-.083l.272-.217c.121-.091.265-.205.426-.347s.353-.292.547-.479a16.9,16.9,0,0,0,1.322-1.353,19.591,19.591,0,0,0,1.4-1.842,20.061,20.061,0,0,0,1.155-2.007,18.076,18.076,0,0,0,.745-1.738c.1-.251.171-.484.238-.687s.123-.379.163-.525l.1-.333a.417.417,0,0,1,.044-.114" transform="translate(-267.602 -151.289)" fill="#263238"/>
            <path id="Trazado_608528" data-name="Trazado 608528" d="M375.927,194.326a1.012,1.012,0,0,1-.024.192l-.1.547c-.041.238-.1.529-.182.861s-.162.716-.293,1.128l-.192.65c-.068.226-.156.456-.237.7-.158.484-.369.984-.583,1.514a25.176,25.176,0,0,1-3.87,6.323c-.375.432-.725.848-1.083,1.208-.177.182-.342.365-.512.528l-.492.467c-.308.3-.612.549-.871.774s-.49.409-.684.554l-.443.335a.1.1,0,1,1-.017-.022l.427-.355c.188-.15.415-.338.667-.57s.553-.479.855-.786l.484-.471c.168-.165.33-.348.5-.531.354-.362.7-.779,1.069-1.211a26.095,26.095,0,0,0,3.851-6.293c.216-.526.43-1.023.592-1.5.084-.239.173-.466.244-.69l.2-.645c.136-.409.222-.789.311-1.119s.155-.617.2-.853l.121-.542a1.02,1.02,0,0,1,.051-.187" transform="translate(-258.432 -137.137)" fill="#263238"/>
            <path id="Trazado_608529" data-name="Trazado 608529" d="M317.1,171.545l8.074,12.277a.364.364,0,0,1-.35.56l-9.3-1.17a.364.364,0,0,1-.248-.146l-8.881-12.13a.364.364,0,0,1,.32-.578l9.567.708a1.07,1.07,0,0,1,.816.479" transform="translate(-216.178 -120.223)" fill="#e0e0e0"/>
            <path id="Trazado_608530" data-name="Trazado 608530" d="M316.953,171.4a.629.629,0,0,0-.074-.112,1.041,1.041,0,0,0-.3-.253,1.307,1.307,0,0,0-.619-.15l-.865-.071-5.515-.433-1.828-.14-.972-.074c-.086,0-.158-.016-.257-.016a.414.414,0,0,0-.268.111.427.427,0,0,0-.071.546l2.585,3.546,5.93,8.109c.135.182.255.354.4.543a.44.44,0,0,0,.165.112.725.725,0,0,0,.18.036l.328.041,1.3.163,2.544.319,4.808.6c.1.011.182.026.3.033a.426.426,0,0,0,.308-.128.439.439,0,0,0,.127-.305.513.513,0,0,0-.112-.3l-.613-.929-1.173-1.776-2.107-3.187-3.06-4.608-.839-1.248-.221-.323a.841.841,0,0,0-.08-.107.825.825,0,0,0,.066.116l.209.331.814,1.265,3.019,4.635,2.092,3.2,1.166,1.78.61.931a.365.365,0,0,1,.088.221.3.3,0,0,1-.087.207.285.285,0,0,1-.207.086c-.079,0-.186-.022-.278-.033l-4.808-.609-2.543-.321-1.3-.164-.328-.041a.612.612,0,0,1-.144-.026.29.29,0,0,1-.107-.073l-.39-.529-5.94-8.1-2.592-3.531a.3.3,0,0,1,.049-.383.287.287,0,0,1,.187-.079c.069,0,.162.01.242.014l.973.069,1.828.13,5.519.383.866.057a1.293,1.293,0,0,1,.608.132,1.234,1.234,0,0,1,.39.338" transform="translate(-216.028 -120.075)" fill="#263238"/>
            <path id="Trazado_608531" data-name="Trazado 608531" d="M306.569,172.317a1.082,1.082,0,0,0,.195.029l.564.057,2.1.187,7.145.583-.057-.033c.447.665.909,1.354,1.372,2.067,1.886,2.9,3.533,5.563,4.777,7.458.619.95,1.133,1.71,1.491,2.233l.42.6a.128.128,0,1,0,.026-.017l-.4-.614-1.449-2.259c-1.22-1.91-2.852-4.582-4.739-7.484-.463-.713-.926-1.4-1.376-2.068l-.021-.03-.036,0-7.15-.531-2.1-.141-.566-.031a1.057,1.057,0,0,0-.2,0" transform="translate(-216.348 -121.604)" fill="#263238"/>
            <path id="Trazado_608532" data-name="Trazado 608532" d="M326.149,178.216h0Z" transform="translate(-230.163 -125.768)" fill="#fff"/>
            <path id="Trazado_608533" data-name="Trazado 608533" d="M325.365,178.348a.188.188,0,0,1,.23-.139.5.5,0,0,1,.25.14.249.249,0,0,1,.045.319c-.093.115-.284.072-.4-.024a.325.325,0,0,1-.129-.3" transform="translate(-229.609 -125.761)" fill="#fff"/>
            <path id="Trazado_608534" data-name="Trazado 608534" d="M326.977,199.581s.367-.875-.564-.988a32.205,32.205,0,0,0-3.376,0s-1.337.141-1.054,1.1c0,0-.79.705-.367,1.467s.593.536.593.536-.113.931.593,1.072c0,0,.765.9,1.469.847a14.7,14.7,0,0,0,3.893-1.778c.2-.282.48-.443.31-.758,0,0,.367-.826-.423-.951,0,0-.057-.69-1.072-.549" transform="translate(-226.879 -140.114)" fill="#ffc09d"/>
            <path id="Trazado_608535" data-name="Trazado 608535" d="M325.716,202.229a2.552,2.552,0,0,0,.629.045c.388.008.925.009,1.517,0a9,9,0,0,0,1.524-.091c.4-.093.559-.329.54-.334a1.6,1.6,0,0,1-.563.227c-.37.062-.912.024-1.5.043s-1.128.026-1.516.046a2.557,2.557,0,0,0-.627.064" transform="translate(-229.86 -142.446)" fill="#ff9b6c"/>
            <path id="Trazado_608536" data-name="Trazado 608536" d="M327.982,204.5a.469.469,0,0,0,.2.07,2.16,2.16,0,0,0,.582.036,4.11,4.11,0,0,0,.849-.154c.312-.086.645-.206,1-.314a4.448,4.448,0,0,1,1-.207,1.539,1.539,0,0,0,.853-.172.488.488,0,0,0,.2-.29.4.4,0,0,0-.035-.264c-.074-.135-.174-.142-.171-.135s.072.04.116.159a.365.365,0,0,1-.175.44,1.529,1.529,0,0,1-.8.121,4.166,4.166,0,0,0-1.039.2l-.99.325a4.714,4.714,0,0,1-.818.182,5.328,5.328,0,0,1-.775,0" transform="translate(-231.459 -143.308)" fill="#ff9b6c"/>
            <path id="Trazado_608537" data-name="Trazado 608537" d="M331.38,208.739a2.51,2.51,0,0,0,.628-.122c.382-.1.906-.246,1.479-.433s1.083-.377,1.449-.525a2.532,2.532,0,0,0,.579-.273c-.016-.041-.935.279-2.075.651s-2.07.66-2.059.7" transform="translate(-233.857 -146.351)" fill="#ff9b6c"/>
            <path id="Trazado_608538" data-name="Trazado 608538" d="M330.565,212.6a1.374,1.374,0,0,0,.521-.06,6.243,6.243,0,0,0,1.192-.419c.449-.2.84-.413,1.123-.563a1.883,1.883,0,0,0,.447-.27,9.8,9.8,0,0,0-1.634.692c-.88.422-1.654.58-1.649.621" transform="translate(-233.282 -149.102)" fill="#ff9b6c"/>
            <path id="Trazado_608539" data-name="Trazado 608539" d="M395.85,174.5s-1.9,7.617-4.277,10.428c-2.3,2.722-5.906,1.471-7.154-2.052s-3.473-11.569-3.473-11.569l2.732-2.089,4.72,9.147,2.127-6.236Z" transform="translate(-268.837 -119.416)" fill="#ffc09d"/>
            <path id="Trazado_608540" data-name="Trazado 608540" d="M372.816,155.159l-2-2.9a5.229,5.229,0,0,1-.853-.265c-.227-.133-.451-1.286-.446-1.511s-.388-.752-.229-.9.7-.159.667-.376c-.006-.046-.4-.527-.087-.881a1.659,1.659,0,0,1,.565-.24l-.032-1.108s.6-1.308,1.21-.835c0,0,2.306,1.771,2.538,2.054a43.182,43.182,0,0,1,1.277,4.663" transform="translate(-260.58 -103.06)" fill="#ffc09d"/>
            <path id="Trazado_608541" data-name="Trazado 608541" d="M375.259,152.7a1.028,1.028,0,0,0-.031-.2l-.119-.555c-.108-.481-.269-1.176-.488-2.033-.11-.428-.232-.9-.386-1.4-.041-.124-.08-.251-.133-.38a.853.853,0,0,0-.272-.334c-.21-.185-.431-.366-.659-.551-.456-.369-.941-.75-1.445-1.143a1.688,1.688,0,0,0-.422-.278.579.579,0,0,0-.52.124,2.374,2.374,0,0,0-.614.83l-.007.014v.018c0,.107.007.223.01.339.008.259.015.516.023.769l.054-.071a2.7,2.7,0,0,0-.406.137.591.591,0,0,0-.2.128.554.554,0,0,0-.112.2.687.687,0,0,0,.035.441,1.305,1.305,0,0,0,.091.19l.051.087.01.018s0-.011,0,0a.032.032,0,0,1,0,.019c-.006.025-.06.059-.114.081s-.117.042-.179.061-.125.037-.19.063a.372.372,0,0,0-.192.135.316.316,0,0,0-.005.236,1.464,1.464,0,0,0,.068.186c.05.117.106.228.147.338a.47.47,0,0,1,.035.155,1.556,1.556,0,0,0,.018.189c.017.121.04.239.064.355a4.7,4.7,0,0,0,.188.67.848.848,0,0,0,.176.309,1.027,1.027,0,0,0,.313.137c.2.063.4.113.593.157l-.032-.022,1.484,2.109.411.571a1.494,1.494,0,0,0,.152.193,1.472,1.472,0,0,0-.127-.211l-.388-.587-1.445-2.135-.011-.017-.021-.005c-.189-.046-.385-.1-.582-.162a1.012,1.012,0,0,1-.27-.117.781.781,0,0,1-.141-.263,4.632,4.632,0,0,1-.177-.652c-.023-.114-.044-.23-.06-.346a1.55,1.55,0,0,1-.016-.172.6.6,0,0,0-.042-.2c-.045-.121-.1-.232-.148-.346a1.323,1.323,0,0,1-.061-.169.205.205,0,0,1-.006-.136.3.3,0,0,1,.123-.074c.056-.022.117-.039.18-.058s.126-.037.192-.064a.323.323,0,0,0,.189-.156.166.166,0,0,0,.013-.078.107.107,0,0,0-.013-.052l-.014-.025-.049-.085a1.2,1.2,0,0,1-.081-.172.548.548,0,0,1-.031-.352.414.414,0,0,1,.083-.152.485.485,0,0,1,.148-.092,2.545,2.545,0,0,1,.383-.128l.055-.015,0-.056c-.007-.253-.015-.51-.022-.769,0-.116-.007-.232-.01-.339l-.006.031a2.261,2.261,0,0,1,.569-.776.44.44,0,0,1,.395-.1,1.668,1.668,0,0,1,.378.254c.506.391.992.769,1.449,1.134.229.183.451.362.659.543a.739.739,0,0,1,.243.289c.051.12.092.246.133.368.157.494.285.961.4,1.386l.531,2.02.144.548a1.07,1.07,0,0,0,.058.189" transform="translate(-260.418 -102.902)" fill="#ff9b6c"/>
            <path id="Trazado_608542" data-name="Trazado 608542" d="M373.265,152.845c0,.024.234.006.6.041a4.287,4.287,0,0,1,.63.144,2.9,2.9,0,0,0,.815.007,1.539,1.539,0,0,1,1.284.417,1.656,1.656,0,0,1,.31.493.761.761,0,0,0-.236-.562,1.5,1.5,0,0,0-.552-.387,1.679,1.679,0,0,0-.816-.1,3.128,3.128,0,0,1-.78.006,3.461,3.461,0,0,0-.649-.116,1.585,1.585,0,0,0-.605.059" transform="translate(-263.416 -107.821)" fill="#ff9b6c"/>
            <path id="Trazado_608543" data-name="Trazado 608543" d="M375.916,151.336c.034.017.127-.117.115-.309s-.12-.314-.151-.293,0,.147.009.3-.011.285.027.3" transform="translate(-265.251 -106.373)" fill="#ff9b6c"/>
            <path id="Trazado_608544" data-name="Trazado 608544" d="M371.4,156.071a5.035,5.035,0,0,0,1.737-.136,1.721,1.721,0,0,1,.638-.081.693.693,0,0,1,.413.273,4.135,4.135,0,0,1,.228.441.775.775,0,0,0-.146-.5.765.765,0,0,0-.47-.344,1.671,1.671,0,0,0-.694.07c-.931.2-1.708.233-1.707.275" transform="translate(-262.1 -109.885)" fill="#ff9b6c"/>
            <path id="Trazado_608545" data-name="Trazado 608545" d="M370.359,159.58a.934.934,0,0,0,.427,0c.262-.029.614-.119,1-.195a2.259,2.259,0,0,1,.537-.054.647.647,0,0,1,.387.14.617.617,0,0,1,.189.338c.008,0,.028-.039.024-.117a.485.485,0,0,0-.144-.295.707.707,0,0,0-.444-.2,2.046,2.046,0,0,0-.575.044c-.4.078-.737.182-.989.236a2.059,2.059,0,0,0-.41.1" transform="translate(-261.365 -112.346)" fill="#ff9b6c"/>
            <path id="Trazado_608546" data-name="Trazado 608546" d="M372.688,163.313c-.024.018.171.223.531.222l-.071-.061c.007.063.014.123.021.185a2.018,2.018,0,0,0,.164.732,2.027,2.027,0,0,0-.023-.748c-.009-.062-.017-.121-.026-.184l-.009-.065-.062,0a2.419,2.419,0,0,1-.526-.084" transform="translate(-263.008 -115.248)" fill="#ff9b6c"/>
            <path id="Trazado_608547" data-name="Trazado 608547" d="M410.649,160.947s3.894.943,3.886,6.107c-.008,5.144-1.176,7.715-1.176,7.715l-7.178-3.907,1.6-4.021Z" transform="translate(-286.645 -113.582)" fill="#455a64"/>
            <path id="Trazado_608548" data-name="Trazado 608548" d="M413.133,177.365a.692.692,0,0,1-.15-.065l-.416-.212-1.53-.806-5.118-2.758-.058-.031.023-.061.385-1.006c.459-1.192.9-2.326,1.294-3.361.2-.515.39-1.005.569-1.465a8.879,8.879,0,0,1,.568-1.253,3.889,3.889,0,0,1,1.3-1.5,1.573,1.573,0,0,1,.5-.2.96.96,0,0,1,.14-.018c.032,0,.048,0,.048,0a1.915,1.915,0,0,0-.662.269,3.966,3.966,0,0,0-1.232,1.5,9.033,9.033,0,0,0-.544,1.246l-.556,1.47-1.283,3.365c-.132.345-.262.685-.386,1.006l-.034-.092,5.1,2.8,1.508.847.4.235a.736.736,0,0,1,.136.09" transform="translate(-286.419 -116.178)" fill="#263238"/>
          </g>
        </g>
      </g>
    </g>
    <rect id="Rectángulo_377327" data-name="Rectángulo 377327" width="190" height="136" transform="translate(180 397)" fill="none"/>
  </g>
</svg>
