<svg xmlns="http://www.w3.org/2000/svg" xmlns:xlink="http://www.w3.org/1999/xlink" width="400" height="276.3" viewBox="0 0 400 276.3">
  <defs>
    <clipPath id="clip-path">
      <rect id="Rectángulo_383514" data-name="Rectángulo 383514" width="278.008" height="276.3" fill="none"/>
    </clipPath>
    <clipPath id="clip-path-2">
      <path id="Trazado_830480" data-name="Trazado 830480" d="M37.589,76.464c-45.376,54.776-52.677,147.814-5.276,192.324C57,291.965,88.607,294.562,104.318,295.854c57.542,4.729,130.983-23.006,158.8-87.579,17.386-40.351,15.343-90.725-7.9-126.81a126.457,126.457,0,0,0-25.84-29.111c-3.939-3.225-36.329-29.109-82.477-29.573-.419,0-.836-.006-1.253-.006-62.313,0-102.265,46.682-108.069,53.689" transform="translate(0 -22.775)" fill="none"/>
    </clipPath>
    <linearGradient id="linear-gradient" x1="0.173" y1="0.834" x2="0.173" y2="0.834" gradientUnits="objectBoundingBox">
      <stop offset="0" stop-color="#dae3fe"/>
      <stop offset="1" stop-color="#e9effd"/>
    </linearGradient>
    <clipPath id="clip-path-4">
      <rect id="Rectángulo_383491" data-name="Rectángulo 383491" width="61.253" height="176.491" fill="none"/>
    </clipPath>
    <clipPath id="clip-path-5">
      <rect id="Rectángulo_383490" data-name="Rectángulo 383490" width="15.386" height="135.277" fill="none"/>
    </clipPath>
    <clipPath id="clip-path-6">
      <rect id="Rectángulo_383492" data-name="Rectángulo 383492" width="43.872" height="157.042" fill="none"/>
    </clipPath>
    <clipPath id="clip-path-7">
      <path id="Trazado_830486" data-name="Trazado 830486" d="M356.215,619.35c-3.179,4.4,2.079.674,3.361,5.892s-15.767,4.518-23.65,6.777c-1.3.373-2.745.736-3.964.146-1.362-.659-1.936-2.245-2.675-3.566-3.959-7.073-17.128-2.482-17.128-2.482a21.43,21.43,0,0,0-6.646,6.456c-2.854,4.582-5.054,9.74-4.641,15.122.478,6.232,3.632,12.068,3.794,18.316.274,10.6-7.906,19.466-10.457,29.754-2.852,11.5,7.9,24.6,12.186,31.02s2.443-5.208,5.041-9.741,8.2,19.076,16.95,24.258c4.695,2.78,10.2,4.631,13.58,8.917,4.925,6.251,3.56,15.146,2.821,23.07s.368,17.58,7.5,21.1c4.2,2.074,9.543,1.372,13.334,4.125,6.659,4.835,3.478,15.376,6.117,23.17,2.869,8.476,8.559,8.588,17.362,10.385s-1.109-17.543,3.015-24.3c2.168-3.552,5.477-6.38,7.186-10.174,2.371-5.262,1.7-12.293,6.3-15.78,2.816-2.135,6.531-2.054,10.156-1.974.813.018,1.622.036,2.415.029,4.326-.038,9.588-1.915,10.079-6.214.436-3.814-3.383-6.855-7.118-7.739s-7.716-.462-11.385-1.592c-10.494-3.231-15.388-17.915-26.347-18.6-4.434-.278-8.527,1.932-12.585,4.141-4.514,2.458-8.985,4.916-13.832,3.949-5.131-1.024-8.643-5.568-12.452-9.156-4.893-4.608-10.965-8.067-14.85-13.552s-4.545-14.253.981-18.079c4.105-2.842,9.938-1.688,13.993,1.224s6.818,7.234,9.8,11.241a7.442,7.442,0,0,0,3.433,2.981c3.96,1.24,6.85-4.332,5.9-8.372s-3.8-7.593-3.936-11.741c-.236-7.31,7.635-11.948,14.541-14.356s15.045-5.28,17.075-12.306c.717-2.482.529-5.212,1.623-7.553,3.627-7.755,22.766-11.626,18.192-16.123s-19.1-5.474-21.923-14.53c-1.012-3.242-2.055-7.528-5.437-7.841-5.509-.511-8.652,6.308-13.273,7.479-2.194.556-2.4,4.282-2.319,8.863a6.024,6.024,0,0,1-12.045.228,9.3,9.3,0,0,1,.7-3.726,16.855,16.855,0,0,1,4.282-5.551c7.107-6.786,28.314-14.242,23.873-17.13-3.515-2.286-17.6-7.757-24.9-7.758-1.922,0-3.373.379-4.035,1.3" transform="translate(-293.736 -618.053)" fill="none"/>
    </clipPath>
    <linearGradient id="linear-gradient-2" x1="-0.194" y1="0.998" x2="-0.193" y2="0.998" gradientUnits="objectBoundingBox">
      <stop offset="0" stop-color="#4f52ff"/>
      <stop offset="1" stop-color="#4042e2"/>
    </linearGradient>
    <clipPath id="clip-path-8">
      <path id="Trazado_830487" data-name="Trazado 830487" d="M1044.231,361.332c-9.4.85-25.052.163-31.112,7.394-1.914,3.568,3.778,3.51,4.344,7.52,5.124.558,7.229-7.521,12.3-8.463,2.86-.532,5.633,1.517,7.187,3.976s2.279,5.346,3.6,7.94a19.55,19.55,0,0,0,15.542,10.431,5.372,5.372,0,0,0,4.035-.913c3.088-2.722-1.33-7.834-.182-11.787,1.312-4.517,7.825-3.832,12.228-5.489,1.214-.457,10.554-2.949,10.7-4.238.266-2.285-4.067-3.739-8.914-4.986-5.154-1.325-12.766-1.784-19.466-1.784-3.975,0-7.629.161-10.259.4" transform="translate(-1012.727 -360.933)" fill="none"/>
    </clipPath>
    <linearGradient id="linear-gradient-3" x1="-1.368" y1="8.211" x2="-1.367" y2="8.211" xlink:href="#linear-gradient-2"/>
    <clipPath id="clip-path-10">
      <rect id="Rectángulo_383497" data-name="Rectángulo 383497" width="52.582" height="139.229" fill="none"/>
    </clipPath>
    <clipPath id="clip-path-11">
      <path id="Trazado_830488" data-name="Trazado 830488" d="M2137.9,927.81a118.436,118.436,0,0,0-.521-40.292c-.66-3.54-2.2-7.76-5.769-8.269-4.123-.589-9.17,4.147-11.752.878-1.139-1.443-.685-3.544-.039-5.265a34.889,34.889,0,0,1,7.767-12.173c2.112-2.148,4.529-4.051,6.155-6.587,3.479-5.422,1.037-13.346-3.887-17.5s-11.274,3.3-16.449.338-5.336-10.133-6.309-16.014c-.72-4.356-3.93-16.158-7.476-10.41s4.729,28.628,14.042,39.6c1.123,1.323,2.364,2.8,2.269,4.537-.227,4.138-6.257,3.954-10.313,4.8-5.022,1.049-12.719-1.641-8.471,7.11,2.24,4.615,12.941,10.932,10.066,14.02s-11.715,12.035-15.862,19.269-6.158,16.244-3.03,23.975,12.533,13.069,20.21,9.812c3.593-1.524,7.51-4.693,10.85-2.674,3.025,1.829,2.579,6.218,2.429,9.75s1.886,8.219,5.322,7.39a5.7,5.7,0,0,0,2.783-2.008c4.834-5.555,6.826-13.011,7.987-20.283" transform="translate(-2086.791 -810.967)" fill="none"/>
    </clipPath>
    <linearGradient id="linear-gradient-4" x1="-3.726" y1="1.391" x2="-3.724" y2="1.391" xlink:href="#linear-gradient-2"/>
    <clipPath id="clip-path-12">
      <rect id="Rectángulo_383498" data-name="Rectángulo 383498" width="204.051" height="192.764" fill="none"/>
    </clipPath>
    <clipPath id="clip-path-13">
      <rect id="Rectángulo_383506" data-name="Rectángulo 383506" width="235.783" height="235.762" fill="none"/>
    </clipPath>
    <clipPath id="clip-path-14">
      <rect id="Rectángulo_383499" data-name="Rectángulo 383499" width="66.202" height="235.13" fill="none"/>
    </clipPath>
    <clipPath id="clip-path-15">
      <rect id="Rectángulo_383500" data-name="Rectángulo 383500" width="180.2" height="235.762" fill="none"/>
    </clipPath>
    <clipPath id="clip-path-16">
      <rect id="Rectángulo_383501" data-name="Rectángulo 383501" width="216.948" height="0.893" fill="none"/>
    </clipPath>
    <clipPath id="clip-path-17">
      <rect id="Rectángulo_383502" data-name="Rectángulo 383502" width="154.071" height="0.893" fill="none"/>
    </clipPath>
    <clipPath id="clip-path-18">
      <rect id="Rectángulo_383503" data-name="Rectángulo 383503" width="235.783" height="0.893" fill="none"/>
    </clipPath>
    <clipPath id="clip-path-20">
      <rect id="Rectángulo_383505" data-name="Rectángulo 383505" width="154.576" height="0.661" fill="none"/>
    </clipPath>
    <clipPath id="clip-path-21">
      <path id="Trazado_830497" data-name="Trazado 830497" d="M268.73,617.277c-5.027,2.494-10.03,5.2-15.019,7.8a90.724,90.724,0,0,1-17.751,6.913,94.82,94.82,0,0,0-8.9,3.378,16.682,16.682,0,0,0-8.841,8.521l-70.582,7.569a113.944,113.944,0,0,0-12.039,27.5l.068.635,85.55-9.174a15.432,15.432,0,0,0,3.363,2.8c.317.145.639.271.953.421a78.166,78.166,0,0,1,19.123,12.966c3.794,3.436,7.908,10.357,13.724,9.3,2.722-5.651-1.412-13.324-5.123-17.653-1.223-1.426-2.582-2.291-3.609-3.824-1.009-1.507-1.455-2.182-1.33-2.7.23-.943,1.419-1.411,1.9-1.592,6.633-2.494,17.5-.493,17.5-.493,7.063,1.3,14.218,2.035,21.31,3.168,2.8.447,7.055,1.136,8.1-.669.67-1.162-.277-2.867-.508-3.282-2.438-4.387-8.663-4.39-16.857-6.419-5.831-1.444-15.994-4.738-15.808-6.785.347-3.841,36.911-1.117,38.487-8.8.3-1.472-.765-2.907-1.37-3.615-5.682-.275-11.891-.332-18.55-.033a198.634,198.634,0,0,0-20.1,1.933,51.484,51.484,0,0,1,10.7-6.672c8.812-4.07,15.99-4.253,17.942-9.225l.017-.043a3.323,3.323,0,0,0-2.56-4.445q-.212-.036-.434-.068c-6.677-.968-11.44,2.316-19.99,6.071a123.313,123.313,0,0,1-12.348,4.64c.7-4.134,7.539-5.488,10.555-7.605,2.424-1.7,8.672-5.7,9.254-9.01.407-2.323-.553-3.06-1.94-3.06a12.9,12.9,0,0,0-4.887,1.544" transform="translate(-135.602 -615.733)" fill="none"/>
    </clipPath>
    <linearGradient id="linear-gradient-5" x1="-0.026" y1="1.596" x2="-0.025" y2="1.596" gradientUnits="objectBoundingBox">
      <stop offset="0" stop-color="#febbba"/>
      <stop offset="1" stop-color="#ff928e"/>
    </linearGradient>
    <clipPath id="clip-path-22">
      <path id="Trazado_830498" data-name="Trazado 830498" d="M1193.8,1279.4c-3.208,5.193.013,13.039,3.166,17.6,1.039,1.5,2.266,2.479,3.1,4.068.824,1.561,1.186,2.26,1.013,2.743-.318.889-1.516,1.221-2,1.348-6.672,1.74-16.988-1.3-16.988-1.3-6.7-1.975-13.554-3.413-20.3-5.23-2.661-.716-6.713-1.816-7.9-.175-.767,1.057-.023,2.8.158,3.228,1.914,4.493,7.938,5.128,15.663,7.924,5.5,1.989,15,6.209,14.61,8.172-.308,1.561-6.8,1.319-14.344,1.077-10.256-.329-22.47-.657-23.8,3.536-.442,1.394.445,2.891.958,3.638,5.471.844,11.474,1.529,17.949,1.915a193.248,193.248,0,0,0,19.652.171,50.085,50.085,0,0,1-11.033,5.371c-8.942,3.044-15.907,2.493-18.3,7.106l-.021.04a3.234,3.234,0,0,0,2.026,4.562q.2.057.413.11c6.364,1.614,11.307-1.08,19.963-3.846a120.024,120.024,0,0,1,12.422-3.237c-1.093,3.93-7.853,4.546-10.988,6.289-2.519,1.4-8.972,4.632-9.871,7.78-1.325,4.642,3.915,3.1,6.453,2.16,5.119-1.9,10.235-4.013,15.327-6.022a88.287,88.287,0,0,1,17.882-4.888,91.478,91.478,0,0,0,8.953-2.227,16.108,16.108,0,0,0,9.422-7.21l71.975-.165a112.613,112.613,0,0,0,2.522-19.284q.156-3.547.09-7.057l-74.795.172c-.841-.71-1.826-2.1-2.97-3.018-.292-.172-.59-.308-.88-.485a76.018,76.018,0,0,1-17.191-14.481c-3.227-3.6-6.412-10.407-11.844-10.407-.163,0-.327.006-.493.018" transform="translate(-1146.056 -1279.385)" fill="none"/>
    </clipPath>
    <linearGradient id="linear-gradient-6" x1="-0.598" y1="1.256" x2="-0.597" y2="1.256" gradientUnits="objectBoundingBox">
      <stop offset="0" stop-color="#a22b25"/>
      <stop offset="1" stop-color="#c0423c"/>
    </linearGradient>
    <clipPath id="clip-path-23">
      <path id="Trazado_830499" data-name="Trazado 830499" d="M411.7,1998.36a73.016,73.016,0,0,1-16.492,13.918c-.277.17-.563.321-.844.487a18.415,18.415,0,0,0-2.849,2.939l-68.209-.12a126.387,126.387,0,0,0,24.6,24.977l43.421.076a14.427,14.427,0,0,0,9.046,7.044,88.539,88.539,0,0,0,8.594,2.262,84.722,84.722,0,0,1,17.165,4.682c4.888,1.926,9.8,3.948,14.714,5.772,2.436.9,7.466,2.379,6.192-2.076-.864-3.021-7.059-6.119-9.477-7.462-3.009-1.671-9.5-2.259-10.549-6.03a115.142,115.142,0,0,1,11.923,3.1c8.308,2.65,13.054,5.234,19.161,3.681q.2-.051.4-.106a3.1,3.1,0,0,0,1.942-4.38l-.02-.038c-2.3-4.426-8.985-3.894-17.568-6.811a48.069,48.069,0,0,1-10.592-5.149,185.513,185.513,0,0,0,18.861-.174c6.214-.374,11.976-1.035,17.226-1.847.493-.717,1.343-2.154.918-3.492-1.277-4.024-12.994-3.7-22.836-3.382-7.247.236-13.477.473-13.774-1.026-.373-1.884,8.744-5.939,14.018-7.851,7.412-2.687,13.193-3.3,15.028-7.613.174-.409.887-2.085.15-3.1-1.143-1.574-5.031-.517-7.585.172-6.475,1.747-13.05,3.131-19.482,5.03,0,0-9.9,2.923-16.3,1.256-.465-.121-1.615-.439-1.921-1.292-.166-.464.181-1.135.971-2.633.8-1.525,1.982-2.461,2.978-3.906,3.023-4.384,6.111-11.916,3.03-16.9-.159-.012-.315-.017-.469-.017-5.216,0-8.27,6.545-11.366,10.005" transform="translate(-323.307 -1988.355)" fill="none"/>
    </clipPath>
    <linearGradient id="linear-gradient-7" x1="-0.218" y1="1.076" x2="-0.217" y2="1.076" gradientUnits="objectBoundingBox">
      <stop offset="0" stop-color="#e1473d"/>
      <stop offset="1" stop-color="#e9605a"/>
    </linearGradient>
    <clipPath id="clip-path-25">
      <rect id="Rectángulo_383511" data-name="Rectángulo 383511" width="29.844" height="60.274" fill="none"/>
    </clipPath>
    <clipPath id="clip-path-26">
      <rect id="Rectángulo_383512" data-name="Rectángulo 383512" width="48.686" height="29.537" fill="none"/>
    </clipPath>
  </defs>
  <g id="Grupo_1080995" data-name="Grupo 1080995" transform="translate(-180 -12907.851)">
    <g id="Grupo_1080994" data-name="Grupo 1080994" transform="translate(250.996 12907.851)">
      <g id="Grupo_1080993" data-name="Grupo 1080993" clip-path="url(#clip-path)">
        <g id="Grupo_1080929" data-name="Grupo 1080929" transform="translate(0 2.247)">
          <g id="Grupo_1080928" data-name="Grupo 1080928" clip-path="url(#clip-path-2)">
            <rect id="Rectángulo_383489" data-name="Rectángulo 383489" width="405.643" height="404.683" transform="matrix(0.734, -0.68, 0.68, 0.734, -153.588, 128.316)" fill="url(#linear-gradient)"/>
          </g>
        </g>
        <g id="Grupo_1080940" data-name="Grupo 1080940">
          <g id="Grupo_1080939" data-name="Grupo 1080939" clip-path="url(#clip-path)">
            <g id="Grupo_1080935" data-name="Grupo 1080935" transform="translate(37.959)" opacity="0.77">
              <g id="Grupo_1080934" data-name="Grupo 1080934">
                <g id="Grupo_1080933" data-name="Grupo 1080933" clip-path="url(#clip-path-4)">
                  <path id="Trazado_830481" data-name="Trazado 830481" d="M424.625,176.492S456.319,77.815,442.393,5.124a6.283,6.283,0,0,0-10.5-3.391c-24.11,22.924-88.864,97.519-7.27,174.759" transform="translate(-384.677 0)" fill="#91b3fa"/>
                  <g id="Grupo_1080932" data-name="Grupo 1080932" transform="translate(25.82 30.799)" opacity="0.5">
                    <g id="Grupo_1080931" data-name="Grupo 1080931">
                      <g id="Grupo_1080930" data-name="Grupo 1080930" clip-path="url(#clip-path-5)">
                        <path id="Trazado_830482" data-name="Trazado 830482" d="M655.228,447.04a.274.274,0,0,1-.52.172c-4.8-11.75-19.264-63.969,6.642-134.977a.192.192,0,0,1,.367.11c-4.658,17.273-20.136,81.991-6.489,134.7" transform="translate(-646.338 -312.108)" fill="#fff"/>
                      </g>
                    </g>
                  </g>
                </g>
              </g>
            </g>
            <path id="Trazado_830483" data-name="Trazado 830483" d="M91.234,236.35S86.441,110.667,45.545,33.54c-2.749-5.185-9.436-4.919-11.78.486C18.091,70.169-19.178,182.1,91.234,236.35" transform="translate(-13.431 -26.865)" fill="#bdd0fb"/>
            <g id="Grupo_1080938" data-name="Grupo 1080938" transform="translate(24.75 42.868)" opacity="0.5">
              <g id="Grupo_1080937" data-name="Grupo 1080937">
                <g id="Grupo_1080936" data-name="Grupo 1080936" clip-path="url(#clip-path-6)">
                  <path id="Trazado_830484" data-name="Trazado 830484" d="M294.63,590.938c.21.344-.209.721-.457.411-9.167-11.409-43.015-64.967-43.357-156.693a.205.205,0,1,1,.408-.027c1.732,21.632,10.2,101.86,43.406,156.308" transform="translate(-250.816 -434.422)" fill="#fff"/>
                </g>
              </g>
            </g>
            <path id="Trazado_830485" data-name="Trazado 830485" d="M349.528,479.2C346.61,545.66,286.089,596.985,214.35,593.836S86.82,534.255,89.738,467.793s63.439-117.787,135.178-114.638,127.53,59.58,124.612,126.042" transform="translate(-80.784 -318.183)" fill="#7d97f4"/>
          </g>
        </g>
        <g id="Grupo_1080942" data-name="Grupo 1080942" transform="translate(28.985 60.989)">
          <g id="Grupo_1080941" data-name="Grupo 1080941" clip-path="url(#clip-path-7)">
            <rect id="Rectángulo_383494" data-name="Rectángulo 383494" width="137.336" height="215.815" transform="translate(-2.377 0)" fill="url(#linear-gradient-2)"/>
          </g>
        </g>
        <g id="Grupo_1080944" data-name="Grupo 1080944" transform="translate(99.934 35.616)">
          <g id="Grupo_1080943" data-name="Grupo 1080943" clip-path="url(#clip-path-8)">
            <rect id="Rectángulo_383495" data-name="Rectángulo 383495" width="71.931" height="29.312" transform="translate(-1.522 0)" fill="url(#linear-gradient-3)"/>
          </g>
        </g>
        <g id="Grupo_1080978" data-name="Grupo 1080978">
          <g id="Grupo_1080977" data-name="Grupo 1080977" clip-path="url(#clip-path)">
            <g id="Grupo_1080949" data-name="Grupo 1080949" transform="translate(205.921 80.025)" opacity="0.56">
              <g id="Grupo_1080948" data-name="Grupo 1080948">
                <g id="Grupo_1080947" data-name="Grupo 1080947" clip-path="url(#clip-path-10)">
                  <g id="Grupo_1080946" data-name="Grupo 1080946" transform="translate(0 0)">
                    <g id="Grupo_1080945" data-name="Grupo 1080945" clip-path="url(#clip-path-11)">
                      <rect id="Rectángulo_383496" data-name="Rectángulo 383496" width="54.837" height="144.163" transform="translate(-1.601 -4.201)" fill="url(#linear-gradient-4)"/>
                    </g>
                  </g>
                </g>
              </g>
            </g>
            <g id="Grupo_1080952" data-name="Grupo 1080952" transform="translate(29.786 50.24)" opacity="0.09">
              <g id="Grupo_1080951" data-name="Grupo 1080951">
                <g id="Grupo_1080950" data-name="Grupo 1080950" clip-path="url(#clip-path-12)">
                  <path id="Trazado_830489" data-name="Trazado 830489" d="M505.9,605.515c0,53.23-45.678,96.382-102.026,96.382s-102.026-43.151-102.026-96.382,45.678-96.382,102.026-96.382S505.9,552.284,505.9,605.515" transform="translate(-301.852 -509.133)" fill="#fff"/>
                </g>
              </g>
            </g>
            <g id="Grupo_1080976" data-name="Grupo 1080976" transform="translate(23.832 39.536)" opacity="0.68">
              <g id="Grupo_1080975" data-name="Grupo 1080975">
                <g id="Grupo_1080974" data-name="Grupo 1080974" clip-path="url(#clip-path-13)">
                  <g id="Grupo_1080955" data-name="Grupo 1080955" transform="translate(85.086 0.632)" style="mix-blend-mode: soft-light;isolation: isolate">
                    <g id="Grupo_1080954" data-name="Grupo 1080954">
                      <g id="Grupo_1080953" data-name="Grupo 1080953" clip-path="url(#clip-path-14)">
                        <path id="Trazado_830490" data-name="Trazado 830490" d="M1169.959,524.267a365.359,365.359,0,0,1-5.206,63.454c-.943,5.23-2.037,10.435-3.342,15.589a150.087,150.087,0,0,1-4.67,15.254c-.928,2.495-1.942,4.96-3.084,7.37a57.2,57.2,0,0,1-3.885,7,28.631,28.631,0,0,1-5.224,6.1,14.863,14.863,0,0,1-3.412,2.2,10.2,10.2,0,0,1-3.975.94,10.008,10.008,0,0,1-4.018-.741,13.958,13.958,0,0,1-3.49-2.082,27.191,27.191,0,0,1-5.336-6.007,55.31,55.31,0,0,1-3.947-6.965c-1.157-2.4-2.185-4.863-3.123-7.354a146.883,146.883,0,0,1-4.72-15.238c-1.318-5.151-2.422-10.354-3.374-15.582-1.9-10.458-3.19-21.018-4.059-31.606s-1.291-21.214-1.336-31.838c-.022-5.312.11-10.623.295-15.931s.479-10.612.864-15.91c.774-10.594,1.936-21.164,3.668-31.648.87-5.241,1.884-10.459,3.106-15.632a150.194,150.194,0,0,1,4.417-15.318c.889-2.506,1.86-4.986,2.969-7.407a54.028,54.028,0,0,1,3.8-7.026,26.144,26.144,0,0,1,5.224-6.054,13.335,13.335,0,0,1,3.451-2.073,9.719,9.719,0,0,1,3.965-.708,10.494,10.494,0,0,1,3.92.922,15.326,15.326,0,0,1,3.408,2.133,29.157,29.157,0,0,1,5.339,5.951,56.932,56.932,0,0,1,4.056,6.88c1.2,2.375,2.276,4.812,3.266,7.281a145.26,145.26,0,0,1,5.015,15.133c1.411,5.125,2.606,10.306,3.639,15.518a334.409,334.409,0,0,1,5.8,63.389m-1.25,0c.015-10.59-.392-21.183-1.277-31.736a305.08,305.08,0,0,0-4.17-31.479c-.984-5.2-2.129-10.374-3.49-15.488a144.589,144.589,0,0,0-4.859-15.1c-.963-2.462-2.008-4.894-3.182-7.26a56.412,56.412,0,0,0-3.958-6.85,28.7,28.7,0,0,0-5.2-5.9,14.927,14.927,0,0,0-3.3-2.1,9.9,9.9,0,0,0-3.769-.915,9.266,9.266,0,0,0-3.8.711,12.915,12.915,0,0,0-3.325,2.038,25.7,25.7,0,0,0-5.075,5.99,53.525,53.525,0,0,0-3.7,6.988c-1.079,2.411-2.023,4.883-2.885,7.382a149.545,149.545,0,0,0-4.264,15.282c-1.172,5.162-2.138,10.371-2.959,15.6-1.636,10.464-2.7,21.014-3.383,31.583s-.936,21.166-.919,31.757q-.029,15.885,1.138,31.743c.8,10.559,2.025,21.091,3.852,31.52.915,5.213,1.984,10.4,3.264,15.534a145.828,145.828,0,0,0,4.6,15.173c.915,2.478,1.92,4.922,3.049,7.305a54.565,54.565,0,0,0,3.848,6.89,26.482,26.482,0,0,0,5.152,5.879,13.289,13.289,0,0,0,3.3,2,9.161,9.161,0,0,0,3.745.71,9.526,9.526,0,0,0,3.708-.9,14.181,14.181,0,0,0,3.236-2.121,27.922,27.922,0,0,0,5.047-5.979,56.453,56.453,0,0,0,3.786-6.926c1.114-2.391,2.1-4.841,3.01-7.323a149.25,149.25,0,0,0,4.544-15.19c1.266-5.137,2.322-10.326,3.228-15.541,1.813-10.431,3.021-20.964,3.824-31.523s1.185-21.153,1.182-31.745" transform="translate(-1103.756 -407.054)" fill="#fff"/>
                      </g>
                    </g>
                  </g>
                  <g id="Grupo_1080958" data-name="Grupo 1080958" transform="translate(24.659)" style="mix-blend-mode: soft-light;isolation: isolate">
                    <g id="Grupo_1080957" data-name="Grupo 1080957">
                      <g id="Grupo_1080956" data-name="Grupo 1080956" clip-path="url(#clip-path-15)">
                        <path id="Trazado_830491" data-name="Trazado 830491" d="M671.6,518.5a157.543,157.543,0,0,1-1.37,20.444,149.391,149.391,0,0,1-4.1,20.074,130.173,130.173,0,0,1-16.9,37.179,106.717,106.717,0,0,1-12.939,15.866,90.743,90.743,0,0,1-15.937,12.832,76.887,76.887,0,0,1-18.581,8.538,70.163,70.163,0,0,1-40.444.014,76.912,76.912,0,0,1-18.593-8.527,90.807,90.807,0,0,1-15.954-12.825,106.721,106.721,0,0,1-12.959-15.863,130.311,130.311,0,0,1-16.936-37.19,148.389,148.389,0,0,1-4.125-20.084,154.19,154.19,0,0,1,.01-40.915,148.311,148.311,0,0,1,4.136-20.079,130.271,130.271,0,0,1,16.954-37.17,106.7,106.7,0,0,1,12.96-15.849,90.581,90.581,0,0,1,15.95-12.806,77.159,77.159,0,0,1,18.581-8.5,69.766,69.766,0,0,1,40.394.013,77.112,77.112,0,0,1,18.57,8.514,90.523,90.523,0,0,1,15.933,12.814,106.645,106.645,0,0,1,12.94,15.852,130.118,130.118,0,0,1,16.918,37.159,149.4,149.4,0,0,1,4.115,20.069A157.522,157.522,0,0,1,671.6,518.5m-1.433,0a156.189,156.189,0,0,0-1.294-20.264,148.093,148.093,0,0,0-4-19.9A129.713,129.713,0,0,0,648.4,441.35a105.758,105.758,0,0,0-12.706-15.828,88.817,88.817,0,0,0-15.711-12.835,75.936,75.936,0,0,0-18.393-8.526,68.383,68.383,0,0,0-40.074.013,75.9,75.9,0,0,0-18.381,8.537,88.778,88.778,0,0,0-15.693,12.843,105.691,105.691,0,0,0-12.686,15.831,129.55,129.55,0,0,0-16.436,36.966,154.685,154.685,0,0,0,.021,80.283A129.506,129.506,0,0,0,514.8,595.58,105.654,105.654,0,0,0,527.483,611.4a88.521,88.521,0,0,0,15.689,12.825,76.125,76.125,0,0,0,18.37,8.512,68,68,0,0,0,40.023.014,76.151,76.151,0,0,0,18.381-8.5,88.6,88.6,0,0,0,15.707-12.817,105.709,105.709,0,0,0,12.707-15.815,129.656,129.656,0,0,0,16.49-36.956,148.02,148.02,0,0,0,4.015-19.9,156.149,156.149,0,0,0,1.3-20.262" transform="translate(-491.402 -400.651)" fill="#fff"/>
                      </g>
                    </g>
                  </g>
                  <g id="Grupo_1080961" data-name="Grupo 1080961" transform="translate(9.417 70.823)" style="mix-blend-mode: soft-light;isolation: isolate">
                    <g id="Grupo_1080960" data-name="Grupo 1080960">
                      <g id="Grupo_1080959" data-name="Grupo 1080959" clip-path="url(#clip-path-16)">
                        <path id="Trazado_830492" data-name="Trazado 830492" d="M337.033,1118.714l27.1-.173,27.1-.1,54.2-.08,54.2.088,27.1.108,27.1.188a.063.063,0,0,1,0,.126l-27.1.188-27.1.108-54.2.088-54.2-.08-27.1-.1-27.1-.173a.094.094,0,0,1,0-.189" transform="translate(-336.939 -1118.362)" fill="#fff"/>
                      </g>
                    </g>
                  </g>
                  <g id="Grupo_1080964" data-name="Grupo 1080964" transform="translate(40.855 25.434)" style="mix-blend-mode: soft-light;isolation: isolate">
                    <g id="Grupo_1080963" data-name="Grupo 1080963">
                      <g id="Grupo_1080962" data-name="Grupo 1080962" clip-path="url(#clip-path-17)">
                        <path id="Trazado_830493" data-name="Trazado 830493" d="M655.625,658.751l19.24-.174,19.239-.1c6.413-.042,12.826-.038,19.24-.05l19.239-.029,38.479.088,19.239.108,19.24.188a.063.063,0,0,1,0,.126l-19.24.188-19.239.108-38.479.087-19.239-.029c-6.413-.013-12.826-.009-19.24-.051l-19.239-.1-19.24-.174a.094.094,0,0,1,0-.188" transform="translate(-655.532 -658.399)" fill="#fff"/>
                      </g>
                    </g>
                  </g>
                  <g id="Grupo_1080967" data-name="Grupo 1080967" transform="translate(0 116.211)" style="mix-blend-mode: soft-light;isolation: isolate">
                    <g id="Grupo_1080966" data-name="Grupo 1080966">
                      <g id="Grupo_1080965" data-name="Grupo 1080965" clip-path="url(#clip-path-18)">
                        <path id="Trazado_830494" data-name="Trazado 830494" d="M241.6,1578.677l29.453-.174,29.453-.1,58.906-.079,58.907.088,29.453.108,29.453.188a.063.063,0,0,1,0,.126l-29.453.188-29.453.108-58.907.088-58.906-.08-29.453-.1-29.453-.174a.094.094,0,0,1,0-.188" transform="translate(-241.507 -1578.324)" fill="#fff"/>
                      </g>
                    </g>
                  </g>
                  <g id="Grupo_1080970" data-name="Grupo 1080970" transform="translate(9.417 161.599)" style="mix-blend-mode: soft-light;isolation: isolate">
                    <g id="Grupo_1080969" data-name="Grupo 1080969">
                      <g id="Grupo_1080968" data-name="Grupo 1080968" clip-path="url(#clip-path-16)">
                        <path id="Trazado_830495" data-name="Trazado 830495" d="M337.033,2038.638l27.1-.173,27.1-.1,54.2-.08,54.2.088,27.1.108,27.1.188a.063.063,0,0,1,0,.126l-27.1.188-27.1.108-54.2.088-54.2-.08-27.1-.1-27.1-.173a.094.094,0,0,1,0-.188" transform="translate(-336.939 -2038.286)" fill="#fff"/>
                      </g>
                    </g>
                  </g>
                  <g id="Grupo_1080973" data-name="Grupo 1080973" transform="translate(44.496 207.104)" style="mix-blend-mode: soft-light;isolation: isolate">
                    <g id="Grupo_1080972" data-name="Grupo 1080972">
                      <g id="Grupo_1080971" data-name="Grupo 1080971" clip-path="url(#clip-path-20)">
                        <path id="Trazado_830496" data-name="Trazado 830496" d="M846.672,2500.088H692.756a.33.33,0,1,1,0-.661H846.672a.33.33,0,1,1,0,.661" transform="translate(-692.426 -2499.427)" fill="#fff"/>
                      </g>
                    </g>
                  </g>
                </g>
              </g>
            </g>
          </g>
        </g>
        <g id="Grupo_1080980" data-name="Grupo 1080980" transform="translate(13.381 60.76)">
          <g id="Grupo_1080979" data-name="Grupo 1080979" clip-path="url(#clip-path-21)">
            <rect id="Rectángulo_383508" data-name="Rectángulo 383508" width="184.315" height="159.598" transform="matrix(0.836, -0.548, 0.548, 0.836, -37.255, 24.436)" fill="url(#linear-gradient-5)"/>
          </g>
        </g>
        <g id="Grupo_1080982" data-name="Grupo 1080982" transform="translate(113.091 126.248)">
          <g id="Grupo_1080981" data-name="Grupo 1080981" clip-path="url(#clip-path-22)">
            <rect id="Rectángulo_383509" data-name="Rectángulo 383509" width="173.858" height="147.249" transform="translate(-34.67 20.778) rotate(-31.171)" fill="url(#linear-gradient-6)"/>
          </g>
        </g>
        <g id="Grupo_1080984" data-name="Grupo 1080984" transform="translate(31.903 196.208)">
          <g id="Grupo_1080983" data-name="Grupo 1080983" clip-path="url(#clip-path-23)">
            <rect id="Rectángulo_383510" data-name="Rectángulo 383510" width="146.38" height="74.422" transform="translate(0)" fill="url(#linear-gradient-7)"/>
          </g>
        </g>
        <g id="Grupo_1080992" data-name="Grupo 1080992">
          <g id="Grupo_1080991" data-name="Grupo 1080991" clip-path="url(#clip-path)">
            <path id="Trazado_830500" data-name="Trazado 830500" d="M1875.8,2002.174s10.015-50.422,33.557-78.59a3.116,3.116,0,0,1,5.369,1.057c4.936,15.746,15.054,63.685-38.926,77.533" transform="translate(-1690.696 -1732.755)" fill="#bdd0fb"/>
            <g id="Grupo_1080987" data-name="Grupo 1080987" transform="translate(189.923 205.972)" opacity="0.5">
              <g id="Grupo_1080986" data-name="Grupo 1080986">
                <g id="Grupo_1080985" data-name="Grupo 1080985" clip-path="url(#clip-path-25)">
                  <path id="Trazado_830501" data-name="Trazado 830501" d="M1924.708,2147.349a.136.136,0,0,0,.184.2c4.911-3.939,23.756-23.1,29.619-60.131a.1.1,0,0,0-.185-.041c-2.139,8.612-11.01,40.4-29.618,59.971" transform="translate(-1924.668 -2087.307)" fill="#fff"/>
                </g>
              </g>
            </g>
            <path id="Trazado_830502" data-name="Trazado 830502" d="M1875.633,2357.335s31.606-30.608,60.289-40.506a2.128,2.128,0,0,1,2.765,2.88c-4.916,12.794-22.9,49.775-63.054,37.626" transform="translate(-1690.548 -2088.072)" fill="#91b3fa"/>
            <g id="Grupo_1080990" data-name="Grupo 1080990" transform="translate(189.696 239.552)" opacity="0.5">
              <g id="Grupo_1080989" data-name="Grupo 1080989">
                <g id="Grupo_1080988" data-name="Grupo 1080988" clip-path="url(#clip-path-26)">
                  <path id="Trazado_830503" data-name="Trazado 830503" d="M1922.455,2456.926c-.135.038-.123.231.012.211,5.006-.734,26.258-6.332,48.552-29.409.072-.074-.017-.171-.093-.1-5.662,5.056-27.16,23.329-48.471,29.3" transform="translate(-1922.359 -2427.602)" fill="#fff"/>
                </g>
              </g>
            </g>
          </g>
        </g>
      </g>
    </g>
    <rect id="Rectángulo_383515" data-name="Rectángulo 383515" width="400" height="276" transform="translate(180 12908)" fill="none"/>
  </g>
</svg>
