<svg xmlns="http://www.w3.org/2000/svg" xmlns:xlink="http://www.w3.org/1999/xlink" width="190" height="173.958" viewBox="0 0 190 173.958">
  <defs>
    <clipPath id="clip-path">
      <rect id="Rectángulo_376638" data-name="Rectángulo 376638" width="190" height="173.958" fill="none"/>
    </clipPath>
    <clipPath id="clip-path-3">
      <rect id="Rectángulo_376636" data-name="Rectángulo 376636" width="152.312" height="143.461" fill="none"/>
    </clipPath>
    <clipPath id="clip-path-4">
      <rect id="Rectángulo_376639" data-name="Rectángulo 376639" width="71.393" height="63.944" fill="none"/>
    </clipPath>
  </defs>
  <g id="Grupo_1080902" data-name="Grupo 1080902" transform="translate(-315.88 -543.087)">
    <g id="Grupo_1078955" data-name="Grupo 1078955" transform="translate(315.88 543.087)">
      <g id="Grupo_1078954" data-name="Grupo 1078954" clip-path="url(#clip-path)">
        <g id="Grupo_1078953" data-name="Grupo 1078953">
          <g id="Grupo_1078952" data-name="Grupo 1078952" clip-path="url(#clip-path)">
            <g id="Grupo_1078951" data-name="Grupo 1078951" transform="translate(19.102 20.267)" opacity="0.5" style="mix-blend-mode: multiply;isolation: isolate">
              <g id="Grupo_1078950" data-name="Grupo 1078950">
                <g id="Grupo_1078949" data-name="Grupo 1078949" clip-path="url(#clip-path-3)">
                  <path id="Trazado_829336" data-name="Trazado 829336" d="M52.316,144.98C36.52,117.085,43.578,70.7,62.735,54.909s99.482-7.73,116.958,6.722,19.493,51.421,12.435,72.259c-8.443,24.927-59.417,38.195-98.222,32.811v0s-12.447,7.2-10.979,21.555c0,0,.734,1.631-1.387,1.468-1.96-.151-12.622-9.216-10.631-29.252-8.255-3.686-14.806-8.8-18.6-15.5" transform="translate(-43.619 -46.278)" fill="#45b7a1" fill-rule="evenodd"/>
                </g>
              </g>
            </g>
            <path id="Trazado_829337" data-name="Trazado 829337" d="M186.994,75.8a.922.922,0,1,1,1.813-.332,104.324,104.324,0,0,1,1.514,24.24,85.6,85.6,0,0,1-3.986,22.458,32.351,32.351,0,0,1-2.354,5.291,38.25,38.25,0,0,1-3.389,5.08.924.924,0,0,1-1.453-1.141,36.423,36.423,0,0,0,3.23-4.835,30.522,30.522,0,0,0,2.217-4.987,83.731,83.731,0,0,0,3.892-21.959A102.537,102.537,0,0,0,186.994,75.8m-65.342,82.751a.923.923,0,1,1,.253,1.828,137.082,137.082,0,0,1-18.384,1.358,124.765,124.765,0,0,1-17.488-1.1c-1.813,1.149-12.429,8.485-11.1,22.021.192.6.732,2.936-2.469,2.691-1.275-.1-7.616-3.066-12.493-9.688a31.382,31.382,0,0,1-5.875-14.91.924.924,0,1,1,1.835-.224,29.561,29.561,0,0,0,5.528,14.043c4.515,6.13,10.056,8.852,11.142,8.936.636.049.586-.244.566-.311a.919.919,0,0,1-.062-.252c-1.572-15.373,11.1-23.367,12.175-24.013a.92.92,0,0,1,.668-.167,122.728,122.728,0,0,0,17.564,1.13,135.267,135.267,0,0,0,18.139-1.344M28.266,111.17a.921.921,0,1,1-1.814.325,104.3,104.3,0,0,1,1.666-43.42c3.454-13.5,9.571-25.127,17.679-31.812,7.261-5.987,22.346-8.855,39.771-9.392a246.868,246.868,0,0,1,61.084,6.123.921.921,0,0,1-.427,1.792,244.95,244.95,0,0,0-60.607-6.073c-17.049.526-31.733,3.268-38.651,8.973-7.791,6.424-13.7,17.7-17.058,30.845a102.426,102.426,0,0,0-1.644,42.639" transform="translate(-14.003 -15.05)" fill="#71c8e7" fill-rule="evenodd"/>
            <path id="Trazado_829338" data-name="Trazado 829338" d="M48.731,139.842c-15.8-27.9-8.739-74.276,10.419-90.071s99.482-7.73,116.958,6.722,19.493,51.421,12.435,72.259c-8.443,24.927-59.417,38.195-98.222,32.811v0s-12.447,7.2-10.979,21.555c0,0,.734,1.632-1.387,1.469-1.96-.151-12.622-9.216-10.631-29.252-8.255-3.686-14.806-8.8-18.6-15.5" transform="translate(-22.502 -23.123)" fill="#fff" fill-rule="evenodd"/>
            <path id="Trazado_829339" data-name="Trazado 829339" d="M48.921,195.868c-5.192-9.168-7.914-20.333-8.55-31.752h0c.071,1.053,1.81,22.726,25.008,32.278,23.778,9.791,126.5,12.362,125.411-54.424-.007-.4.024-.763.03-1.149h0c3,15.142,1.914,32.142-2.088,43.957-8.443,24.927-59.417,38.195-98.222,32.811v0s-12.447,7.2-10.979,21.555c0,0,.734,1.632-1.387,1.469-1.96-.151-12.622-9.216-10.631-29.252-8.255-3.686-14.806-8.8-18.6-15.5" transform="translate(-22.691 -79.149)" fill="#e2f0f0" fill-rule="evenodd"/>
            <path id="Trazado_829340" data-name="Trazado 829340" d="M316.954,45.69a1.382,1.382,0,0,1,.249-2.753c.057.005,19.539,1.6,30.174,23.992a1.384,1.384,0,0,1-2.5,1.182c-9.952-20.95-27.869-22.415-27.92-22.42m30.014,27.466a1.381,1.381,0,1,1,2.6-.932q.372,1.039.726,2.144.371,1.161.664,2.2a1.385,1.385,0,0,1-2.667.748q-.329-1.168-.631-2.113-.332-1.039-.693-2.047" transform="translate(-177.441 -24.13)" fill="#fff" fill-rule="evenodd"/>
            <path id="Trazado_829341" data-name="Trazado 829341" d="M56.253,267.74a1.384,1.384,0,0,1-.975,2.59,39.031,39.031,0,0,1-14.063-9.3,45.9,45.9,0,0,1-9.572-14.9,1.386,1.386,0,1,1,2.569-1.041A43.137,43.137,0,0,0,43.2,259.1a36.236,36.236,0,0,0,13.055,8.642M32.407,239.931a1.384,1.384,0,0,1-2.655.78q-.3-1-.6-2.181-.286-1.1-.536-2.233a1.382,1.382,0,0,1,2.7-.6q.246,1.108.515,2.146.257,1,.579,2.084" transform="translate(-16.064 -131.869)" fill="#fff" fill-rule="evenodd"/>
            <path id="Trazado_829342" data-name="Trazado 829342" d="M378.022,351.1c-.26.363-.051.063-.081.089l-13.253,16.632c-.382.534-2.067-.016-3.762-1.229s-2.76-2.629-2.378-3.163l11.458-17.915c.016-.038-.2.257.058-.106s2.678.021,4.876,1.593,3.342,3.737,3.083,4.1" transform="translate(-201.482 -194.072)" fill="#244553" fill-rule="evenodd"/>
            <path id="Trazado_829343" data-name="Trazado 829343" d="M378.022,351.1c-.26.363-.051.063-.081.089l-13.253,16.632c-.382.534-2.067-.016-3.762-1.229s-2.76-2.629-2.378-3.163l.664-1.038c2.618,2.173,5.751.494,7.809-2.382,2.278-3.184,4.205-6.018,2.081-7.537a4.02,4.02,0,0,0-3.228-.5l4.132-6.461c.016-.038-.2.257.058-.106s2.678.021,4.876,1.593,3.342,3.737,3.083,4.1" transform="translate(-201.482 -194.072)" fill="#0f2c39" fill-rule="evenodd"/>
            <path id="Trazado_829344" data-name="Trazado 829344" d="M410.249,341.027a.506.506,0,0,1,.089.082l6.694,6.144c.534.382-.016,2.066-1.229,3.762s-2.629,2.76-3.163,2.378l-7.977-4.35a.488.488,0,0,1-.106-.058c-.693-.5.021-2.678,1.593-4.876s3.408-3.578,4.1-3.083" transform="translate(-227.236 -191.621)" fill="#fff" fill-rule="evenodd"/>
            <path id="Trazado_829345" data-name="Trazado 829345" d="M416.858,356.7a10.383,10.383,0,0,1-1.055,1.817c-1.213,1.7-2.629,2.761-3.163,2.379l-7.977-4.351a.509.509,0,0,1-.106-.057c-.4-.286-.331-1.13.1-2.215a9.7,9.7,0,0,1,4.246,1.918c5.236,3.745,7.953.516,7.958.509" transform="translate(-227.236 -199.122)" fill="#d0c6c6" fill-rule="evenodd"/>
            <path id="Trazado_829346" data-name="Trazado 829346" d="M376.554,306.964a1.138,1.138,0,0,1,.194.179l14.636,13.434c1.168.835-.035,4.518-2.688,8.225s-5.748,6.036-6.916,5.2l-17.442-9.511a1.131,1.131,0,0,1-.232-.127c-1.514-1.083.046-5.856,3.483-10.661s7.451-7.823,8.965-6.74" transform="translate(-204.325 -172.409)" fill="#244553" fill-rule="evenodd"/>
            <path id="Trazado_829347" data-name="Trazado 829347" d="M389.251,336.928q-.265.4-.554.8c-2.651,3.707-5.748,6.036-6.916,5.2l-17.442-9.511a1.13,1.13,0,0,1-.233-.127c-1.513-1.083.046-5.856,3.483-10.661l0,0a44.2,44.2,0,0,1,4.807,4.8c-1.075,1.485-1.127,3.507-.378,4.143s6.91,4.886,10.725,6.318a6.6,6.6,0,0,0,6.5-.963" transform="translate(-204.326 -181.338)" fill="#132f3b" fill-rule="evenodd"/>
            <path id="Trazado_829348" data-name="Trazado 829348" d="M376.543,307.011c1.509,1.08-.045,5.838-3.472,10.629s-7.428,7.8-8.937,6.719.046-5.838,3.472-10.629,7.428-7.8,8.937-6.72" transform="translate(-204.341 -172.436)" fill="#092733" fill-rule="evenodd"/>
            <path id="Trazado_829349" data-name="Trazado 829349" d="M325.488,268.243s-11.993-15.684-12.842-29.187l-10.814-3.781L277.348,269.5l7.071,9.012c13.053-3.557,31.77,2.725,31.77,2.725,1.346.962,4.517-1.168,7.085-4.757s3.559-7.279,2.214-8.241" transform="translate(-155.886 -132.239)" fill="#fcd000" fill-rule="evenodd"/>
            <path id="Trazado_829350" data-name="Trazado 829350" d="M288.273,278.556,277.348,293.83l7.071,9.012c13.054-3.557,31.771,2.725,31.771,2.725,1.345.962,4.517-1.168,7.085-4.757.349-.487.667-.975.956-1.459-.038.045-2.269,2.615-6.9,1.355a146.316,146.316,0,0,1-16.76-6.106c-2.673-1.31-2.557-4.136-.592-7.445,1.119-1.885-5.4-5.889-11.7-8.6" transform="translate(-155.886 -156.565)" fill="#f5b700" fill-rule="evenodd"/>
            <path id="Trazado_829351" data-name="Trazado 829351" d="M300.7,218.555c-5.853-4.187-18.949,4.093-29.25,18.492s-13.9,29.468-8.051,33.655,18.95-4.092,29.25-18.492,13.905-29.469,8.051-33.656" transform="translate(-146.47 -122.23)" fill="#f5b700" fill-rule="evenodd"/>
            <path id="Trazado_829352" data-name="Trazado 829352" d="M301.634,224.763c-4.361-3.119-15.353,4.779-24.552,17.64s-13.123,25.816-8.762,28.936,15.352-4.779,24.553-17.641,13.122-25.816,8.762-28.935" transform="translate(-149.811 -125.948)" fill="#ea8c00" fill-rule="evenodd"/>
            <path id="Trazado_829353" data-name="Trazado 829353" d="M280.795,277.84c5.36-1.557,13.22-8.387,20.083-17.982s10.788-19.24,10.529-24.816c-5.361,1.557-13.221,8.388-20.083,17.982s-10.788,19.24-10.529,24.816" transform="translate(-157.817 -132.108)" fill="#e07f00" fill-rule="evenodd"/>
            <path id="Trazado_829354" data-name="Trazado 829354" d="M304.33,261.367l8.091,6.242c-1.205,2.056-2.562,4.152-4.06,6.246-1.089,1.522-2.2,2.974-3.329,4.347l-8.3-6.4c-6.762-5.214.836-15.653,7.6-10.438" transform="translate(-165.3 -146.105)" fill="#fff" fill-rule="evenodd"/>
            <path id="Trazado_829355" data-name="Trazado 829355" d="M305.033,279.9l-8.3-6.4c-4.068-3.137-2.938-8.164.08-10.537-.124.15-2.66,3.35,2.469,8.171,3.719,3.5,7.373,3.948,9.686,3.554q-.3.431-.607.862c-1.09,1.523-2.2,2.974-3.329,4.347" transform="translate(-165.3 -147.802)" fill="#e9e5e8" fill-rule="evenodd"/>
            <path id="Trazado_829356" data-name="Trazado 829356" d="M48.444,25.639a.925.925,0,1,1,1.849,0v1.2h1.2a.925.925,0,0,1,0,1.85h-1.2v1.2a.925.925,0,1,1-1.849,0v-1.2h-1.2a.925.925,0,0,1,0-1.85h1.2Z" transform="translate(-26.036 -13.891)" fill="#fff" fill-rule="evenodd"/>
            <path id="Trazado_829357" data-name="Trazado 829357" d="M397.422,275.3a.925.925,0,0,1,1.85,0v1.2h1.2a.925.925,0,0,1,0,1.85h-1.2v1.2a.925.925,0,0,1-1.85,0v-1.2h-1.2a.925.925,0,1,1,0-1.85h1.2Z" transform="translate(-222.183 -154.217)" fill="#fff" fill-rule="evenodd"/>
            <path id="Trazado_829358" data-name="Trazado 829358" d="M375.094,21.882a.925.925,0,0,1,1.85,0v1.2h1.2a.925.925,0,0,1,0,1.85h-1.2v1.2a.925.925,0,1,1-1.85,0v-1.2h-1.2a.925.925,0,0,1,0-1.85h1.2Z" transform="translate(-209.633 -11.78)" fill="#fff" fill-rule="evenodd"/>
            <path id="Trazado_829359" data-name="Trazado 829359" d="M40.125,333.591a.925.925,0,0,1,1.85,0v1.2h1.2a.925.925,0,0,1,0,1.85h-1.2v1.2a.925.925,0,0,1-1.85,0v-1.2h-1.2a.925.925,0,1,1,0-1.85h1.2Z" transform="translate(-21.361 -186.979)" fill="#fff" fill-rule="evenodd"/>
            <path id="Trazado_829360" data-name="Trazado 829360" d="M167.267,367.327a.946.946,0,1,0-.947-.946.949.949,0,0,0,.947.946" transform="translate(-93.482 -205.397)" fill="#fff" fill-rule="evenodd"/>
            <path id="Trazado_829361" data-name="Trazado 829361" d="M424.084,302.874a.946.946,0,1,0-.946-.946.948.948,0,0,0,.946.946" transform="translate(-237.829 -169.17)" fill="#fff" fill-rule="evenodd"/>
            <path id="Trazado_829362" data-name="Trazado 829362" d="M427.674,146.5a.946.946,0,1,0-.946-.947.948.948,0,0,0,.946.947" transform="translate(-239.847 -81.28)" fill="#fff" fill-rule="evenodd"/>
            <path id="Trazado_829363" data-name="Trazado 829363" d="M13.793,155.242a.946.946,0,1,0-.946-.946.948.948,0,0,0,.946.946" transform="translate(-7.221 -86.192)" fill="#fff" fill-rule="evenodd"/>
            <path id="Trazado_829364" data-name="Trazado 829364" d="M112.258,8.533a.946.946,0,1,0-.946-.947.948.948,0,0,0,.946.947" transform="translate(-62.564 -3.732)" fill="#fff" fill-rule="evenodd"/>
            <path id="Trazado_829365" data-name="Trazado 829365" d="M13.67,1.892a.946.946,0,1,0-.946-.946.948.948,0,0,0,.946.946" transform="translate(-7.152 0)" fill="#fff" fill-rule="evenodd"/>
            <path id="Trazado_829366" data-name="Trazado 829366" d="M283.682,23.614a.946.946,0,1,0-.946-.946.948.948,0,0,0,.946.946" transform="translate(-158.915 -12.209)" fill="#fff" fill-rule="evenodd"/>
            <path id="Trazado_829367" data-name="Trazado 829367" d="M423.186,81.55a.946.946,0,1,0-.946-.946.948.948,0,0,0,.946.946" transform="translate(-237.325 -44.773)" fill="#fff" fill-rule="evenodd"/>
            <path id="Trazado_829368" data-name="Trazado 829368" d="M2.121,207.747a.925.925,0,1,1,1.85,0v1.2h1.2a.925.925,0,1,1,0,1.85H3.97v1.2a.925.925,0,0,1-1.85,0v-1.2H.925a.925.925,0,1,1,0-1.85h1.2Z" transform="translate(0 -116.247)" fill="#fff" fill-rule="evenodd"/>
          </g>
        </g>
      </g>
    </g>
    <g id="Grupo_1078957" data-name="Grupo 1078957" transform="translate(369.903 585.066)">
      <g id="Grupo_1078956" data-name="Grupo 1078956" transform="translate(0 0)" clip-path="url(#clip-path-4)">
        <path id="Trazado_829369" data-name="Trazado 829369" d="M29.47,3.6.966,53.183A7.182,7.182,0,0,0,7.193,63.944H64.2a7.182,7.182,0,0,0,6.227-10.762L41.923,3.6a7.182,7.182,0,0,0-12.453,0" transform="translate(0 0)" fill="#ffd34d"/>
        <path id="Trazado_829370" data-name="Trazado 829370" d="M36.834,14.031a4.961,4.961,0,0,0-4.971,5.254c0,4.406,2.486,27.9,2.486,27.9s.338,1.469,2.485,1.581c2.147-.113,2.485-1.581,2.485-1.581s2.486-23.5,2.486-27.9a4.961,4.961,0,0,0-4.971-5.254" transform="translate(-1.137 -0.501)" fill="#606060"/>
        <path id="Trazado_829371" data-name="Trazado 829371" d="M40.57,55.8a3.688,3.688,0,1,1-3.688-3.688A3.688,3.688,0,0,1,40.57,55.8" transform="translate(-1.185 -1.86)" fill="#606060"/>
      </g>
    </g>
  </g>
</svg>
