<svg id="Grupo_1071478" data-name="Grupo 1071478" xmlns="http://www.w3.org/2000/svg" xmlns:xlink="http://www.w3.org/1999/xlink" width="76.243" height="67.925" viewBox="0 0 76.243 67.925">
  <defs>
    <clipPath id="clip-path">
      <rect id="Rectángulo_377608" data-name="Rectángulo 377608" width="76.243" height="67.925" fill="none"/>
    </clipPath>
  </defs>
  <g id="Grupo_1071477" data-name="Grupo 1071477" transform="translate(0 0)" clip-path="url(#clip-path)">
    <path id="Trazado_608520" data-name="Trazado 608520" d="M1.728,70.609S4.5,75.285.894,78.453L39.375,81.6l.879-8.392Z" transform="translate(-0.191 -15.087)" fill="#e5e5e5"/>
    <path id="Trazado_608521" data-name="Trazado 608521" d="M40.041,78.417c-.48-.451-6.067-5.727-37.454-6.35a2.561,2.561,0,0,0-.693-1.494l38.084,2.184Z" transform="translate(-0.405 -15.079)" fill="#cecdcc"/>
    <path id="Trazado_608522" data-name="Trazado 608522" d="M50.123,64.636,74.658,38.362l.7,8.327-25.009,28.8Z" transform="translate(-10.71 -8.197)" fill="#ffc23a"/>
    <path id="Trazado_608523" data-name="Trazado 608523" d="M1.209,60.222l38.464,3.236L64.207,37.184,29.778,32.846Z" transform="translate(-0.258 -7.018)" fill="#e8a827"/>
    <path id="Trazado_608524" data-name="Trazado 608524" d="M39.27,75.938c.028-.327.057-.7.091-1.095.157-1.942-1.269-1.9-1.269-1.9L.768,69.893l.182-2.232,37.71,3.08a2.37,2.37,0,0,1,1.672.767l0,0c.031.035.059.072.086.107a.03.03,0,0,1,.009.013.632.632,0,0,1,.047.061c.647.86,3.11,4.727-.488,9.618a2.273,2.273,0,0,1-2.279,1.062L0,79.29l.183-2.232,37.324,3.049s1.4.273,1.56-1.669c.031-.4.063-.767.089-1.095l.114-1.405" transform="translate(0 -14.457)" fill="#ffc23a"/>
    <path id="Trazado_608525" data-name="Trazado 608525" d="M16.476,55.087s2.771,4.677-.834,7.844l38.483,3.145L55,57.685Z" transform="translate(-3.342 -11.77)" fill="#e5e5e5"/>
    <path id="Trazado_608526" data-name="Trazado 608526" d="M54.788,62.895c-.477-.451-6.067-5.727-37.453-6.35a2.564,2.564,0,0,0-.694-1.493l38.084,2.183Z" transform="translate(-3.556 -11.762)" fill="#cecdcc"/>
    <path id="Trazado_608527" data-name="Trazado 608527" d="M64.873,49.115,89.405,22.84l.7,8.327L65.093,59.97Z" transform="translate(-13.861 -4.88)" fill="#22b1b6"/>
    <path id="Trazado_608528" data-name="Trazado 608528" d="M15.955,44.7l38.466,3.237L78.954,21.661l-34.43-4.337Z" transform="translate(-3.409 -3.702)" fill="#119998"/>
    <path id="Trazado_608529" data-name="Trazado 608529" d="M54.019,60.415c.028-.327.056-.7.089-1.094.16-1.942-1.267-1.9-1.267-1.9L15.516,54.369l.182-2.231,37.711,3.081a2.363,2.363,0,0,1,1.672.766l0,0c.029.035.059.072.087.107a.078.078,0,0,1,.009.012c.016.02.031.04.046.061.649.861,3.112,4.727-.487,9.618a2.279,2.279,0,0,1-2.281,1.063L14.749,63.767l.182-2.232,37.325,3.049s1.4.272,1.559-1.67c.033-.4.063-.767.09-1.094l.114-1.406" transform="translate(-3.151 -11.14)" fill="#22b1b6"/>
    <path id="Trazado_608530" data-name="Trazado 608530" d="M8.611,36.293s2.582,4.786-1.15,7.8l38.323,4.7L47,40.446Z" transform="translate(-1.594 -7.755)" fill="#e5e5e5"/>
    <path id="Trazado_608531" data-name="Trazado 608531" d="M46.664,45.634c-.46-.47-5.831-5.967-37.166-7.859a2.571,2.571,0,0,0-.632-1.52l37.963,3.722Z" transform="translate(-1.894 -7.746)" fill="#cecdcc"/>
    <path id="Trazado_608532" data-name="Trazado 608532" d="M56.949,32.542,82.524,7.281l.359,8.348L56.73,43.4Z" transform="translate(-12.121 -1.556)" fill="#63a343"/>
    <path id="Trazado_608533" data-name="Trazado 608533" d="M8.3,26.2l38.3,4.789L72.176,5.726,37.951,0Z" transform="translate(-1.773 0)" fill="#5b9140"/>
    <path id="Trazado_608534" data-name="Trazado 608534" d="M45.866,43.137c.042-.326.086-.693.134-1.09.237-1.935-1.19-1.952-1.19-1.952L7.638,35.539l.273-2.222,37.555,4.6a2.365,2.365,0,0,1,1.639.834l0,0c.03.037.056.074.083.11a.039.039,0,0,1,.009.013.425.425,0,0,1,.043.063c.615.887,2.918,4.849-.874,9.59a2.278,2.278,0,0,1-2.321.97L6.492,44.9l.273-2.222,37.172,4.556s1.388.329,1.624-1.606c.05-.4.1-.764.135-1.089,0,0,.068-.56.17-1.4" transform="translate(-1.387 -7.119)" fill="#63a343"/>
    <path id="Trazado_608535" data-name="Trazado 608535" d="M63.3,66.463c3.6-4.89,1.136-8.757.487-9.618-.014-.021-.03-.042-.046-.062a.06.06,0,0,0-.009-.011c-.028-.035-.057-.072-.087-.107l0,0a2.366,2.366,0,0,0-1.671-.767l-7.134-.583v2.247l6.567.536s1.426-.039,1.268,1.9c-.033.4-.061.767-.09,1.094-.068.844-.113,1.406-.113,1.406-.028.327-.058.694-.091,1.094-.158,1.942-1.558,1.67-1.558,1.67l-5.982-.489v2.247l6.184.506a2.278,2.278,0,0,0,2.28-1.063" transform="translate(-11.717 -11.819)" fill="#0f8481"/>
    <path id="Trazado_608536" data-name="Trazado 608536" d="M48.555,81.985c3.6-4.89,1.136-8.757.487-9.618-.014-.02-.03-.041-.046-.061a.041.041,0,0,0-.009-.011c-.028-.035-.057-.072-.087-.107l0,0a2.363,2.363,0,0,0-1.671-.767l-7.134-.583v2.247l6.567.536s1.426-.04,1.268,1.9c-.033.4-.061.767-.09,1.094-.068.844-.113,1.406-.113,1.406-.028.327-.058.694-.091,1.094-.158,1.942-1.558,1.67-1.558,1.67L40.091,80.3v2.247l6.184.5a2.276,2.276,0,0,0,2.28-1.062" transform="translate(-8.566 -15.135)" fill="#f9a431"/>
    <path id="Trazado_608537" data-name="Trazado 608537" d="M53.479,49.382c3.9-4.746,1.507-8.706.869-9.592-.014-.021-.03-.043-.045-.064a.077.077,0,0,0-.009-.012c-.027-.036-.057-.075-.086-.11l0,0a2.473,2.473,0,0,0-1.7-.831L40.254,37.264l-.263,2.224,11.848,1.459s1.475.017,1.236,1.951c-.049.4-.092.764-.134,1.09-.1.84-.17,1.4-.17,1.4-.042.326-.086.691-.136,1.089-.237,1.935-1.673,1.608-1.673,1.608L39.5,46.672l-.2,2.232,11.778,1.451a2.379,2.379,0,0,0,2.4-.972" transform="translate(-8.398 -7.962)" fill="#4f823c"/>
    <path id="Trazado_608538" data-name="Trazado 608538" d="M90.209,32.635,65.362,61.257l.262-4.192,24.339-27.35Z" transform="translate(-13.966 -6.349)" fill="#0f8481"/>
    <path id="Trazado_608539" data-name="Trazado 608539" d="M82.883,17.165,56.73,44.949l1.307-4.657L82.769,14.539Z" transform="translate(-12.121 -3.107)" fill="#4f823c"/>
    <path id="Trazado_608540" data-name="Trazado 608540" d="M50.4,82.316l10.053-11.51-2.646-.2-7.088,7.815Z" transform="translate(-10.769 -15.087)" fill="#f9a431"/>
  </g>
</svg>
