<svg id="Grupo_1080414" data-name="Grupo 1080414" xmlns="http://www.w3.org/2000/svg" xmlns:xlink="http://www.w3.org/1999/xlink" width="315" height="311.091" viewBox="0 0 315 311.091">
  <defs>
    <clipPath id="clip-path">
      <rect id="Rectángulo_382204" data-name="Rectángulo 382204" width="315" height="311.091" fill="none"/>
    </clipPath>
    <clipPath id="clip-path-2">
      <rect id="Rectángulo_382203" data-name="Rectángulo 382203" width="314.999" height="311.091" fill="none"/>
    </clipPath>
    <clipPath id="clip-path-3">
      <rect id="Rectángulo_382197" data-name="Rectángulo 382197" width="4.628" height="3.566" fill="none"/>
    </clipPath>
    <clipPath id="clip-path-4">
      <rect id="Rectángulo_382198" data-name="Rectángulo 382198" width="34.319" height="34.498" fill="none"/>
    </clipPath>
  </defs>
  <g id="Grupo_1080413" data-name="Grupo 1080413" clip-path="url(#clip-path)">
    <g id="Grupo_1080412" data-name="Grupo 1080412" transform="translate(0 0)">
      <g id="Grupo_1080411" data-name="Grupo 1080411" clip-path="url(#clip-path-2)">
        <path id="Trazado_829381" data-name="Trazado 829381" d="M478.689,464.419c-6.975,5.67-16.886,11.963-25.048,14.672l12.126,2.283-50.091,59.067-99.838,28.733-118.15,126,93.069-.032,47.422-76.137,95.009-56.447,36.9-78.634,7.861,9.515c-1.572-8.455-.851-20.173.74-29.021" transform="translate(-163.689 -384.548)" fill="#f7cc7f"/>
        <path id="Trazado_829382" data-name="Trazado 829382" d="M18.043,1094.92s-5.411-9.7-6.728-11.761S6.57,1072.9,6.447,1072.581s2.362-4.2,1.807-4.333-1.168,2.044-1.76,1.784-2.32-5.5-2.657-5.241c-.631.487.932,3.251.6,3.425s-1.355-3.041-2.015-2.947,1.256,2.948,1.071,3.2-2.174-2.436-2.534-1.863c-.2.311,1.829,2.347,1.44,2.537S.2,1068.02.014,1068.4s1.666.9,2.221,1.919,1.5,1.463,1.893,3.354.979,8.735,2.991,12.15,6.434,10.972,6.434,10.972Z" transform="translate(0 -881.66)" fill="#f79c8d"/>
        <path id="Trazado_829383" data-name="Trazado 829383" d="M75.757,1221.745s5.986,6.451,6.875,9.051-.867,6.319-3.294,6.482-7.828-11.45-7.828-11.45Z" transform="translate(-59.212 -1011.629)" fill="#355389"/>
        <path id="Trazado_829384" data-name="Trazado 829384" d="M195.432,1360.215c-.436-.364-.962-.2-2.475-.9a9.2,9.2,0,0,0-1.408-.42.173.173,0,0,1-.133-.126c-.46-1.739-2.473-9.78-2.694-12.1-.226-2.371-1.755-12.424-1.989-13.952a.175.175,0,0,0-.22-.142l-4.393,1.225a.175.175,0,0,0-.124.207c.271,1.2,1.96,8.721,2.456,12.529.4,3.035,4.917,12.773,5.008,13.4l0,.017a.381.381,0,0,0,.377.326h4.9c.186,0,.832.05.7-.064" transform="translate(-150.692 -1103.395)" fill="#f48c7f"/>
        <path id="Trazado_829385" data-name="Trazado 829385" d="M179.415,1275.508c-2.338-7.092-4.952-6.79-4.952-6.79l2.022,14.91c1.444-.395,3.324-1.273,4.766-1.681a64.947,64.947,0,0,0-1.835-6.439" transform="translate(-144.459 -1050.522)" fill="#13375b"/>
        <path id="Trazado_829386" data-name="Trazado 829386" d="M119.057,1169.785c-.716-4.664-4.935-8.018-9.349-5.755a10.475,10.475,0,0,0-3.022,2.422c-1.853,2.379-2.327,5.317-4.242,7.626a18.941,18.941,0,0,0,2.566,1.63l1.192-1.589-.41,1.983a29.09,29.09,0,0,0,12.87,2.554,24.741,24.741,0,0,0,.394-8.872" transform="translate(-84.826 -963.24)" fill="#f7cc7f"/>
        <path id="Trazado_829387" data-name="Trazado 829387" d="M154.006,1490.589a18.852,18.852,0,0,0-3.369-1.867c-.14-.068-.651-.394-.835-.507a6.485,6.485,0,0,1-1.34-1.187,6.693,6.693,0,0,1-.656-2.909c.221-2.455,3.779-41.832,4.529-46.095.775-4.4-.405-11.112-.405-11.112l-2.747-1.036-5.214,18.071.411,13.756a36.8,36.8,0,0,0-1.381,6.334c-.155,2.37,1.772,21.6,1.772,21.6h0a10.035,10.035,0,0,1-.1,1.7c-.141.719-.929,2.2-.568,2.877a1.816,1.816,0,0,0,.775.846l9.369.151c.51.008.173-.321-.238-.624" transform="translate(-118.4 -1180.654)" fill="#f48c7f"/>
        <path id="Trazado_829388" data-name="Trazado 829388" d="M56.863,1416.359s-3.253,4.908-4.028,8.97.568,16.545-.922,21.867c-.807,2.881-3.864,7.331-4.329,11.054s-2.082,14.47-2.082,14.47h0a9.487,9.487,0,0,1-1.125,3.172,9.357,9.357,0,0,0-1.226,1.617,4.766,4.766,0,0,0,.165,3.7c.215.47-.015.469.475.62a3.008,3.008,0,0,0,3.612-1.7,8.646,8.646,0,0,0,.709-3.124,14.588,14.588,0,0,1,.513-3.3l10.4-25.51,7.528-22.015,1.929-11.338Z" transform="translate(-35.475 -1171.512)" fill="#f79c8d"/>
        <path id="Trazado_829389" data-name="Trazado 829389" d="M46.153,1781.075a4.612,4.612,0,0,1-4.528-1.9,4.987,4.987,0,0,0-.43,3.708c.371.81,1.454.786,2.307.818a2.226,2.226,0,0,0,2.047-1.255,7.528,7.528,0,0,0,.6-1.375" transform="translate(-33.943 -1473.195)" fill="#86b1f2"/>
        <path id="Trazado_829390" data-name="Trazado 829390" d="M100.708,1449.364l.587.038.03,0,.581.033.035,0,.586.028h.03l.6.022a38.75,38.75,0,0,0,6.724-.254c.9-8.982,1.232-17.18,1.564-18.994.806-4.4-.7-11.345-.7-11.345l-.72-.129.455-2.572-12.083,1.523s-3.383,4.908-4.189,8.97.591,16.544-.958,21.867c0,0,3.449.538,7.461.811" transform="translate(-77.21 -1172.636)" fill="#f7cc7f"/>
        <path id="Trazado_829391" data-name="Trazado 829391" d="M109.153,1261.254s-4.307-.275-6.012,1.587,3.78,16.588,4.09,18.957-1.579,8.669-1.579,8.669,10.119,2.041,13.011.123c0,0,.31-17.037,0-18.73s-2.892-8.575-3.512-9.252-6-1.354-6-1.354" transform="translate(-85.132 -1044.331)" fill="#355389"/>
        <path id="Trazado_829392" data-name="Trazado 829392" d="M140.4,1227.316s-.022.127-.062.343a32.8,32.8,0,0,1-1.431,5.428c-.6,1.144,2.067,4.792,4.638,4.347.765-.133-.647-3.352-.579-3.693.13-.653.306-1.543.486-2.457l.3-1.528c.275-1.4.5-2.536.5-2.536Z" transform="translate(-114.949 -1016.162)" fill="#f7a491"/>
        <path id="Trazado_829393" data-name="Trazado 829393" d="M147.086,1227.66c.04-.216.062-.343.062-.343l3.852-.1s-.224,1.141-.5,2.536c-.1.488-.2,1.007-.3,1.52a3.6,3.6,0,0,1-1.839-.924,4.871,4.871,0,0,1-1.393-2.077c.048-.244.087-.454.117-.615" transform="translate(-121.693 -1016.162)" fill="#f47458"/>
        <path id="Trazado_829394" data-name="Trazado 829394" d="M142.754,1176.7a3.468,3.468,0,0,0-2.954,1.265c-1.138,1.476-2.365,6.038.462,8.518s5.621-.327,6.035-3.3.575-6.586-3.543-6.479" transform="translate(-114.707 -974.325)" fill="#f7a491"/>
        <path id="Trazado_829395" data-name="Trazado 829395" d="M181.095,1206.338c-.337.657-.9,1.022-1.265.813s-.381-.91-.043-1.568.9-1.021,1.265-.813.381.911.043,1.568" transform="translate(-148.667 -997.524)" fill="#f7a491"/>
        <path id="Trazado_829396" data-name="Trazado 829396" d="M134.783,1173.694s-2.426,4.339-4.161,4.539-1.963,2.506-1.963,2.506.62-5.312,2.338-6.337a6.367,6.367,0,0,1,3.786-.708" transform="translate(-106.532 -971.804)" fill="#f7cc7f"/>
        <path id="Trazado_829397" data-name="Trazado 829397" d="M133.979,1200.754c.141.77-.143,1.477-.634,1.578s-1-.442-1.145-1.212.143-1.477.634-1.578,1,.441,1.145,1.212" transform="translate(-109.435 -993.234)" fill="#f7a491"/>
        <path id="Trazado_829398" data-name="Trazado 829398" d="M155.1,1222.921l2.625.516a1.17,1.17,0,0,1-1.418.791c-1.415-.236-1.207-1.308-1.207-1.308" transform="translate(-128.413 -1012.602)" fill="#fff"/>
        <rect id="Rectángulo_382196" data-name="Rectángulo 382196" width="1.095" height="25.101" transform="translate(238.254 286.228) rotate(-10.74)" fill="#3c8f7c"/>
        <path id="Trazado_829399" data-name="Trazado 829399" d="M1116.747,1688.084h-1.295l4.824-24.983,1.076.2Z" transform="translate(-923.616 -1377.08)" fill="#3c8f7c"/>
        <path id="Trazado_829400" data-name="Trazado 829400" d="M1336.5,1688.084H1335.2l4.824-24.983,1.076.2Z" transform="translate(-1105.573 -1377.08)" fill="#3c8f7c"/>
        <path id="Trazado_829401" data-name="Trazado 829401" d="M1169.174,1688.624l1.051.012-4.625-24.883-1.076.2Z" transform="translate(-964.248 -1377.62)" fill="#184655"/>
        <path id="Trazado_829402" data-name="Trazado 829402" d="M1136.943,1347.6c5.746.615,13.182,1.264,20.648,13.933,8.159,13.846,3.864,34.529-2.576,40.276s-27.473,12.844-45.153,2.22c0,0-10.676-6.438-5.2-17.124,8.431-16.443,7.24-19.872,11.01-26.316s9.071-14.3,21.268-12.989" transform="translate(-913.389 -1115.72)" fill="#f47458"/>
        <path id="Trazado_829403" data-name="Trazado 829403" d="M1174.292,1366.946c-5.1-8.647-10.177-11.694-14.717-12.953a38.022,38.022,0,0,1,5.318,7.179c8.159,13.846,3.864,34.529-2.576,40.276-5.711,5.1-22.9,11.253-39.047,5.172a16.414,16.414,0,0,0,3.292,2.822c17.681,10.624,38.714,3.527,45.153-2.22s10.735-26.43,2.576-40.276" transform="translate(-930.09 -1121.132)" fill="#b75742"/>
        <path id="Trazado_829404" data-name="Trazado 829404" d="M1185.5,1470.663l-1.477,4.431,4.5-1.771Z" transform="translate(-980.392 -1217.737)" fill="#f79c8d"/>
        <path id="Trazado_829405" data-name="Trazado 829405" d="M1190.2,1393.995c-.3.013-1.122.287-2.325,2.552-1.535,2.892-3.78,11.629-3.78,11.629l6.7,2.486.861-1.823,1.417-14.039s-2.789-.807-2.872-.8" transform="translate(-980.452 -1154.255)" fill="#6394db"/>
        <path id="Trazado_829406" data-name="Trazado 829406" d="M1226.4,1386.673a41.06,41.06,0,0,0-8.855,1.26s-1.616,13.843,1.455,24.362c.687,2.355-.569,9.761-.569,9.761l19.85-.261s-2.351-17.905-1.465-20.8.907-12.972.907-12.972-.136-.021-4.46-.766a45.069,45.069,0,0,0-6.863-.587" transform="translate(-1007.798 -1148.192)" fill="#86b1f2"/>
        <path id="Trazado_829407" data-name="Trazado 829407" d="M1276.857,1741.806s-.439,5.051-1.246,6.45.043,3.777.085,4.1,1.7.793,4.334.513,2.592-.886,2.38-1.865-1.615-2.238-1.7-3.171a24.256,24.256,0,0,1,.807-4.29Z" transform="translate(-1055.943 -1442.249)" fill="#f7a491"/>
        <path id="Trazado_829408" data-name="Trazado 829408" d="M1151.141,1566.675s-13.7-.758-16.762,1.089.553,5.639.553,5.639,11.155,4.834,29.83,5.908c4.422.254,4.8-11.492,3.977-12.464s-17.6-.172-17.6-.172" transform="translate(-938.269 -1296.98)" fill="#e5b05c"/>
        <path id="Trazado_829409" data-name="Trazado 829409" d="M1278.984,1785.781c2.713-.288,2.377-1.616,2.159-2.625a8.94,8.94,0,0,0-1.379-2.08,4.525,4.525,0,0,1-1.815.88c-1.224.36-2.9-.353-3.969-.8a13.016,13.016,0,0,0-.363,3.488c.044.336,2.655,1.424,5.368,1.136" transform="translate(-1054.569 -1474.765)" fill="#f47458"/>
        <path id="Trazado_829410" data-name="Trazado 829410" d="M1280.495,1577.1c-.548,4.129-3.258,24.681-3.258,24.681l6.289.777s7.734-26.826,7.338-30.929-3.292-4.448-3.292-4.448-5.628-1.01-7.077,9.919" transform="translate(-1057.577 -1297.634)" fill="#f7cc7f"/>
        <path id="Trazado_829411" data-name="Trazado 829411" d="M1227.148,1403.386c-1.856-.694-2.764,15.972-3.014,22.831a81.14,81.14,0,0,1-10.442-.1c-.671-.05-2.218-.615-2.885-.7a6.7,6.7,0,0,0-1.64-.077,31.011,31.011,0,0,0-3.842,1.724c-.363.38-1.346,1.338-1.18,1.752s1.89-1.154,1.89-1.154l.843-.471c-1.049,1.021-3.049,2.366-2.761,2.856s2.085-.887,3.372-1.818c-1.1.993-2.474,2.77-2.158,3.047.284.249,1.843-1.808,3.508-2.4.617-.219,1.233.389,1.718.462a3.517,3.517,0,0,0,1.258.07l1.8-.51c.614.056.63.418,1.25.549.72.153,1.9.314,2.82.537,5.283,1.286,7.044,1.884,8.662,1.883,4.9,0,5.183-26.833.8-28.473" transform="translate(-997.009 -1162.013)" fill="#f7a491"/>
        <path id="Trazado_829412" data-name="Trazado 829412" d="M1322.4,1411.534c.348-7.027.3-15.687-3.656-17.165-1.559-.583-4.308,2.923-3.814,17.307a29.8,29.8,0,0,0,7.47-.143" transform="translate(-1088.743 -1154.516)" fill="#86b1f2"/>
        <path id="Trazado_829413" data-name="Trazado 829413" d="M1146.143,1766.929a3.4,3.4,0,0,1-.434,2.913c-.983,1.16-5.066,2.3-5.6,2.925a1.757,1.757,0,0,0-.5,1.163l11.46-.314-.125-3.449-.528-2.479Z" transform="translate(-943.62 -1463.051)" fill="#f7a491"/>
        <path id="Trazado_829414" data-name="Trazado 829414" d="M1136.483,1785.963s2.945,1.187,4.367.484,1.379-.9,1.791-.635.559,3.786.559,3.786l-12.887.087c-.9-.021-1.35-.679-.621-1.242a10.5,10.5,0,0,1,1.405-.832,40.4,40.4,0,0,1,5.386-1.647" transform="translate(-935.106 -1478.594)" fill="#f47458"/>
        <path id="Trazado_829415" data-name="Trazado 829415" d="M1131.542,1571.264c-.886-1.858-2.9-4.276-6.445-2.82-3.38,1.389-4.288,4.8-3.221,8.3s8.088,24.051,8.333,26.877l5.607.037s-1.019-16.276-1.269-20.21a37.983,37.983,0,0,0-3-12.186" transform="translate(-928.585 -1298.333)" fill="#f7cc7f"/>
        <path id="Trazado_829416" data-name="Trazado 829416" d="M1121.3,1476.908h18.741a1.223,1.223,0,0,1,1.131.758l5.771,14.074h10.332a.523.523,0,1,1,0,1.045h-29.406a2.052,2.052,0,0,1-1.873-1.212l-5.811-12.943a1.222,1.222,0,0,1,1.115-1.722" transform="translate(-927.449 -1222.908)" fill="#355389"/>
        <path id="Trazado_829417" data-name="Trazado 829417" d="M1185.74,1518a1.031,1.031,0,1,0,.773-1.345,1.1,1.1,0,0,0-.773,1.345" transform="translate(-981.794 -1255.806)" fill="#fff"/>
        <path id="Trazado_829418" data-name="Trazado 829418" d="M1258.369,1350.445l.917,6.044s-3.349,7.2-5.348,6.572c-1.677-.524-.645-6.891-.645-6.891s.914-3.42.64-5.131,4.436-.594,4.436-.594" transform="translate(-1037.491 -1117.898)" fill="#f7a491"/>
        <g id="Grupo_1080407" data-name="Grupo 1080407" transform="translate(216.326 232.189)" opacity="0.2">
          <g id="Grupo_1080406" data-name="Grupo 1080406">
            <g id="Grupo_1080405" data-name="Grupo 1080405" clip-path="url(#clip-path-3)">
              <path id="Trazado_829419" data-name="Trazado 829419" d="M1257.962,1351.039c-.274-1.711,4.436-.594,4.436-.594l.076.5a2.785,2.785,0,0,1-.511.842,6.2,6.2,0,0,1-4.119,1.864,9.334,9.334,0,0,0,.117-2.613" transform="translate(-1257.846 -1350.087)" fill="#f47458"/>
            </g>
          </g>
        </g>
        <path id="Trazado_829420" data-name="Trazado 829420" d="M1250.09,1293.363c.133-.048,1.067,6.883-.706,8.791s-5.226,2.532-6.464,1.029c-1.37-1.661-1.3-9.112,1.455-11.074s5.715,1.254,5.715,1.254" transform="translate(-1028.438 -1069.366)" fill="#f7a491"/>
        <path id="Trazado_829421" data-name="Trazado 829421" d="M1250.161,1273.4a7.655,7.655,0,0,1,4.016,2.291c.967.114,2.282.649,3.639,2.9a5.62,5.62,0,0,1-1.507,7.327,4.379,4.379,0,0,0-1.916,3.237l-.307-.9a5.018,5.018,0,0,1-.243-2.114,4.125,4.125,0,0,1,.314-1.271c.467-1-1-1.67-1.416-2.5-.318-.643-.333-2.113-.833-3.175l-.6-.811a3.8,3.8,0,0,0-2.728-.77c-1.349.3-1.155-4.766,1.578-4.208" transform="translate(-1033.176 -1054.361)" fill="#f7cc7f"/>
        <path id="Trazado_829422" data-name="Trazado 829422" d="M1277.214,1325.6c-.014.846.37,1.538.859,1.546s.9-.67.91-1.516-.37-1.538-.859-1.547-.9.67-.91,1.516" transform="translate(-1057.557 -1096.368)" fill="#f7a491"/>
        <path id="Trazado_829423" data-name="Trazado 829423" d="M1250.439,1345.867l-2.671-.138a1.17,1.17,0,0,0,1.182,1.113c1.43.115,1.489-.974,1.489-.974" transform="translate(-1033.176 -1114.29)" fill="#fff"/>
        <path id="Trazado_829424" data-name="Trazado 829424" d="M1572.09,1113.946c.292,1.2.818,3.091.818,3.091-.042.52-.2,2.686-.378,5.34l3.9-1.561a42.1,42.1,0,0,1,.127-4.589c.147-.224.394.055,1.59-1.656a3.339,3.339,0,0,0,.41-1.376s.071-1.086-.173-1.187a.507.507,0,0,0-.612.249c-.088.188-.065.625-.154.813a1.352,1.352,0,0,1-.89.4c-.238-.012.03-3.213.03-3.213s.133-.908.2-1.2c.058-.254.288-1,.288-1s.271-1.078-.064-1.16c-.2-.048-.7.827-1.044,1.756a18.775,18.775,0,0,1-.687,2.047c-.249-.033-.117-1.789-.117-1.789a5.628,5.628,0,0,0,.242-1.184c.234-.465.39-1.328-.023-1.4a7.158,7.158,0,0,0-.62,1.083s-.214.771-.338,1.132c-.22.636-.253,1.64-.368,2.083-.1.368-.182.217-.221.232a9.306,9.306,0,0,1,.084-1.194,7.036,7.036,0,0,1,.089-1.158,8.447,8.447,0,0,0,.167-1.223c.067-.908-.5-.815-.7.015-.075.316-.154.661-.233,1.011-.307,1.361-.3,2.672-.445,2.683a9.874,9.874,0,0,1-.065-2.373s-.292-1.321-.583-.095a10.657,10.657,0,0,0-.3,2.635,10.317,10.317,0,0,0,.071,2.787" transform="translate(-1301.603 -916.061)" fill="#f8a492"/>
        <path id="Trazado_829425" data-name="Trazado 829425" d="M1782.359,1095.6c-.292,1.2-.817,3.091-.817,3.091.042.52.2,2.686.378,5.34l-3.9-1.561a42.14,42.14,0,0,0-.127-4.589c-.147-.224-.394.056-1.59-1.656a3.339,3.339,0,0,1-.41-1.376s-.071-1.086.173-1.187a.506.506,0,0,1,.612.249c.088.188.066.625.154.813a1.351,1.351,0,0,0,.89.4c.238-.012-.03-3.213-.03-3.213s-.132-.908-.2-1.2c-.057-.253-.288-1-.288-1s-.271-1.077.064-1.16c.2-.048.7.827,1.044,1.756a18.778,18.778,0,0,0,.687,2.047c.249-.033.117-1.789.117-1.789a5.62,5.62,0,0,1-.242-1.184c-.234-.465-.39-1.327.023-1.4a7.144,7.144,0,0,1,.62,1.082s.214.771.338,1.132c.22.636.253,1.64.368,2.083.1.368.182.217.221.233a9.265,9.265,0,0,0-.084-1.194,7.024,7.024,0,0,0-.089-1.158,8.423,8.423,0,0,1-.167-1.223c-.067-.908.5-.815.7.015.075.316.154.661.233,1.011.307,1.361.3,2.672.445,2.683a9.886,9.886,0,0,0,.065-2.373s.292-1.321.583-.095a10.684,10.684,0,0,1,.3,2.635,10.316,10.316,0,0,1-.071,2.787" transform="translate(-1470.464 -900.871)" fill="#f8a492"/>
        <path id="Trazado_829426" data-name="Trazado 829426" d="M1736.347,1723.966a29.8,29.8,0,0,0,2.7,3.012c.539.33-.241,4.227-1.708,4.482-.827.144-1.287-.767-1.287-.767l.238-1.122-3.091-3.184Z" transform="translate(-1435.124 -1427.477)" fill="#f7a491"/>
        <path id="Trazado_829427" data-name="Trazado 829427" d="M1670.188,1727.818a29.841,29.841,0,0,0,2.3,3.332c.493.4-.779,4.161-2.267,4.227-.839.037-1.179-.925-1.179-.925l.379-1.083-2.658-3.553Z" transform="translate(-1380.108 -1430.667)" fill="#f7a491"/>
        <path id="Trazado_829428" data-name="Trazado 829428" d="M1671.088,1746.524a22.817,22.817,0,0,1-1.6,1.846,19.068,19.068,0,0,1-1.663,1.342s-1.058,1.92-1.347,2.59c-.644,1.492-1.367,3.154-1.263,3.989.034.268.636.552,1.138.4,2.089-.642,7.432-5.53,8.107-6.842.778-1.513-3.371-3.323-3.371-3.323" transform="translate(-1378.821 -1446.156)" fill="#13375b"/>
        <path id="Trazado_829429" data-name="Trazado 829429" d="M1600.714,1479.17c.194-.543.38-1.046.56-1.518,2.222.485,4.732,1.019,7.315,1.569l.314,9.465c0-.731-1.941,15.1-1.941,15.1s5.017,11.109,8.449,17.584a11.845,11.845,0,0,1-4.109,3.522c-5.327-6.386-12.3-18.072-12.588-20.015-.167-1.118-.316-19.184,2-25.7" transform="translate(-1323.697 -1223.524)" fill="#3c8f7c"/>
        <path id="Trazado_829430" data-name="Trazado 829430" d="M1668.494,1489.461c-.679,7.375-2.188,21.474-2.062,22.608.379,1.414,7.094,14.46,8.3,16.36a8.145,8.145,0,0,1-4.044,3.439c-.315.085-11.4-15.686-12-16.937-.683-1.415-1.821-9.134-1.841-18.691l-.314-9.464c4.3.917,8.258,1.816,11.961,2.686" transform="translate(-1371.641 -1231.078)" fill="#50bfa5"/>
        <path id="Trazado_829431" data-name="Trazado 829431" d="M1609.117,1306.922l5.064.7s4.051.073,4.553.073,3.692,18.5,4.613,25.451.207,8.183.207,8.183-6.421,1.444-11.171,1.023a36.426,36.426,0,0,1-10.5-3.1s4.222-13.36,5.059-17.532,2.172-14.791,2.172-14.791" transform="translate(-1326.392 -1082.157)" fill="#355389"/>
        <path id="Trazado_829432" data-name="Trazado 829432" d="M1572.048,1173.291s-.325,13.774.194,14.827c.755,1.532,9.259,12.4,9.259,12.4s-4.062,17-5.77,22.87c-.172.591-.933,4.41-.933,4.782,0,.825,3.594,1.873,4.02,1.811.382-.055,3.517-16.226,5.519-24.139a22.629,22.629,0,0,1,3.433-7.477l1.392-1.978-10.683-10.708s-1.317-11.919-1.317-12.906c0-.259-4.6-.453-5.115.518" transform="translate(-1301.603 -970.904)" fill="#86b1f2"/>
        <path id="Trazado_829433" data-name="Trazado 829433" d="M1680.218,1177.767l13.322-13.574s1.856-12.836,1.988-13.32,3.438-.732,4.771-.862c.428-.042-.224,13.672-.861,15.97-.753,2.716-10.823,15.088-10.823,15.088s-1.8,6.7-1.37,11.617c.722,8.164,2.668,19.4,2.32,19.748-2.165,1.364-10.474,1.51-11,.663-5.808-9.353,1.654-35.331,1.654-35.331" transform="translate(-1388.051 -952.232)" fill="#86b1f2"/>
        <path id="Trazado_829434" data-name="Trazado 829434" d="M1744.216,1740.894a22.822,22.822,0,0,1-1.352,2.036,19.121,19.121,0,0,1-1.478,1.543s-.8,2.039-1.005,2.741c-.448,1.562-.954,3.446-.744,4.261.067.262.643.761,1.118.452,1.832-1.193,6.727-6.781,7.228-8.168.579-1.6-3.767-2.865-3.767-2.865" transform="translate(-1440.412 -1441.494)" fill="#13375b"/>
        <path id="Trazado_829435" data-name="Trazado 829435" d="M1654.033,1208.116a13.646,13.646,0,0,0,1.7-.034,7.91,7.91,0,0,1,1.922,0,4.335,4.335,0,0,1,3.07,2.2c.65,1.609,2.974,1.369.221,7.471-3.116,6.907-6.757,4.646-6.807,4.49s-1.8-5.851-1.8-5.851-2.179,2.16-2.142,2.064-2.966-10.585,3.839-10.34" transform="translate(-1365.871 -1000.267)" fill="#0e2e35"/>
        <path id="Trazado_829436" data-name="Trazado 829436" d="M1670.578,1275.892l-.363,2.7s-.813,3.893.233,4.644,4.449-4.754,4.449-4.754l-.359-6.847Z" transform="translate(-1382.721 -1052.939)" fill="#f7a491"/>
        <path id="Trazado_829437" data-name="Trazado 829437" d="M1676.369,1273.855a7.752,7.752,0,0,1-4.383,4.328l.308-2.291,3.959-4.256Z" transform="translate(-1384.437 -1052.939)" fill="#f47458"/>
        <path id="Trazado_829438" data-name="Trazado 829438" d="M1659.536,1224.344a3.6,3.6,0,0,0-5.169,1.944,27.431,27.431,0,0,0-.94,3.35c-.651,3.089.37,6.41,1.774,6.677s5.666-1,6.65-5.373c.607-2.7-.271-5.425-2.315-6.6" transform="translate(-1368.903 -1013.391)" fill="#f7a491"/>
        <path id="Trazado_829439" data-name="Trazado 829439" d="M1696.842,1260.743a1.049,1.049,0,1,0,1.247-1.045,1.16,1.16,0,0,0-1.247,1.045" transform="translate(-1404.995 -1043.042)" fill="#f7a491"/>
        <path id="Trazado_829440" data-name="Trazado 829440" d="M1669.133,1225.774s-1.741-.205-1.946-1.452-1.483-4.253-4.514-4.351,3.2-1.336,3.419-1.254,2.8,1.036,2.8,1.036,1.37,2.385,1.374,2.591-.162,2.381-.162,2.381Z" transform="translate(-1376.039 -1009.118)" fill="#0e2e35"/>
        <path id="Trazado_829441" data-name="Trazado 829441" d="M1662.947,1275.619l-3.106-.539a1.378,1.378,0,0,0,1.223,1.472c1.656.338,1.882-.933,1.882-.933" transform="translate(-1374.377 -1055.791)" fill="#fff"/>
        <path id="Trazado_829442" data-name="Trazado 829442" d="M765.179,1343.081a3.175,3.175,0,0,0,.333.808,30.685,30.685,0,0,0,3.189,4.242l1.724-3.883s-.281-1.22-.768-2.963c-1.665.435-3.25.686-4.477,1.8" transform="translate(-633.583 -1110.611)" fill="#f8a492"/>
        <path id="Trazado_829443" data-name="Trazado 829443" d="M755.679,1266.766s-9.614,4.14-9.924,4.061c-.2-.051-3.944-6.317-3.984-12.209-.018-2.721,2.808-5.995,5.961-5.347,1.587.326,1.563.767,3.911,4.18s4.036,9.315,4.036,9.315" transform="translate(-614.2 -1037.664)" fill="#13375b"/>
        <path id="Trazado_829444" data-name="Trazado 829444" d="M867.262,1763.73s-.228,3.776-.229,3.784a20.669,20.669,0,0,0-.414,2.1c0,1.637,7.774-1.39,6.032-2.115-.158-.066-.984-.562-1.036-1.12-.08-.859-.283-2.6-.283-2.6Z" transform="translate(-717.577 -1460.402)" fill="#f7a491"/>
        <path id="Trazado_829445" data-name="Trazado 829445" d="M871.3,1785.225s-1.825.5-2.76.626-2.167-.929-2.828-.644c-.728.313-.7,3.135-.7,3.135s9.788.8,12.54-.028c1.09-.329-2.521-1.922-6.252-3.089" transform="translate(-716.251 -1478.145)" fill="#dd513a"/>
        <path id="Trazado_829446" data-name="Trazado 829446" d="M774.792,1763.73s-.228,3.776-.229,3.784a20.671,20.671,0,0,0-.414,2.1c0,1.637,7.774-1.39,6.032-2.115-.158-.066-1.229-.933-1.281-1.49-.08-.859-.038-2.225-.038-2.225Z" transform="translate(-641.01 -1460.402)" fill="#f7a491"/>
        <path id="Trazado_829447" data-name="Trazado 829447" d="M778.561,1785.225s-1.825.5-2.76.626-2.167-.929-2.828-.644c-.728.313-.757,3.135-.757,3.135s9.832.936,12.6-.028c1.073-.374-2.521-1.922-6.252-3.089" transform="translate(-639.41 -1478.145)" fill="#dd513a"/>
        <path id="Trazado_829448" data-name="Trazado 829448" d="M791.706,1221.162l6.847-9.591c.029-.084.091-.256.186-.518.345-.952,1.062-2.932,1.688-4.9l.007-.021c.2-.689.613-1.89,1.016-3.052.448-1.292,1-2.895,1.022-3.168-.017-.047-.049-.131-.092-.242a22.083,22.083,0,0,1-.71-2.879c-.076-.43-.153-1.474.358-1.474.8,0,.42,1.043.791,1.695a16.458,16.458,0,0,0,.556-2.173l.134-2.039c.026-.154-.138-1.279.425-1.279h.027c.506.037.495,1.233.7,3.255.067-.233.133-.513.183-.771a7.394,7.394,0,0,1,.171-1.067c-.1-.563-.043-1.453.558-1.369.3.042.276,1.283.276,1.283,0,.17-.021,1.482-.012,1.741.062-.44.3-2.317.773-2.317.391,0,.422.505.414.9,0,.237-.25,2.27-.264,2.507.184-.309.4-2.1.584-2.1.762,0,.486,2.548.207,3.212a2.939,2.939,0,0,0-.087.356,6.259,6.259,0,0,1-.653,1.9c-.478.818-1.138,2.118-1.238,2.318-.074.406-.3,1.867-.591,3.7-.123.786-.259,1.649-.4,2.542h-.007c-.026.193-.169.808-.71,3.114a27.511,27.511,0,0,1-.851,3.35c-.322.57-7.7,10.595-8.018,11.021l-.185.251Z" transform="translate(-655.548 -986.6)" fill="#f7a491"/>
        <path id="Trazado_829449" data-name="Trazado 829449" d="M858.315,1226.706s-.556-1.421-1.545-1.424a1.138,1.138,0,0,1,1.027.176,1.959,1.959,0,0,1,.518,1.248" transform="translate(-709.422 -1014.514)" fill="#f47458"/>
        <path id="Trazado_829450" data-name="Trazado 829450" d="M777.843,1216.279l-.881,5.574s3.358,2.7,5.316,2.128c1.642-.477.516-2.625.516-2.625a13.951,13.951,0,0,1-.607-4.535c.268-1.56-4.344-.542-4.344-.542" transform="translate(-643.339 -1006.832)" fill="#f7a491"/>
        <path id="Trazado_829451" data-name="Trazado 829451" d="M781.9,1217.966a13.719,13.719,0,0,0,3.8,1.071,7.4,7.4,0,0,1-.089-2.215c.124-.72-.792-.89-1.814-.865-1.338.115-2.53.324-2.53.324l-.17,1.071a2.772,2.772,0,0,0,.8.614" transform="translate(-646.767 -1006.834)" fill="#fe875e"/>
        <path id="Trazado_829452" data-name="Trazado 829452" d="M757.4,1166.04c-.139,0,1.328,6.227,3.6,7.3s5.653.513,6.288-1.164c.7-1.855-1.859-8.208-5.051-9.015s-4.834,2.88-4.834,2.88" transform="translate(-627.134 -963.023)" fill="#f7a491"/>
        <path id="Trazado_829453" data-name="Trazado 829453" d="M746.7,1145.779a7.146,7.146,0,0,0-2.924,3.231c-.851.4-1.88,1.277-2.374,3.629-.608,2.892,1.552,5.122,3.842,5.793s2.644,2.186,2.644,2.186l.26-1.631a6.454,6.454,0,0,0-1.275-2.131c-.766-.71.363-1.746.462-2.591.076-.65-.4-1.913-.3-2.98a7.367,7.367,0,0,1,2.527-2.4c2.138-.812-.536-4.443-2.862-3.1" transform="translate(-613.811 -948.483)" fill="#13375b"/>
        <path id="Trazado_829454" data-name="Trazado 829454" d="M769.759,1197.831c.3.719.175,1.433-.271,1.595s-1.048-.29-1.345-1.009-.175-1.433.271-1.595,1.048.29,1.345,1.009" transform="translate(-635.903 -990.964)" fill="#f7a491"/>
        <path id="Trazado_829455" data-name="Trazado 829455" d="M827.461,1336.205l13.207-2.153s-1.5-3.783-2.04-3.783-9.986,4.125-9.986,4.125l-.751,1.509Z" transform="translate(-685.154 -1101.489)" fill="#f8a492"/>
        <path id="Trazado_829456" data-name="Trazado 829456" d="M777.293,1414.531a43.482,43.482,0,0,0-.781,11.2c.537,4.829.579,21.985.579,21.985l-2.049,27.449,4.861.106s5.765-27.436,5.657-26.732,1.933-19.318,1.933-19.318l-6.872-15.293Z" transform="translate(-641.75 -1170.759)" fill="#184655"/>
        <path id="Trazado_829457" data-name="Trazado 829457" d="M794.054,1405.511s-.859,5.735.215,8.251,9.21,27.2,9.317,29.207,2.813,24.254,2.813,24.254l5.653-.159,1.223-24.729-2.561-31.079-2.486-7.858Z" transform="translate(-657.222 -1162.041)" fill="#13375b"/>
        <path id="Trazado_829458" data-name="Trazado 829458" d="M776.963,1241.577a5.076,5.076,0,0,0,2.694.809,8.956,8.956,0,0,0,3.138-1.306l-.255-.866s-3.363-.49-3.448-.437-2.129,1.8-2.129,1.8" transform="translate(-643.34 -1026.556)" fill="#f7a491"/>
        <path id="Trazado_829459" data-name="Trazado 829459" d="M863.348,1306.682s5,4.714,7.251,3.909,3.188-3.556-2.314-7.582c-4.924-3.6-4.937,3.672-4.937,3.672" transform="translate(-714.869 -1078.088)" fill="#f8a492"/>
        <path id="Trazado_829460" data-name="Trazado 829460" d="M772.756,1266.826c-.742-4.037-6.12-16.6-6.55-18.915-.209-1.125-3.11-1.15-5.873-1-2.919.155-5.818.524-5.818.524a8.88,8.88,0,0,0-3.721,1.49c-1.137,1.065-1.439,4.011.2,9.6,1.29,4.415,2.889,6.839,3.681,10.054.161,1.079.3,2.143.48,3.386.291,4.808,0,11.16,0,11.16s14.066,2.918,19.328-1.509c0,0-.958-10.653-1.718-14.79" transform="translate(-620.892 -1032.411)" fill="#355389"/>
        <path id="Trazado_829461" data-name="Trazado 829461" d="M828.112,1258.921s-5.519,4.556-5.841,4.556c-.207,0-7.877-5.641-9.647-10.276-.979-2.562,1.074-5.429,3.419-5.419,1.625.007,2.348.425,5.569,3.142s6.5,8,6.5,8" transform="translate(-672.661 -1033.188)" fill="#466eb6"/>
        <path id="Trazado_829462" data-name="Trazado 829462" d="M769.851,545c-1.35-.911-2.732-1.775-4.063-2.712a1.179,1.179,0,0,1-.43-.9c.175-1.878.458-3.747.62-5.626a1,1,0,0,1,.7-1.039c1.848-.723,3.677-1.5,5.512-2.251.3-.122.591-.255,1.1-.478l-2.631-8.457c-2.362.469-4.517.86-6.652,1.34a1.308,1.308,0,0,1-1.647-.616c-.99-1.426-2.179-2.713-3.245-4.09a1.069,1.069,0,0,1-.139-.883c.725-1.878,1.449-3.761,2.287-5.59a1.136,1.136,0,0,0-.585-1.758,5.48,5.48,0,0,1-.82-.639l-4.072-2.19a2.777,2.777,0,0,1-.51-.106c-1.656-.677-1.337-.664-2.278.719-1.146,1.684-2.264,3.388-3.245,4.86l-7.357-.688-2.871-6.968a28.288,28.288,0,0,0-8.43,2.621c.466,2.323.914,4.589,1.379,6.852a.782.782,0,0,1-.339.95c-1.558,1.165-3.089,2.372-4.563,3.641a.921.921,0,0,1-1.155.176c-1.884-.792-3.787-1.541-5.674-2.325a.793.793,0,0,0-1.12.278,25.219,25.219,0,0,0-3.491,6.766c-.172.476.057.683.417.917,1.665,1.082,3.3,2.2,4.975,3.275a.994.994,0,0,1,.533,1.2c-.333,2.151-.54,4.321-.816,6.658l-6.687,2.754a26.369,26.369,0,0,0,2.563,8.551l7.227-1.485c1.392,1.6,2.646,3.129,3.995,4.565a1.264,1.264,0,0,1,.3,1.623c-.794,1.787-1.518,3.6-2.252,5.417-.145.358-.431.775.129,1.071q3.412,1.8,6.824,3.6c.484.255.789.092,1.081-.363,1.089-1.695,2.253-3.343,3.313-5.055.409-.661.849-.686,1.534-.594a46.262,46.262,0,0,0,5.105.461,1.112,1.112,0,0,1,1.252.862c.8,2.1,1.677,4.169,2.507,6.206a25.277,25.277,0,0,0,8.572-2.666c-.468-2.235-.918-4.5-1.432-6.752a.959.959,0,0,1,.47-1.144c1.39-1.094,2.7-2.285,4.082-3.393a1.166,1.166,0,0,1,.968-.185c1.682.659,3.342,1.376,5,2.093.928.4,1.3.566,1.656.328l3.886-7.226c.009-.588-.394-.866-1.486-1.6m-14.44-2.534a13.278,13.278,0,0,1-17.984,5.406h0A13.279,13.279,0,0,1,750,524.485h0a13.279,13.279,0,0,1,5.406,17.984Z" transform="translate(-591.664 -419.747)" fill="#cae1f9"/>
        <path id="Trazado_829463" data-name="Trazado 829463" d="M285.064,780.456c-2.183.213-4.36.5-6.546.671a1.589,1.589,0,0,1-1.22-.566c-1.43-2.1-2.74-4.283-4.184-6.373a1.344,1.344,0,0,1-.169-1.676c1.3-2.336,2.534-4.708,3.791-7.067.2-.383.394-.773.735-1.444l-9.99-6.522c-2.05,2.514-3.951,4.77-5.756,7.1a1.762,1.762,0,0,1-2.239.774c-2.252-.631-4.591-.947-6.879-1.461a1.441,1.441,0,0,1-.9-.8c-.859-2.573-1.723-5.148-2.423-7.766-.336-1.256-.95-1.575-2.117-1.323a7.389,7.389,0,0,1-1.4.04l-6.108,1.221a3.724,3.724,0,0,1-.621.328c-2.3.718-1.958.459-1.748,2.7.256,2.732.558,5.46.8,7.83l-8.229,5.6-8.961-4.771a38.106,38.106,0,0,0-6.5,9.956c2.477,2.012,4.888,3.98,7.312,5.93a1.054,1.054,0,0,1,.463,1.277c-.618,2.547-1.171,5.114-1.612,7.7a1.241,1.241,0,0,1-1.048,1.173c-2.636.794-5.254,1.65-7.887,2.455a1.068,1.068,0,0,0-.924,1.25,33.973,33.973,0,0,0,2.182,10.02c.23.643.645.66,1.219.594,2.657-.305,5.322-.546,7.976-.87a1.339,1.339,0,0,1,1.58.785c1.5,2.519,3.148,4.95,4.868,7.613l-4.578,8.6a35.522,35.522,0,0,0,10,6.679l6.228-7.745c2.821.471,5.433.977,8.066,1.311a1.7,1.7,0,0,1,1.707,1.426c.709,2.536,1.517,5.045,2.311,7.557.157.5.218,1.175,1.053,1q5.089-1.058,10.178-2.114c.721-.15.9-.581.811-1.305-.324-2.694-.53-5.4-.9-8.091-.143-1.037.292-1.441,1.083-1.933a62.376,62.376,0,0,0,5.7-3.9,1.5,1.5,0,0,1,2.04-.18c2.63,1.5,5.319,2.889,7.929,4.292,1.891-1.564,5.708-7.437,6.611-10.125-2.4-1.919-4.817-3.885-7.281-5.782a1.292,1.292,0,0,1-.494-1.591c.5-2.328.845-4.692,1.326-7.026a1.572,1.572,0,0,1,.846-1.023c2.312-.76,4.651-1.44,6.989-2.119,1.307-.38,1.836-.528,2-1.081l-2.168-10.837c-.5-.619-1.152-.561-2.919-.389M267.9,790.218a17.887,17.887,0,1,1-21.048-14.031A17.887,17.887,0,0,1,267.9,790.218" transform="translate(-174.464 -624.265)" fill="#9bc1f9"/>
        <g id="Grupo_1080410" data-name="Grupo 1080410" transform="translate(72.757 79.852)" opacity="0.2">
          <g id="Grupo_1080409" data-name="Grupo 1080409">
            <g id="Grupo_1080408" data-name="Grupo 1080408" clip-path="url(#clip-path-4)">
              <path id="Trazado_829464" data-name="Trazado 829464" d="M456.355,484.324c-.875-.415-1.765-.8-2.631-1.232a.7.7,0,0,1-.333-.491c-.065-1.12-.065-2.244-.137-3.363a.593.593,0,0,1,.316-.673c1.022-.59,2.029-1.207,3.04-1.815.164-.1.324-.2.607-.38l-2.3-4.738c-1.347.486-2.579.909-3.792,1.381a.778.778,0,0,1-1.024-.215c-.709-.75-1.523-1.4-2.273-2.115a.636.636,0,0,1-.16-.507c.259-1.169.516-2.34.846-3.491.158-.552,0-.812-.5-.982a3.272,3.272,0,0,1-.539-.3l-2.59-.924a1.649,1.649,0,0,1-.309-.017c-1.034-.251-.845-.271-1.275.626-.523,1.093-1.029,2.194-1.474,3.147l-4.387.252-2.309-3.841a16.819,16.819,0,0,0-4.723,2.293c.481,1.324.947,2.617,1.422,3.905a.465.465,0,0,1-.115.589c-.812.824-1.6,1.67-2.358,2.548a.548.548,0,0,1-.663.206c-1.178-.3-2.364-.568-3.544-.861a.471.471,0,0,0-.634.263,15.005,15.005,0,0,0-1.449,4.289c-.059.3.094.4.327.5,1.075.488,2.139,1,3.217,1.482a.591.591,0,0,1,.42.656c0,1.294.068,2.589.114,3.988l-3.686,2.216a15.678,15.678,0,0,0,2.269,4.8L429.844,490c.961.819,1.835,1.6,2.756,2.328a.752.752,0,0,1,.322.927c-.307,1.121-.571,2.255-.841,3.386-.053.224-.184.494.171.618l4.334,1.511c.307.107.472-.016.6-.31.489-1.094,1.026-2.166,1.5-3.268.181-.425.438-.479.849-.486a27.562,27.562,0,0,0,3.043-.184.661.661,0,0,1,.813.395c.656,1.164,1.358,2.3,2.027,3.426a15.034,15.034,0,0,0,4.8-2.332c-.475-1.272-.942-2.565-1.444-3.842a.57.57,0,0,1,.174-.715c.72-.767,1.385-1.585,2.1-2.359a.694.694,0,0,1,.553-.2c1.048.237,2.088.511,3.127.785.581.153.815.217,1,.045l1.64-4.6c-.047-.347-.309-.474-1.017-.81m-8.716-.2a7.9,7.9,0,0,1-14.874-5.309h0a7.9,7.9,0,1,1,14.874,5.309" transform="translate(-423.053 -464.311)" fill="#9bc1f9"/>
            </g>
          </g>
        </g>
        <path id="Trazado_829465" data-name="Trazado 829465" d="M523.349,1652.244l-2.6-.01c.343-11.34.645-28.563.072-29.529a.421.421,0,0,0,.173.13l2.109-.55c.341.172.547.275.618,5.1.037,2.482.023,5.909-.042,10.186-.109,7.281-.329,14.6-.331,14.676" transform="translate(-431.191 -1343.282)" fill="#355389"/>
        <rect id="Rectángulo_382199" data-name="Rectángulo 382199" width="1.038" height="51.695" transform="translate(28.671 258.812)" fill="#13375b"/>
        <path id="Trazado_829466" data-name="Trazado 829466" d="M476.712,1292.4a13.912,13.912,0,0,1,1.271-6.705,5.685,5.685,0,0,1,5.068-2.887c6.337-.008,7.142,8.364,11.176,11.594,1.232.987,2.61,1.79,3.776,2.854,4.307,3.93,2.367,11.2-1.588,14.649-2.744,2.391-7.057,3.749-10.439,1.88a10.637,10.637,0,0,1-4.06-4.374,59.81,59.81,0,0,1-3.193-8.118,30.3,30.3,0,0,1-2.012-8.892" transform="translate(-394.714 -1062.187)" fill="#13375b"/>
        <path id="Trazado_829467" data-name="Trazado 829467" d="M356.559,1416.054l13.789-3.845s2.905-3.9,6.643-9.137c1.222,1.21,1.9,3.068,3.132,4.266l-9.128,10.1a1.744,1.744,0,0,1-1.288.574l-12.672.042-4.336.346v-2.775Z" transform="translate(-292.042 -1161.771)" fill="#f48c7f"/>
        <path id="Trazado_829468" data-name="Trazado 829468" d="M468.411,1404.272s4.732-4.853,5.95-6.961-.829-.736-2.92-1.291c-.792-.21-.591-4.85-2.088-3.342a68.815,68.815,0,0,0-5.543,6.8Z" transform="translate(-384.043 -1152.916)" fill="#96d9c9"/>
        <path id="Trazado_829469" data-name="Trazado 829469" d="M489.64,1380.706s4.247-.838,6.185.781-.415,16.016-.413,18.4a79.882,79.882,0,0,0,1.331,9.129s-12.872,2.253-14.917-1.329c0,0-.582-13.65-.495-15.366a47.592,47.592,0,0,1,2.523-9.488c.528-.752,5.787-2.129,5.787-2.129" transform="translate(-398.544 -1143.072)" fill="#50bfa5"/>
        <path id="Trazado_829470" data-name="Trazado 829470" d="M511.242,1343.088s.022.127.062.343a32.679,32.679,0,0,0,1.436,5.421c.606,1.142-2.073,4.786-4.652,4.341-.768-.132.649-3.348.581-3.688-.13-.652-.307-1.542-.488-2.454-.1-.515-.205-1.036-.3-1.527-.276-1.393-.5-2.533-.5-2.533Z" transform="translate(-420.119 -1112.023)" fill="#f7a491"/>
        <path id="Trazado_829471" data-name="Trazado 829471" d="M511.305,1343.431c-.04-.216-.063-.343-.063-.343l-3.864-.1s.225,1.139.5,2.533c.1.488.2,1.006.3,1.518a3.625,3.625,0,0,0,1.844-.923,4.864,4.864,0,0,0,1.4-2.074c-.048-.244-.087-.454-.117-.615" transform="translate(-420.12 -1112.023)" fill="#f47458"/>
        <path id="Trazado_829472" data-name="Trazado 829472" d="M496.642,1292.539a3.486,3.486,0,0,1,2.963,1.263c1.142,1.473,2.372,6.03-.464,8.507s-5.637-.327-6.053-3.3-.577-6.578,3.554-6.47" transform="translate(-408.119 -1070.239)" fill="#f7a491"/>
        <path id="Trazado_829473" data-name="Trazado 829473" d="M488.016,1322.137c.338.657.907,1.02,1.269.812s.382-.909.043-1.566-.906-1.02-1.269-.812-.382.909-.043,1.566" transform="translate(-403.887 -1093.41)" fill="#f7a491"/>
        <path id="Trazado_829474" data-name="Trazado 829474" d="M513.539,1289.536s2.433,4.333,4.173,4.533,1.969,2.5,1.969,2.5-.622-5.305-2.345-6.328a6.41,6.41,0,0,0-3.8-.708" transform="translate(-425.22 -1067.722)" fill="#13375b"/>
        <path id="Trazado_829475" data-name="Trazado 829475" d="M534.977,1316.56c-.142.77.143,1.475.636,1.576s1.007-.441,1.148-1.21-.143-1.475-.636-1.576-1.007.441-1.148,1.21" transform="translate(-442.941 -1089.125)" fill="#f7a491"/>
        <path id="Trazado_829476" data-name="Trazado 829476" d="M439.944,1723.35s3.907,4.685,3.933,5.093-.155,4.857-.62,5.265-1.83.7-1.391,1.155c.332.347,2.883.273,4.575.179.494-.027,1.113-3.966,1.308-4.545.284-.841.975-2.735.716-3.321a4.921,4.921,0,0,0-1.576-1.42c-.892-.576-4.3-5.323-4.3-5.323Z" transform="translate(-364.282 -1424.552)" fill="#f48c7f"/>
        <path id="Trazado_829477" data-name="Trazado 829477" d="M453.474,1751.225s-2.624,7.387-3.651,7.744c-.273.095-1.581.335-1.828.914a2.5,2.5,0,0,0,0,.757h5.468s.692-3.255.965-4.685c0,0,1.448-3.494,1.287-3.812s-2.242-.917-2.242-.917" transform="translate(-370.922 -1450.048)" fill="#b75742"/>
        <path id="Trazado_829478" data-name="Trazado 829478" d="M238.743,1739.646s-3.191,4.492-2.91,5.913c.15.761.82,1.757.435,2.473a1.925,1.925,0,0,1-.823.9l-9.953.16c-.542.009-.184-.339.253-.66a20.048,20.048,0,0,1,3.579-1.976c.149-.072.692-.416.887-.536a6.879,6.879,0,0,0,1.424-1.255c.715-.794,3.857-7.265,3.857-7.265Z" transform="translate(-186.485 -1438.597)" fill="#f7a491"/>
        <path id="Trazado_829479" data-name="Trazado 829479" d="M226.761,1785.862a9.025,9.025,0,0,0,5.667-.222,4.557,4.557,0,0,1,.456,2.365c-.242.7-.586.862-.89.87-2.4.063-8.807.149-10.641.173a.3.3,0,0,1-.233-.491c.455-.542,5.445-2.574,5.641-2.694" transform="translate(-183.033 -1478.544)" fill="#b75742"/>
        <path id="Trazado_829480" data-name="Trazado 829480" d="M345.034,1547.034a71.232,71.232,0,0,0,4.959,5.224c1.008.714,10.678,18.523,10.678,18.523l-3.445,2.515s-8.643-10.777-12.7-16.541c-3.432-4.874-2.168-4.565-4.186-7.532a3.963,3.963,0,0,1,.606-5.167q.273-.248.6-.517c2.987-2.49,23.466-5.292,23.466-5.292l13.1,1.283s-10.7,7.5-11.1,7.7-14.778,2.3-15.078,2.3-6.89-2.5-6.89-2.5" transform="translate(-281.235 -1273.698)" fill="#b75742"/>
        <path id="Trazado_829481" data-name="Trazado 829481" d="M325.081,1544.025s2.247,6.74-1.123,9.886-23.391,2.8-29.981,2.8c0,0-2.7,7.389-3,8.588s-13.38,16.676-13.38,16.676l-3.595-2.3s14.079-27.36,15.178-28.558,16.775-5.991,20.67-7.09,15.228,0,15.228,0" transform="translate(-226.881 -1278.078)" fill="#f47458"/>
        <path id="Trazado_829482" data-name="Trazado 829482" d="M400.934,1413.365l11.956-2.645s4.324-5.556,8.476-10.337c1.222,1.209,1.9,3.068,3.132,4.266l-9.128,10.1a1.743,1.743,0,0,1-1.288.574l-12.671.042-4.336.346v-2.775Z" transform="translate(-328.786 -1159.544)" fill="#f7a491"/>
        <path id="Trazado_829483" data-name="Trazado 829483" d="M512.786,1395.39s4.732-4.853,5.95-6.961.315-5.64-1.777-6.195-8.775,8.365-8.775,8.365Z" transform="translate(-420.786 -1144.496)" fill="#96d9c9"/>
        <path id="Trazado_829484" data-name="Trazado 829484" d="M270.5,1396.734h19.718a1.285,1.285,0,0,1,1.189.8l6.071,14.807h10.87a.55.55,0,1,1,0,1.1H277.412a2.16,2.16,0,0,1-1.97-1.275l-6.113-13.618a1.286,1.286,0,0,1,1.173-1.812" transform="translate(-222.914 -1156.523)" fill="#b75742"/>
        <path id="Trazado_829485" data-name="Trazado 829485" d="M338.294,1439.968a1.085,1.085,0,1,0,.814-1.415,1.16,1.16,0,0,0-.814,1.415" transform="translate(-280.091 -1191.134)" fill="#fff"/>
        <path id="Trazado_829486" data-name="Trazado 829486" d="M219.221,1496.368H160.312a1.249,1.249,0,1,1,0-2.5h58.909a1.249,1.249,0,1,1,0,2.5" transform="translate(-131.707 -1236.954)" fill="#184655"/>
        <path id="Trazado_829487" data-name="Trazado 829487" d="M508.351,1339.216l2.672-.138a1.17,1.17,0,0,1-1.182,1.113c-1.431.116-1.49-.974-1.49-.974" transform="translate(-420.924 -1108.782)" fill="#fff"/>
        <path id="Trazado_829488" data-name="Trazado 829488" d="M452.2,1559.572l1.206-5.022a8.147,8.147,0,0,1,7.564-6.214l15.28-.618.472-1.555-15.814.639a9.689,9.689,0,0,0-8.994,7.389l-1.282,5.336c.434.019.964.033,1.568.044" transform="translate(-373.134 -1280.253)" fill="#355389"/>
        <path id="Trazado_829489" data-name="Trazado 829489" d="M454.386,1466.242s-20.994.359-23.182,0-3.136,2.385-2.483,3.822,2.45,1.993,5.1,2.123,24.663.751,25.284.163c.507-.48,7.182-23.3,9.61-31.644a3.15,3.15,0,0,0-6.041-1.791Z" transform="translate(-354.821 -1189.598)" fill="#184655"/>
        <rect id="Rectángulo_382200" data-name="Rectángulo 382200" width="1.038" height="51.695" transform="translate(86.481 258.812)" fill="#13375b"/>
        <rect id="Rectángulo_382201" data-name="Rectángulo 382201" width="58.588" height="0.556" transform="translate(28.671 262.158)" fill="#13375b"/>
        <path id="Trazado_829490" data-name="Trazado 829490" d="M1392.641,58.526s7.611,4.927,26.371,4.257c0,0-20.107,7.593-27.969,8.768l-3.235-12.78Z" transform="translate(-1149.131 -48.461)" fill="#e25a44"/>
        <path id="Trazado_829491" data-name="Trazado 829491" d="M1403.688,80.093a19.384,19.384,0,0,1-5.185,6.589l-1.686-6.66.109-3.222Z" transform="translate(-1156.591 -63.593)" fill="#b75742"/>
        <path id="Trazado_829492" data-name="Trazado 829492" d="M1268.544,12.6s21.98-1.486,25.4-.23l3.533,13.955a69.343,69.343,0,0,0-24.7,2.99Z" transform="translate(-1050.379 -9.826)" fill="#f47458"/>
        <path id="Trazado_829493" data-name="Trazado 829493" d="M1156.032,906.146s-1.059,1.728-.963,2.24,1.369,5.931,2.071,6.289,2.479.288,2.08.992c-.3.532-3.477,1.239-5.6,1.653-.619.121-2.615-4.552-3.038-5.206-.614-.95-2.059-3.074-1.924-3.878a6.274,6.274,0,0,1,1.5-2.247,9.875,9.875,0,0,0,1.575-2.843Z" transform="translate(-951.107 -747.822)" fill="#f48c7f"/>
        <path id="Trazado_829494" data-name="Trazado 829494" d="M1279.255,911.319s-.358,3.874-.358,3.884c.049.587.033,2.072.163,2.584.487,1.924,8.262-3.829,6.1-4.19a2.119,2.119,0,0,1-1.127-1.149,4.646,4.646,0,0,1,.155-2.459Z" transform="translate(-1058.951 -753.489)" fill="#f7a491"/>
        <path id="Trazado_829495" data-name="Trazado 829495" d="M1201.6,512.724s2.246,6.214,2.27,6.309c2.61,10.311,9.753,29.933,9.856,31.97.249,4.968-3.85,31.671-3.85,31.671l-5.683.737-.124-30.7-5.588-10.953-9.56-22.028Z" transform="translate(-984.451 -424.545)" fill="#3c8f7c"/>
        <path id="Trazado_829496" data-name="Trazado 829496" d="M1160,529.827l.483,6.306,3.463,25.579-4.632,27.029s2.412,3.152,4.776,3.082l10.847-29.293,2.579-34.622-2.17-7Z" transform="translate(-959.938 -431.324)" fill="#50bfa5"/>
        <path id="Trazado_829497" data-name="Trazado 829497" d="M1145.822,919.374s5.552,8.306,6.932,8.425c.367.032,2.058-.081,2.544.557a7.689,7.689,0,0,1,.456,1.154l-6.966,2s-1.883-4.318-2.668-6c0,0-2.881-3.864-2.782-4.307s2.483-1.834,2.483-1.834" transform="translate(-946.704 -761.26)" fill="#13375b"/>
        <path id="Trazado_829498" data-name="Trazado 829498" d="M1277.83,936.084l.212-3.615a8.9,8.9,0,0,0,3.316-.057,32.634,32.634,0,0,0,2.894-1.515c4.511.316,8.091.118,7.749,1.378Z" transform="translate(-1058.068 -770.8)" fill="#13375b"/>
        <path id="Trazado_829499" data-name="Trazado 829499" d="M1340.508,360.289l3,2.3c.579-.446,1.844-2.325,2.664-2.91l-2.744-2.994a.793.793,0,0,1-.321-.717,2.479,2.479,0,0,1,.075-.462c.085-.237.162-.519.248-.756s-.481-.712-.779-.8-.4,1.057-.525,1.4a37,37,0,0,0-.948,4.288Z" transform="translate(-1109.966 -293.081)" fill="#f48c7f"/>
        <path id="Trazado_829500" data-name="Trazado 829500" d="M1205.071,391.221c-.844-.9-2.034-1.405-2.917-2.34l-13.331,9.179s-10.306-12.187-15.9-7.869a92.913,92.913,0,0,0,6.922,9.959c3.423,4.238,8.648,6.26,9.669,5.792,1.15-.527,15.261-14.358,15.56-14.721" transform="translate(-971.201 -322.001)" fill="#13375b"/>
        <path id="Trazado_829501" data-name="Trazado 829501" d="M1018.406,186.005c.441,1.175,1.2,3.023,1.2,3.023.021.531.131,2.738.271,5.442l3.751-2.054a42.847,42.847,0,0,1-.432-4.653c.121-.244.405.008,1.4-1.867a3.4,3.4,0,0,0,.246-1.441s-.061-1.106-.32-1.179a.516.516,0,0,0-.588.326c-.066.2.01.64-.056.84a1.375,1.375,0,0,1-.85.515c-.242.017-.363-3.25-.363-3.25s.023-.934.055-1.242c.027-.263.169-1.042.169-1.042s.142-1.122-.207-1.164c-.205-.025-.606.921-.84,1.9a19.086,19.086,0,0,1-.444,2.153c-.256,0-.337-1.793-.337-1.793a5.731,5.731,0,0,0,.1-1.225c.18-.5.232-1.389-.194-1.41a7.276,7.276,0,0,0-.494,1.169s-.122.806-.2,1.185c-.144.669-.055,1.688-.117,2.149-.051.384-.157.242-.195.262a9.348,9.348,0,0,1-.062-1.217,7.159,7.159,0,0,1-.052-1.181,8.621,8.621,0,0,0,.019-1.256c-.044-.925-.61-.762-.708.1-.037.329-.075.687-.112,1.05-.144,1.413.025,2.737-.122,2.765a10.054,10.054,0,0,1-.356-2.39s-.457-1.3-.6-.025a10.86,10.86,0,0,0,.022,2.7,10.492,10.492,0,0,0,.412,2.807" transform="translate(-842.841 -147.292)" fill="#f8a492"/>
        <path id="Trazado_829502" data-name="Trazado 829502" d="M1129.323,287.393a2.173,2.173,0,0,0-3.564.9,1.616,1.616,0,0,0-2.049.8s-2.328-.4-2.467,3.02c0,0-1.182-.078-1.169,1.314a3.424,3.424,0,0,0,.822,2.224,1.659,1.659,0,0,0-.143,1.793,1.574,1.574,0,0,0,1.289,1.1s.459,1.781,1.31,2.231a2.578,2.578,0,0,0,1.888.059,1.219,1.219,0,0,0,1.308.749c.905-.2,1.933-1.207,3.006-.939a11.029,11.029,0,0,0,3.683-.468s2.827-1.692,1.563-4.637a2.249,2.249,0,0,0-.181-3.142s.681-2.782-1.493-4.112a5.214,5.214,0,0,0-3.8-.89" transform="translate(-927.443 -237.455)" fill="#f47458"/>
        <path id="Trazado_829503" data-name="Trazado 829503" d="M1159.326,390.874l-4.6-2.368s-4.09.6-4.6.658-1.463,19.115-1.543,26.253.791,8.294.791,8.294,6.664.674,11.412-.332a37.068,37.068,0,0,0,10.227-4.42s-5.9-12.983-7.255-17.1-4.431-10.989-4.431-10.989" transform="translate(-951.044 -321.691)" fill="#f7cc7f"/>
        <path id="Trazado_829504" data-name="Trazado 829504" d="M1044.354,268.636l-15.12-12.086s-3.445-12.742-3.637-13.215-3.563-.319-4.926-.287c-.437.01,1.9,13.786,2.823,16.031,1.093,2.652,12.78,13.922,12.78,13.922s2.643,6.55,2.8,11.57c.269,8.337-.325,19.923.071,20.236,2.354,1.113,10.768.245,11.2-.675,4.724-10.161-5.991-35.5-5.991-35.5" transform="translate(-845.091 -201.21)" fill="#13375b"/>
        <path id="Trazado_829505" data-name="Trazado 829505" d="M1160.444,355.991l.689,2.65s1.283,3.783.327,4.658-5.024-4.2-5.024-4.2l-.467-6.871Z" transform="translate(-957.164 -291.651)" fill="#f7a491"/>
        <path id="Trazado_829506" data-name="Trazado 829506" d="M1156.121,354.454a7.8,7.8,0,0,0,4.907,3.785l-.584-2.247-4.475-3.764Z" transform="translate(-957.164 -291.651)" fill="#f47458"/>
        <path id="Trazado_829507" data-name="Trazado 829507" d="M1120.221,319.3c.126,1.04.819,1.811,1.549,1.723s1.219-1,1.093-2.043-.819-1.811-1.548-1.723-1.219,1-1.093,2.042" transform="translate(-927.548 -262.689)" fill="#f47458"/>
        <path id="Trazado_829508" data-name="Trazado 829508" d="M1140.481,296.618c.072.6.85.995,1.738.888s1.548-.679,1.476-1.276-.85-1-1.738-.888-1.548.679-1.476,1.276" transform="translate(-944.336 -244.534)" fill="#f47458"/>
        <path id="Trazado_829509" data-name="Trazado 829509" d="M1151.127,307.085a3.627,3.627,0,0,1,5.059,2.3,27.451,27.451,0,0,1,.711,3.421c.438,3.14-.821,6.4-2.25,6.573s-5.625-1.386-6.308-5.836c-.422-2.748.652-5.42,2.788-6.457" transform="translate(-950.772 -253.975)" fill="#f7a491"/>
        <path id="Trazado_829510" data-name="Trazado 829510" d="M1145.194,342.192a1.056,1.056,0,1,1-1.18-1.133,1.168,1.168,0,0,1,1.18,1.133" transform="translate(-946.531 -282.399)" fill="#f7a491"/>
        <path id="Trazado_829511" data-name="Trazado 829511" d="M1178.236,292.1c1.617.991,2.35,2.7,1.636,3.829s-2.6,1.232-4.222.241-2.35-2.7-1.635-3.829,2.6-1.232,4.222-.241" transform="translate(-971.88 -241.299)" fill="#f47458"/>
        <path id="Trazado_829512" data-name="Trazado 829512" d="M1164.9,299.945c.061.508-.5.994-1.259,1.086s-1.42-.246-1.482-.754.5-.995,1.259-1.086,1.42.246,1.482.754" transform="translate(-962.284 -247.724)" fill="#f47458"/>
        <path id="Trazado_829513" data-name="Trazado 829513" d="M1193.273,318.463a1.178,1.178,0,1,1-1.313-1.041,1.185,1.185,0,0,1,1.313,1.041" transform="translate(-986.108 -262.824)" fill="#f47458"/>
        <path id="Trazado_829514" data-name="Trazado 829514" d="M1194.147,394.55s6.392,15.108,8.665,20.432c.246.576,1.482,4.342,1.528,4.718.1.834-3.4,2.332-3.84,2.322-.393-.009-5.538-15.965-8.528-23.715a23.047,23.047,0,0,0-4.384-7.135l-1.452-1.2-.14-.449s6.49.578,8.151,5.025" transform="translate(-982.027 -322.534)" fill="#13375b"/>
        <rect id="Rectángulo_382202" data-name="Rectángulo 382202" width="1.182" height="106.137" transform="translate(216.927 0.29) rotate(-14.208)" fill="#13375b"/>
        <path id="Trazado_829515" data-name="Trazado 829515" d="M1357.492,363.842a3.6,3.6,0,0,0-.208-.693,1.973,1.973,0,0,0-.4-.634,1.207,1.207,0,0,1-.2-.42.743.743,0,0,0-.09-.167l0,0a1.678,1.678,0,0,0-.393-.379,1.776,1.776,0,0,1-.424-.46,1.269,1.269,0,0,0-.476-.419c-.19-.093-.335-.1-.4.022-.314.54-1.886,2.263-1.249,3.1a19.9,19.9,0,0,1,1.371,1.753c.2.452.888.421,1.3.263a1.574,1.574,0,0,0,1.173-1.959" transform="translate(-1120.722 -298.583)" fill="#f7a491"/>
        <path id="Trazado_829516" data-name="Trazado 829516" d="M1235.74,253.842a.243.243,0,0,1,.38-.059c.166.172.334.341.5.511.37.376.373.4.428.393.133-.02.137-.26.13-.348a2.872,2.872,0,0,1-.054-.586.43.43,0,0,1,.721-.325c.291.236.57.492.846.747.022-.42.032-.842.06-1.262a.167.167,0,0,1,.278-.123l1.277,1c.065.051.342.325.421.275s.066-.338.073-.4c.04-.36.059-.487.215-1.657a.2.2,0,0,1,.323-.1c.9,1.076,1.036.964,1.117,1.286a.092.092,0,0,1-.108.114c-.173-.018-.213-.034-.662-.468q-.174-.168-.34-.345c-.162,1.424-.169,1.787-.525,1.894-.247.074-.289,0-1.736-1.14,0,.442-.027.882-.046,1.325a.189.189,0,0,1-.316.141c-1.036-.853-1.028-.917-1.14-.968,0,0,0-.078-.019.032-.031.187.147.591.016.93a.572.572,0,0,1-.758.371c-.184-.09-.234-.181-.788-.713a4.929,4.929,0,0,1-.627.981.768.768,0,0,1-.37.274.2.2,0,0,1-.254-.239c.128-.4.489-.5.957-1.544" transform="translate(-1022.418 -208.54)" fill="#f47458"/>
        <path id="Trazado_829517" data-name="Trazado 829517" d="M1206.35,215.041a6.647,6.647,0,0,0,1.178.1c.078,0,.222.016.272-.061.122-.187-.2-.477-.338-1.209-.062-.317-.216-.968.21-1.1a2.385,2.385,0,0,1,.716-.009c.171,0,.342,0,.512,0-.3-1.189-.375-1.123-.253-1.389a.15.15,0,0,1,.2-.06c.239.159.17.126.569,1.622a.234.234,0,0,1-.215.3c-.231-.006-1.277-.09-1.407-.079.008.012,0,.069,0,.081a3.84,3.84,0,0,0,.348,1.364c.142.37.133.869-.338.973a4.638,4.638,0,0,1-1.182-.027c.213.725.431,1.448.639,2.174a.257.257,0,0,1-.237.327c-.467-.042-.935-.068-1.4-.09a4.336,4.336,0,0,0,.576,1.2c.186.271-.2.6-.618-.114a4.2,4.2,0,0,1-.537-1.283.259.259,0,0,1,.237-.328c.464.009.928.039,1.391.077-.2-.724-.4-1.451-.6-2.175a.238.238,0,0,1,.279-.3" transform="translate(-997.793 -174.962)" fill="#66ccb2"/>
        <path id="Trazado_829518" data-name="Trazado 829518" d="M1147.931,198.4a.239.239,0,0,1-.238-.223,5.531,5.531,0,0,1,0-1.9c.067-.331.549-.207.5.117a6.727,6.727,0,0,0-.069,1.547,5.164,5.164,0,0,0,1.116-.142.246.246,0,0,1,.312.226c-.025.41-.164,1.96-.181,1.973a.078.078,0,0,1,.041,0c.161.032.717-.082.969-.067.282.018.373.4.387.633.029.47-.321.986-.157,1.446.158.442.853-.045,1.372.316.4.278.262.747.1,1.487a.571.571,0,0,1-.261.448.123.123,0,0,1-.145-.016c-.2-.226-.1-.492.037-1.169.017-.086.072-.231.012-.309-.2-.258-.788.109-1.262-.2a1.084,1.084,0,0,1-.363-1.115c.048-.314.24-.7.139-1.02-.269.014-.541.036-.809.029a.463.463,0,0,1-.506-.462,8.132,8.132,0,0,1,.066-1.006c.017-.222.034-.445.053-.667a5.817,5.817,0,0,1-1.11.074" transform="translate(-950.242 -162.359)" fill="#07345a"/>
        <path id="Trazado_829519" data-name="Trazado 829519" d="M1251.264,299.754c1.12,1.435.065,2.131-.4,1.715a.393.393,0,0,1,.025-.638c.108-.069.281.04.237.172-.037.109.087.138.138.022.069-.156-.042-.349-.11-.486-.159-.319-.362-.736-.756-.8-.588-.093-1.225.495-.9,1.393a1.587,1.587,0,0,0,2.943-.075,1.93,1.93,0,0,0-.686-2.009c-.117-.091.026-.247.144-.2a1.926,1.926,0,0,1,.885,2.416,1.955,1.955,0,0,1-2.2,1.165,1.86,1.86,0,0,1-1.606-2,1.28,1.28,0,0,1,2.292-.68" transform="translate(-1034.161 -247.448)" fill="#3c8f7c"/>
        <path id="Trazado_829520" data-name="Trazado 829520" d="M1119.289,232.548c.155.234.243.71-.074.858a.259.259,0,0,1-.376-.146c-.05-.167.042-.319-.108-.45a.347.347,0,0,0-.438.047c-.365.3-.271.95-.081,1.319a.88.88,0,0,0,1.536.089,1.988,1.988,0,0,0,.217-.639c.031-.121.225-.176.287-.046a1.184,1.184,0,0,1-.524,1.39,1.407,1.407,0,0,1-1.52-.023,1.817,1.817,0,0,1-.71-1.559c.042-1.2,1.288-1.6,1.79-.841" transform="translate(-925.31 -192.235)" fill="#f7cc7f"/>
        <path id="Trazado_829521" data-name="Trazado 829521" d="M797.477,1205.284a1.17,1.17,0,0,0,1.587.343c1.285-.64.773-1.6.773-1.6Z" transform="translate(-660.326 -996.954)" fill="#fff"/>
        <path id="Trazado_829522" data-name="Trazado 829522" d="M1175.794,359.235a1.169,1.169,0,0,0,1.282,1c1.435-.021,1.391-1.111,1.391-1.111Z" transform="translate(-973.58 -297.358)" fill="#fff"/>
      </g>
    </g>
  </g>
</svg>
