<svg id="Grupo_1080565" data-name="Grupo 1080565" xmlns="http://www.w3.org/2000/svg" xmlns:xlink="http://www.w3.org/1999/xlink" width="190.918" height="197.402" viewBox="0 0 190.918 197.402">
  <defs>
    <clipPath id="clip-path">
      <rect id="Rectángulo_382350" data-name="Rectángulo 382350" width="190.918" height="197.402" fill="none"/>
    </clipPath>
    <clipPath id="clip-path-5">
      <rect id="Rectángulo_382342" data-name="Rectángulo 382342" width="8.164" height="17.389" fill="none"/>
    </clipPath>
    <clipPath id="clip-path-6">
      <rect id="Rectángulo_382343" data-name="Rectángulo 382343" width="15.259" height="9.549" fill="none"/>
    </clipPath>
  </defs>
  <g id="Grupo_1080564" data-name="Grupo 1080564" clip-path="url(#clip-path)">
    <g id="Grupo_1080545" data-name="Grupo 1080545">
      <g id="Grupo_1080544" data-name="Grupo 1080544" clip-path="url(#clip-path)">
        <path id="Trazado_829757" data-name="Trazado 829757" d="M339.707,338.39a12.778,12.778,0,0,0-5.466-1.882,3.645,3.645,0,0,0-2.586.475.531.531,0,0,0-.266.472.573.573,0,0,0,.253.323,7.815,7.815,0,0,0,8.065.611" transform="translate(-183.77 -186.589)" fill="#e0e0e0"/>
        <path id="Trazado_829758" data-name="Trazado 829758" d="M342.521,329.768a26.674,26.674,0,0,1-3.531-3.107,8.929,8.929,0,0,1-2.213-4.093,1.651,1.651,0,0,1,.175-1.37c2.814,2.2,5.025,5.04,5.569,8.57" transform="translate(-186.724 -178.121)" fill="#e0e0e0"/>
        <path id="Trazado_829759" data-name="Trazado 829759" d="M349.78,330.2a12.762,12.762,0,0,1,.065-4.635,6.267,6.267,0,0,1,2.469-3.825,5.473,5.473,0,0,1-.066,3.634,17.65,17.65,0,0,1-2.448,5.155" transform="translate(-193.872 -178.423)" fill="#e0e0e0"/>
        <path id="Trazado_829760" data-name="Trazado 829760" d="M347.618,351.833a8.077,8.077,0,0,0-4.384,2.219,8.287,8.287,0,0,0-2.507,4.3,5.914,5.914,0,0,0,4.046-2.559c1.011-1.3,1.711-2.724,2.822-3.939" transform="translate(-188.951 -195.11)" fill="#e0e0e0"/>
        <path id="Trazado_829761" data-name="Trazado 829761" d="M356.6,340.876a10.81,10.81,0,0,1,1.248-10.227,13.023,13.023,0,0,1-1.248,10.227" transform="translate(-197.337 -183.362)" fill="#e0e0e0"/>
        <path id="Trazado_829762" data-name="Trazado 829762" d="M356.277,363.334a7.818,7.818,0,0,0-7.475,4.3c-.093.185-.174.42-.05.586a.556.556,0,0,0,.5.146,6.5,6.5,0,0,0,3.856-1.991,37.029,37.029,0,0,1,3.207-3.048" transform="translate(-193.366 -201.479)" fill="#e0e0e0"/>
        <path id="Trazado_829763" data-name="Trazado 829763" d="M364.684,349.926a13.916,13.916,0,0,1-.139-7.777,3.792,3.792,0,0,1,1.66-2.525.326.326,0,0,1,.254-.045.336.336,0,0,1,.16.186A4.683,4.683,0,0,1,367.01,342a13.977,13.977,0,0,1-.35,2.258,12.015,12.015,0,0,1-1.2,4.055,8.239,8.239,0,0,0-.481.89c-.143.3-.144.409-.276.65" transform="translate(-201.889 -188.308)" fill="#e0e0e0"/>
        <path id="Trazado_829764" data-name="Trazado 829764" d="M386.791,355.383a10.027,10.027,0,0,1,1.757-8.245c.127-.164.294-.34.5-.321.315.029.4.45.383.766a14.9,14.9,0,0,1-2.64,7.8" transform="translate(-214.347 -192.327)" fill="#e0e0e0"/>
        <path id="Trazado_829765" data-name="Trazado 829765" d="M389.078,363.834a11.993,11.993,0,0,0,9.841-2,7.966,7.966,0,0,0-5.327-.654,7.6,7.6,0,0,0-4.514,2.655" transform="translate(-215.764 -200.184)" fill="#e0e0e0"/>
        <path id="Trazado_829766" data-name="Trazado 829766" d="M390.724,356.89a11.373,11.373,0,0,1,8.932-5.164,5.5,5.5,0,0,1-2.921,3.229,16.2,16.2,0,0,1-4.287,1.254,3.024,3.024,0,0,0-1.723.681" transform="translate(-216.677 -195.05)" fill="#e0e0e0"/>
        <path id="Trazado_829767" data-name="Trazado 829767" d="M385.94,330.642a25.946,25.946,0,0,0,1.142-5.231,8.713,8.713,0,0,0-1.042-5.174,11.389,11.389,0,0,0-.152,10.585" transform="translate(-213.312 -177.588)" fill="#e0e0e0"/>
        <path id="Trazado_829768" data-name="Trazado 829768" d="M400.6,328.256a14.016,14.016,0,0,1,10.317-7.019,11.494,11.494,0,0,1-10.317,7.019" transform="translate(-222.154 -178.143)" fill="#e0e0e0"/>
        <path id="Trazado_829769" data-name="Trazado 829769" d="M397.746,337.86c3.014.459,5.582,2.385,8.4,3.552a3.765,3.765,0,0,0,1.9.363,1.487,1.487,0,0,0,.931-2.629,4.058,4.058,0,0,0-1.38-.837,15.327,15.327,0,0,0-9.59-.535" transform="translate(-220.571 -187.027)" fill="#e0e0e0"/>
        <path id="Trazado_829770" data-name="Trazado 829770" d="M393.83,343.174a3.56,3.56,0,0,1,1.456,1.009,15.712,15.712,0,0,0,6.369,3.272c.243.061.563.085.683-.135.106-.192-.028-.424-.164-.6a8.772,8.772,0,0,0-3.846-2.61,9.815,9.815,0,0,0-4.5-1.066" transform="translate(-218.399 -190.227)" fill="#e0e0e0"/>
        <path id="Trazado_829771" data-name="Trazado 829771" d="M389.411,314.285a12.054,12.054,0,0,0,9.241,3.144.631.631,0,0,0,.421-.151c.232-.253-.047-.643-.318-.855a10.647,10.647,0,0,0-9.345-2.138" transform="translate(-215.949 -174.107)" fill="#e0e0e0"/>
        <path id="Trazado_829772" data-name="Trazado 829772" d="M394.65,309.65a12.879,12.879,0,0,1,11.531-1.9,9.153,9.153,0,0,1-5.5,2.412,17.393,17.393,0,0,1-6.036-.51" transform="translate(-218.854 -170.325)" fill="#e0e0e0"/>
        <path id="Trazado_829773" data-name="Trazado 829773" d="M390.629,289.449c-.267-2.712-.094-4.853-.282-7.577-.015-.218-.062-.48-.265-.558-.283-.109-.52.239-.613.529a8.686,8.686,0,0,0,1.156,7.547" transform="translate(-215.76 -155.992)" fill="#e0e0e0"/>
        <path id="Trazado_829774" data-name="Trazado 829774" d="M392.13,289.661a15.957,15.957,0,0,0,4.492-4.366,5.97,5.97,0,0,0,1.433-4.159,4.3,4.3,0,0,0-3.24,1.609,9.044,9.044,0,0,0-1.652,3.324c-.359,1.193-.611,2.42-1.033,3.592" transform="translate(-217.457 -155.904)" fill="#e0e0e0"/>
        <path id="Trazado_829775" data-name="Trazado 829775" d="M401.966,289.066a36.222,36.222,0,0,0,11.055-6.519,5.643,5.643,0,0,0-4.152.319,13.093,13.093,0,0,0-6.96,6.17" transform="translate(-222.88 -156.536)" fill="#e0e0e0"/>
        <path id="Trazado_829776" data-name="Trazado 829776" d="M394.916,299.624a22.473,22.473,0,0,0,6.139.03,26.032,26.032,0,0,0,5.731-1.9.674.674,0,0,0,.39-.3.448.448,0,0,0-.14-.49,1.181,1.181,0,0,0-.489-.229,10.61,10.61,0,0,0-6.193.37,28.745,28.745,0,0,0-5.438,2.519" transform="translate(-219.002 -164.384)" fill="#e0e0e0"/>
        <path id="Trazado_829777" data-name="Trazado 829777" d="M367.482,303.711a10.858,10.858,0,0,1-.1-8.987,6.866,6.866,0,0,1,.8,4.468c-.155,1.535-.622,3.115-.653,4.658" transform="translate(-203.221 -163.44)" fill="#e0e0e0"/>
        <path id="Trazado_829778" data-name="Trazado 829778" d="M344.672,308.6a12.534,12.534,0,0,0-9.314,3.968,8.708,8.708,0,0,0,5.1-.946,25.944,25.944,0,0,0,4.371-2.926" transform="translate(-185.973 -171.133)" fill="#e0e0e0"/>
        <path id="Trazado_829779" data-name="Trazado 829779" d="M336.965,305.589a13,13,0,0,0-4.972.153,5.962,5.962,0,0,0-3.79,3.213,8.983,8.983,0,0,0,4.662-.881,26.763,26.763,0,0,0,4.1-2.486" transform="translate(-182.006 -169.374)" fill="#e0e0e0"/>
        <path id="Trazado_829780" data-name="Trazado 829780" d="M347.891,302.672a15.683,15.683,0,0,0-4.882-2.438,5.321,5.321,0,0,0-5.088,1.234,9.5,9.5,0,0,0,4.863.945,16.808,16.808,0,0,1,5.3.537" transform="translate(-187.395 -166.4)" fill="#e0e0e0"/>
        <path id="Trazado_829781" data-name="Trazado 829781" d="M356.627,292.79a11.349,11.349,0,0,1-2.555-10.693,16.3,16.3,0,0,1,2.555,10.693" transform="translate(-196.122 -156.438)" fill="#e0e0e0"/>
        <path id="Trazado_829782" data-name="Trazado 829782" d="M376.469,279.26c.493-1.147.84-2.35,1.283-3.518a10.111,10.111,0,0,1,1.829-3.243,4.818,4.818,0,0,1,3.239-1.679,13.045,13.045,0,0,1-6.287,8.458" transform="translate(-208.772 -150.184)" fill="#e0e0e0"/>
        <path id="Trazado_829783" data-name="Trazado 829783" d="M365.124,287.433a16.847,16.847,0,0,0-2.866-3.487,4.8,4.8,0,0,0-3.9-1.024,9.083,9.083,0,0,0,6.766,4.511" transform="translate(-198.728 -156.84)" fill="#e0e0e0"/>
        <path id="Trazado_829784" data-name="Trazado 829784" d="M372.408,279.485a19.411,19.411,0,0,1-1.29-4.178,6.521,6.521,0,0,1,.654-4.249,9.639,9.639,0,0,1,.709,8.458" transform="translate(-205.752 -150.316)" fill="#e0e0e0"/>
        <path id="Trazado_829785" data-name="Trazado 829785" d="M376.5,263.9a9.115,9.115,0,0,1,5.936-5.581,2.219,2.219,0,0,1,1.041-.156.9.9,0,0,1,.767.64c.1.458-.281.868-.637,1.172A20.2,20.2,0,0,1,376.5,263.9" transform="translate(-208.788 -143.155)" fill="#e0e0e0"/>
        <path id="Trazado_829786" data-name="Trazado 829786" d="M376.512,254.86a19.262,19.262,0,0,1,.775-5.138,6.5,6.5,0,0,1,3.234-3.9,7.614,7.614,0,0,1-1.436,5,22.946,22.946,0,0,0-2.615,4.613" transform="translate(-208.772 -136.318)" fill="#e0e0e0"/>
        <path id="Trazado_829787" data-name="Trazado 829787" d="M370.188,257.057c-.672-1.961-.742-4.451-1.916-6.159-.82-1.194-2.135-2.008-2.842-3.272a4.977,4.977,0,0,0,.165,3.715,10.747,10.747,0,0,0,2.172,3.109c.869.928,1.613,1.626,2.421,2.608" transform="translate(-202.491 -137.322)" fill="#e0e0e0"/>
        <path id="Trazado_829788" data-name="Trazado 829788" d="M376.373,325.691c-.052,0-.1-13.08-.1-29.212s.036-29.214.088-29.214.1,13.077.1,29.214-.036,29.212-.088,29.212" transform="translate(-208.662 -148.212)" fill="#e0e0e0"/>
        <path id="Trazado_829789" data-name="Trazado 829789" d="M387.908,310.465a2.8,2.8,0,0,1-.492.184l-1.353.457c-1.141.388-2.709.952-4.41,1.649a17.892,17.892,0,0,0-4.178,2.094,3.07,3.07,0,0,0-.84,1.111c-.13.307-.153.495-.17.491s0-.048.005-.137a2.1,2.1,0,0,1,.1-.381,2.946,2.946,0,0,1,.82-1.184,7.326,7.326,0,0,1,1.813-1.127c.725-.338,1.529-.691,2.382-1.042,1.707-.7,3.287-1.244,4.441-1.6.576-.18,1.047-.312,1.373-.4a2.782,2.782,0,0,1,.513-.114" transform="translate(-208.767 -172.168)" fill="#e0e0e0"/>
        <path id="Trazado_829790" data-name="Trazado 829790" d="M392.774,289.808a.81.81,0,0,1-.138.147l-.42.394-1.567,1.424-5.215,4.644c-2.036,1.812-3.8,3.544-5.014,4.847-.61.651-1.091,1.191-1.419,1.567l-.379.433a.8.8,0,0,1-.142.143.838.838,0,0,1,.112-.168c.079-.105.194-.262.352-.456.311-.392.778-.946,1.377-1.61a66.038,66.038,0,0,1,4.987-4.9c2.043-1.808,3.9-3.432,5.253-4.6l1.607-1.379.443-.368a.813.813,0,0,1,.163-.118" transform="translate(-209.887 -160.713)" fill="#e0e0e0"/>
        <path id="Trazado_829791" data-name="Trazado 829791" d="M389.153,303.142c-.053-.024.372-1.006.8-2.248s.629-2.29.683-2.281a7.666,7.666,0,0,1-.5,2.341,15.211,15.211,0,0,1-.633,1.572,2.449,2.449,0,0,1-.342.615" transform="translate(-215.803 -165.597)" fill="#e0e0e0"/>
        <path id="Trazado_829792" data-name="Trazado 829792" d="M367.086,314.662a2.356,2.356,0,0,1-.314-.364l-.8-1.03c-.675-.873-1.608-2.077-2.654-3.4s-2.008-2.5-2.7-3.356l-.821-1.017a.241.241,0,1,1,.056-.048c.209.227.506.561.868.978.723.834,1.7,2,2.75,3.325s1.965,2.539,2.613,3.433c.324.447.582.812.756,1.067a2.353,2.353,0,0,1,.254.408" transform="translate(-199.364 -169.2)" fill="#e0e0e0"/>
        <path id="Trazado_829793" data-name="Trazado 829793" d="M369.28,314.407a4.609,4.609,0,0,1-1.05-1.966,5.622,5.622,0,0,1-.238-1.982l.084.007c-.037.151-.065.231-.08.229s-.016-.086,0-.242l.083.007a9.055,9.055,0,0,0,.335,1.928,14.681,14.681,0,0,0,.869,2.019" transform="translate(-204.064 -172.162)" fill="#e0e0e0"/>
        <path id="Trazado_829794" data-name="Trazado 829794" d="M356.587,309.193a3.4,3.4,0,0,0-.733-.426,4.9,4.9,0,0,0-2.035-.162,12.569,12.569,0,0,0-2.05.331,6.263,6.263,0,0,1-.843.2,2.924,2.924,0,0,1,.807-.331,9.357,9.357,0,0,1,2.071-.39,4.437,4.437,0,0,1,2.1.226,1.3,1.3,0,0,1,.683.55" transform="translate(-194.607 -171.018)" fill="#e0e0e0"/>
        <path id="Trazado_829795" data-name="Trazado 829795" d="M352.01,306.481c-.014.029-.427-.171-1.123-.409a11.3,11.3,0,0,0-5.66-.432c-.724.13-1.162.265-1.172.234a1.056,1.056,0,0,1,.3-.127,6.969,6.969,0,0,1,.848-.238,9.989,9.989,0,0,1,5.732.437,7.013,7.013,0,0,1,.8.364,1.074,1.074,0,0,1,.275.171" transform="translate(-190.796 -169.293)" fill="#e0e0e0"/>
        <path id="Trazado_829796" data-name="Trazado 829796" d="M374.651,291.472a46.293,46.293,0,0,1-1.455-5.737,46.351,46.351,0,0,1,1.455,5.737" transform="translate(-206.953 -158.455)" fill="#e0e0e0"/>
        <path id="Trazado_829797" data-name="Trazado 829797" d="M373.792,294.773a13.71,13.71,0,0,0-.908-1.7,7.514,7.514,0,0,0-1.336-1.379,1.249,1.249,0,0,1,.515.266,4.159,4.159,0,0,1,.975,1,3.776,3.776,0,0,1,.753,1.812" transform="translate(-206.042 -161.756)" fill="#e0e0e0"/>
        <path id="Trazado_829798" data-name="Trazado 829798" d="M361.581,359.006c-.021,0-.059-.314-.206-.87a12.392,12.392,0,0,0-.874-2.265,31.356,31.356,0,0,0-4.638-6.533c-1.036-1.183-2.04-2.3-2.893-3.368a23.625,23.625,0,0,1-2.068-2.983,14.3,14.3,0,0,1-1.044-2.213c-.1-.273-.167-.486-.2-.633a1.06,1.06,0,0,1-.054-.226c.017-.005.112.3.327.833a16.189,16.189,0,0,0,1.091,2.173,24.975,24.975,0,0,0,2.089,2.941c.856,1.057,1.862,2.167,2.9,3.352a29.717,29.717,0,0,1,4.616,6.6,11.3,11.3,0,0,1,.825,2.3,6.387,6.387,0,0,1,.116.656,1.069,1.069,0,0,1,.019.232" transform="translate(-193.871 -188.501)" fill="#e0e0e0"/>
        <path id="Trazado_829799" data-name="Trazado 829799" d="M386.826,356.582a4.767,4.767,0,0,1-.541.3,11.859,11.859,0,0,0-1.4.928,16.093,16.093,0,0,0-1.844,1.682c-.647.684-1.314,1.478-1.994,2.328-1.36,1.707-2.633,3.217-3.395,4.423-.387.6-.668,1.1-.853,1.456a4.669,4.669,0,0,1-.3.545.529.529,0,0,1,.05-.154c.04-.1.095-.244.182-.424a13.833,13.833,0,0,1,.805-1.495,48.706,48.706,0,0,1,3.36-4.47c.682-.852,1.356-1.648,2.016-2.331a14.918,14.918,0,0,1,1.89-1.668,9.825,9.825,0,0,1,1.45-.887c.18-.09.326-.145.423-.187a.528.528,0,0,1,.153-.052" transform="translate(-208.786 -197.743)" fill="#e0e0e0"/>
        <path id="Trazado_829800" data-name="Trazado 829800" d="M391.253,365.063a7.883,7.883,0,0,1-1.144.166,15.115,15.115,0,0,0-2.714.535,8.166,8.166,0,0,0-2.429,1.275c-.56.433-.824.791-.85.77a.877.877,0,0,1,.17-.263,4.3,4.3,0,0,1,.6-.61,7.356,7.356,0,0,1,2.456-1.352,12.271,12.271,0,0,1,2.758-.488,6.308,6.308,0,0,1,1.158-.033" transform="translate(-213.011 -202.439)" fill="#e0e0e0"/>
        <path id="Trazado_829801" data-name="Trazado 829801" d="M384.86,365.484c-.06-.034.456-.821.856-1.881.375-1.069.463-2.007.53-2a1.806,1.806,0,0,1-.019.614,6.594,6.594,0,0,1-.334,1.446,6.982,6.982,0,0,1-.663,1.327,1.846,1.846,0,0,1-.37.49" transform="translate(-213.422 -200.53)" fill="#e0e0e0"/>
        <path id="Trazado_829802" data-name="Trazado 829802" d="M390.176,333.772a.861.861,0,0,1-.183.1l-.538.244c-.236.1-.522.229-.844.4s-.7.339-1.093.574l-.625.355c-.216.124-.43.272-.658.415-.46.279-.921.623-1.413.974a24.241,24.241,0,0,0-5.442,5.632c-.334.5-.662.976-.925,1.445-.135.233-.275.452-.392.673l-.334.636c-.222.4-.381.784-.537,1.112s-.277.618-.37.857l-.226.546a.1.1,0,1,1-.036-.012c.051-.148.115-.333.193-.56.083-.244.192-.539.342-.873s.3-.723.514-1.13l.325-.645c.115-.224.252-.446.385-.682.259-.476.584-.955.917-1.465a23.354,23.354,0,0,1,5.482-5.673c.5-.35.966-.691,1.433-.967.231-.141.449-.286.669-.408l.634-.347c.4-.23.783-.394,1.112-.552s.619-.281.86-.371l.552-.212a.858.858,0,0,1,.2-.062" transform="translate(-208.792 -185.093)" fill="#e0e0e0"/>
        <path id="Trazado_829803" data-name="Trazado 829803" d="M388.843,344.368a1.315,1.315,0,0,1,.449-.67A2.842,2.842,0,0,1,391.1,343a4.956,4.956,0,0,1,1.906.372,2.727,2.727,0,0,1,.72.35,4.423,4.423,0,0,1-.764-.224,5.748,5.748,0,0,0-1.856-.31,2.947,2.947,0,0,0-1.73.607,5.284,5.284,0,0,0-.536.568" transform="translate(-215.633 -190.212)" fill="#e0e0e0"/>
        <path id="Trazado_829804" data-name="Trazado 829804" d="M386.1,344.64a4.838,4.838,0,0,0,.4-3.42,1.113,1.113,0,0,1,.212.487,3.457,3.457,0,0,1-.292,2.507c-.16.289-.3.438-.319.425" transform="translate(-214.109 -189.225)" fill="#e0e0e0"/>
        <path id="Trazado_829805" data-name="Trazado 829805" d="M356.218,386.981a43.289,43.289,0,0,0,4.105,15.222H370.4a43.775,43.775,0,0,0,3.861-15.222Z" transform="translate(-197.542 -214.601)" fill="#e0e0e0"/>
        <path id="Trazado_829806" data-name="Trazado 829806" d="M374.607,405.022c0,.052-3.317.094-7.409.094s-7.409-.042-7.409-.094,3.317-.094,7.409-.094,7.409.042,7.409.094" transform="translate(-199.522 -224.554)" fill="#fafafa"/>
        <path id="Trazado_829807" data-name="Trazado 829807" d="M375.255,409.087c0,.052-3.11.094-6.945.094s-6.946-.042-6.946-.094,3.109-.094,6.946-.094,6.945.042,6.945.094" transform="translate(-200.395 -226.808)" fill="#fafafa"/>
        <path id="Trazado_829808" data-name="Trazado 829808" d="M365.681,394.349a28.56,28.56,0,0,1,0,4.642,28.569,28.569,0,0,1,0-4.642" transform="translate(-202.737 -218.687)" fill="#fafafa"/>
        <path id="Trazado_829809" data-name="Trazado 829809" d="M377.8,394.349a30.636,30.636,0,0,1,0,4.807,30.636,30.636,0,0,1,0-4.807" transform="translate(-209.457 -218.687)" fill="#fafafa"/>
        <path id="Trazado_829810" data-name="Trazado 829810" d="M389.176,394.258a31.866,31.866,0,0,1,0,4.9,31.887,31.887,0,0,1,0-4.9" transform="translate(-215.766 -218.637)" fill="#fafafa"/>
        <path id="Trazado_829811" data-name="Trazado 829811" d="M374.366,394.231c0,.052-3.891.094-8.689.094s-8.69-.042-8.69-.094,3.89-.094,8.69-.094,8.689.042,8.689.094" transform="translate(-197.967 -218.57)" fill="#fafafa"/>
        <rect id="Rectángulo_382328" data-name="Rectángulo 382328" width="29.119" height="42.207" transform="translate(8.974 23.919)" fill="#e0e0e0"/>
        <rect id="Rectángulo_382329" data-name="Rectángulo 382329" width="29.119" height="42.207" transform="translate(7.515 23.919)" fill="#f5f5f5"/>
        <rect id="Rectángulo_382330" data-name="Rectángulo 382330" width="21.883" height="33.064" transform="translate(11.133 28.49)" fill="#fff"/>
        <path id="Trazado_829812" data-name="Trazado 829812" d="M46.776,96.925s0-.056,0-.162,0-.265,0-.469c0-.416,0-1.024-.009-1.814,0-1.584-.011-3.894-.02-6.811-.008-5.83-.021-14.086-.036-23.809l.073.073L24.9,63.94h0l.079-.079c-.006,12.473-.012,23.974-.016,33.064l-.063-.063,15.928.033,4.4.016,1.155.007c.261,0,.4.007.4.007s-.129,0-.386.007l-1.143.007-4.387.016-15.967.033H24.83v-.063c0-9.091-.01-20.591-.016-33.064v-.079H24.9l21.88.006h.073v.073c-.015,9.742-.027,18.015-.036,23.857-.008,2.91-.015,5.214-.02,6.794,0,.784-.007,1.387-.009,1.8,0,.2,0,.353,0,.461s0,.153,0,.153" transform="translate(-13.761 -35.37)" fill="#e0e0e0"/>
        <path id="Trazado_829813" data-name="Trazado 829813" d="M77.486,53.7a5.143,5.143,0,0,1-.519.754c-.339.452-.818,1.068-1.366,1.733s-1.06,1.255-1.439,1.674a5.006,5.006,0,0,1-.641.653,5.511,5.511,0,0,1,.556-.727l1.4-1.7,1.4-1.7a5.389,5.389,0,0,1,.608-.685" transform="translate(-40.77 -29.777)" fill="#e0e0e0"/>
        <path id="Trazado_829814" data-name="Trazado 829814" d="M74.368,137.947a27.1,27.1,0,0,0,3.817,4.773" transform="translate(-41.241 -76.499)" fill="#fff"/>
        <path id="Trazado_829815" data-name="Trazado 829815" d="M78.184,142.72a4.35,4.35,0,0,1-.665-.605,21.118,21.118,0,0,1-1.44-1.624,20.829,20.829,0,0,1-1.267-1.762,4.347,4.347,0,0,1-.444-.782,6.039,6.039,0,0,1,.537.719c.321.451.772,1.067,1.3,1.726s1.029,1.234,1.4,1.646a6.041,6.041,0,0,1,.584.682" transform="translate(-41.24 -76.498)" fill="#e0e0e0"/>
        <path id="Trazado_829816" data-name="Trazado 829816" d="M16.861,142.515l3.814-4.706" transform="translate(-9.35 -76.422)" fill="#fff"/>
        <path id="Trazado_829817" data-name="Trazado 829817" d="M20.673,137.808a29.082,29.082,0,0,1-1.845,2.4,28.875,28.875,0,0,1-1.969,2.3,29.193,29.193,0,0,1,1.846-2.4,29.018,29.018,0,0,1,1.968-2.3" transform="translate(-9.349 -76.422)" fill="#e0e0e0"/>
        <path id="Trazado_829818" data-name="Trazado 829818" d="M16.869,53.7a26.353,26.353,0,0,1,1.851,2.213,26.249,26.249,0,0,1,1.727,2.311A26.362,26.362,0,0,1,18.6,56.008,26.354,26.354,0,0,1,16.869,53.7" transform="translate(-9.354 -29.777)" fill="#e0e0e0"/>
        <rect id="Rectángulo_382331" data-name="Rectángulo 382331" width="7.327" height="20.805" transform="translate(18.871 35.204)" fill="#e0e0e0"/>
        <rect id="Rectángulo_382332" data-name="Rectángulo 382332" width="29.119" height="42.207" transform="translate(161.8 25.761)" fill="#e0e0e0"/>
        <rect id="Rectángulo_382333" data-name="Rectángulo 382333" width="29.119" height="42.207" transform="translate(160.341 25.761)" fill="#f5f5f5"/>
        <rect id="Rectángulo_382334" data-name="Rectángulo 382334" width="21.883" height="33.064" transform="translate(163.959 30.332)" fill="#fff"/>
        <path id="Trazado_829819" data-name="Trazado 829819" d="M389.861,101.059s0-.056,0-.162,0-.265,0-.469c0-.416,0-1.024-.009-1.814,0-1.584-.011-3.894-.02-6.811-.009-5.83-.021-14.086-.036-23.809l.073.073-21.881.006h0l.079-.079c-.006,12.473-.012,23.974-.016,33.064l-.063-.063,15.928.033,4.4.016,1.155.007c.261,0,.4.007.4.007s-.129,0-.386.007l-1.143.007-4.386.016-15.967.033h-.063v-.063c0-9.091-.01-20.591-.016-33.064v-.079h.082l21.881.006h.073v.073c-.015,9.742-.027,18.015-.036,23.857-.009,2.91-.015,5.214-.02,6.794,0,.784-.007,1.387-.009,1.8,0,.2,0,.353,0,.461s0,.153,0,.153" transform="translate(-204.019 -37.663)" fill="#e0e0e0"/>
        <path id="Trazado_829820" data-name="Trazado 829820" d="M420.57,57.831a5.072,5.072,0,0,1-.519.754c-.339.452-.818,1.068-1.366,1.733s-1.06,1.254-1.439,1.673a5.032,5.032,0,0,1-.641.654,5.483,5.483,0,0,1,.556-.727l1.4-1.7,1.4-1.7a5.423,5.423,0,0,1,.607-.685" transform="translate(-231.029 -32.07)" fill="#e0e0e0"/>
        <path id="Trazado_829821" data-name="Trazado 829821" d="M417.453,142.081a27.091,27.091,0,0,0,3.817,4.773" transform="translate(-231.499 -78.791)" fill="#fff"/>
        <path id="Trazado_829822" data-name="Trazado 829822" d="M421.268,146.854a4.346,4.346,0,0,1-.666-.605,21.122,21.122,0,0,1-1.44-1.624,20.864,20.864,0,0,1-1.267-1.762,4.34,4.34,0,0,1-.444-.782,6.049,6.049,0,0,1,.537.719c.321.451.772,1.067,1.3,1.726s1.029,1.234,1.4,1.646a6.044,6.044,0,0,1,.584.682" transform="translate(-231.498 -78.791)" fill="#e0e0e0"/>
        <path id="Trazado_829823" data-name="Trazado 829823" d="M359.945,146.649l3.814-4.706" transform="translate(-199.608 -78.715)" fill="#fff"/>
        <path id="Trazado_829824" data-name="Trazado 829824" d="M363.758,141.942a29.063,29.063,0,0,1-1.846,2.4,28.866,28.866,0,0,1-1.969,2.3,58.088,58.088,0,0,1,3.814-4.706" transform="translate(-199.607 -78.714)" fill="#e0e0e0"/>
        <path id="Trazado_829825" data-name="Trazado 829825" d="M359.953,57.831a26.357,26.357,0,0,1,1.851,2.213,26.27,26.27,0,0,1,1.727,2.311,26.34,26.34,0,0,1-1.851-2.213,26.342,26.342,0,0,1-1.727-2.311" transform="translate(-199.612 -32.07)" fill="#e0e0e0"/>
        <rect id="Rectángulo_382335" data-name="Rectángulo 382335" width="7.327" height="20.805" transform="translate(171.697 37.045)" fill="#e0e0e0"/>
        <rect id="Rectángulo_382336" data-name="Rectángulo 382336" width="35.309" height="51.179" transform="translate(83.384 0.001)" fill="#e0e0e0"/>
        <rect id="Rectángulo_382337" data-name="Rectángulo 382337" width="35.309" height="51.179" transform="translate(81.615 0.001)" fill="#f5f5f5"/>
        <rect id="Rectángulo_382338" data-name="Rectángulo 382338" width="26.535" height="40.093" transform="translate(86.002 5.544)" fill="#fff"/>
        <path id="Trazado_829826" data-name="Trazado 829826" d="M219.484,52.419s0-.068-.005-.2,0-.321,0-.568c0-.5-.006-1.241-.011-2.2-.006-1.922-.014-4.722-.024-8.259-.01-7.07-.025-17.081-.043-28.87l.088.088-26.532.008h0l.1-.1c-.008,15.124-.014,29.069-.02,40.093l-.077-.077,19.314.041,5.336.019,1.4.009c.317,0,.484.008.484.008s-.156.005-.468.008l-1.386.008-5.319.02-19.362.04h-.077v-.077c-.005-11.023-.012-24.968-.019-40.093v-.1h.1l26.532.008h.088v.088c-.018,11.813-.033,21.844-.044,28.928-.01,3.529-.018,6.322-.024,8.239,0,.95-.008,1.682-.011,2.181,0,.243,0,.429,0,.559s-.005.186-.005.186" transform="translate(-106.947 -6.782)" fill="#e0e0e0"/>
        <path id="Trazado_829827" data-name="Trazado 829827" d="M256.722,0a6.142,6.142,0,0,1-.629.915c-.41.548-.992,1.294-1.657,2.1s-1.286,1.521-1.745,2.029a6.128,6.128,0,0,1-.777.793,6.643,6.643,0,0,1,.674-.882l1.7-2.062,1.7-2.063a6.59,6.59,0,0,1,.736-.83" transform="translate(-139.699 0)" fill="#e0e0e0"/>
        <path id="Trazado_829828" data-name="Trazado 829828" d="M252.942,102.161a32.85,32.85,0,0,0,4.628,5.788" transform="translate(-140.27 -56.654)" fill="#fff"/>
        <path id="Trazado_829829" data-name="Trazado 829829" d="M257.568,107.949a5.268,5.268,0,0,1-.807-.734,25.884,25.884,0,0,1-3.283-4.106,5.282,5.282,0,0,1-.539-.948,7.3,7.3,0,0,1,.651.873c.389.546.936,1.294,1.575,2.093s1.248,1.5,1.695,2a7.327,7.327,0,0,1,.708.827" transform="translate(-140.268 -56.653)" fill="#e0e0e0"/>
        <path id="Trazado_829830" data-name="Trazado 829830" d="M183.209,107.7l4.625-5.706" transform="translate(-101.599 -56.561)" fill="#fff"/>
        <path id="Trazado_829831" data-name="Trazado 829831" d="M187.832,101.993a35.35,35.35,0,0,1-2.238,2.914,34.978,34.978,0,0,1-2.388,2.792,35.455,35.455,0,0,1,2.238-2.914,35.2,35.2,0,0,1,2.388-2.793" transform="translate(-101.597 -56.56)" fill="#e0e0e0"/>
        <path id="Trazado_829832" data-name="Trazado 829832" d="M183.218,0a31.965,31.965,0,0,1,2.245,2.683,32.022,32.022,0,0,1,2.094,2.8A32.022,32.022,0,0,1,185.312,2.8,32.021,32.021,0,0,1,183.218,0" transform="translate(-101.603 0)" fill="#e0e0e0"/>
        <rect id="Rectángulo_382339" data-name="Rectángulo 382339" width="8.885" height="25.227" transform="translate(95.385 13.684)" fill="#e0e0e0"/>
      </g>
    </g>
    <g id="Grupo_1080547" data-name="Grupo 1080547">
      <g id="Grupo_1080546" data-name="Grupo 1080546" clip-path="url(#clip-path)">
        <path id="Trazado_829833" data-name="Trazado 829833" d="M189.057,422.185c0,.064-42.325.116-94.524.116C42.316,422.3,0,422.249,0,422.185s42.316-.116,94.533-.116c52.2,0,94.524.052,94.524.116" transform="translate(0 -234.059)" fill="#263238"/>
      </g>
    </g>
    <g id="Grupo_1080555" data-name="Grupo 1080555">
      <g id="Grupo_1080554" data-name="Grupo 1080554" clip-path="url(#clip-path)">
        <path id="Trazado_829834" data-name="Trazado 829834" d="M57.736,346.693s1.911-13.136,1.752-20.779.009-16.241.009-16.241h-.88s.6,15.17-.053,24.32-2.357,12.7-2.357,12.7Z" transform="translate(-31.17 -171.73)" fill="#263238"/>
        <path id="Trazado_829835" data-name="Trazado 829835" d="M45.575,274.765a2.321,2.321,0,0,1,.8-1.175,2.233,2.233,0,0,1,1.914.014c2.66.941,5.019,5.9,6.094,8.51l-3.532,11.9c-6.375-5.914-7.479-13.673-5.279-19.25" transform="translate(-24.7 -151.602)" fill="#455a64"/>
        <path id="Trazado_829836" data-name="Trazado 829836" d="M49.126,274.937a.71.71,0,0,0,.051.155l.173.433c.155.375.372.919.632,1.6.52,1.351,1.183,3.241,1.775,5.369s1,4.091,1.247,5.517c.126.713.22,1.291.281,1.692.031.187.056.339.075.461a.7.7,0,0,0,.036.159.675.675,0,0,0-.007-.163c-.012-.122-.029-.276-.048-.465-.043-.4-.122-.985-.236-1.7a50.9,50.9,0,0,0-1.208-5.538,50.979,50.979,0,0,0-1.819-5.368c-.273-.672-.5-1.212-.676-1.58l-.2-.423a.689.689,0,0,0-.078-.143" transform="translate(-27.243 -152.467)" fill="#263238"/>
        <path id="Trazado_829837" data-name="Trazado 829837" d="M58.866,304.465a10.775,10.775,0,0,0,5.443-9.048,19.744,19.744,0,0,0-1.6-7.711,1,1,0,0,0-.374-.56.951.951,0,0,0-.9.141c-2.405,1.37-3.863,3.981-4.638,6.639a13.393,13.393,0,0,0-.545,5.459,9.071,9.071,0,0,0,2.62,5.081" transform="translate(-31.143 -159.199)" fill="#455a64"/>
        <path id="Trazado_829838" data-name="Trazado 829838" d="M62.179,306.88a.671.671,0,0,0,.013-.159c0-.121.005-.272.009-.457,0-.4.017-.97.049-1.678a45.915,45.915,0,0,1,.615-5.5c.367-2.131.813-4.04,1.141-5.42l.392-1.633.1-.445a.651.651,0,0,0,.026-.158.67.67,0,0,0-.054.15l-.128.439c-.109.382-.259.936-.437,1.623-.354,1.374-.816,3.283-1.185,5.42a40.207,40.207,0,0,0-.574,5.518c-.019.71-.02,1.285,0,1.682l.019.457a.662.662,0,0,0,.016.159" transform="translate(-34.456 -161.614)" fill="#263238"/>
        <g id="Grupo_1080550" data-name="Grupo 1080550" transform="translate(25.016 127.877)" opacity="0.3">
          <g id="Grupo_1080549" data-name="Grupo 1080549">
            <g id="Grupo_1080548" data-name="Grupo 1080548" clip-path="url(#clip-path-5)">
              <path id="Trazado_829839" data-name="Trazado 829839" d="M58.866,304.465a10.775,10.775,0,0,0,5.443-9.048,19.744,19.744,0,0,0-1.6-7.711,1,1,0,0,0-.374-.56.951.951,0,0,0-.9.141c-2.405,1.37-3.863,3.981-4.638,6.639a13.393,13.393,0,0,0-.545,5.459,9.071,9.071,0,0,0,2.62,5.081" transform="translate(-56.158 -287.076)"/>
            </g>
          </g>
        </g>
        <path id="Trazado_829840" data-name="Trazado 829840" d="M34.96,370.883c-3.258.716-5.941,3.014-9.084,4.131-2.079.739-4.431,1-6.091,2.455a5.161,5.161,0,0,1,2.26-2.249,40.519,40.519,0,0,1,8.234-3.931,7.831,7.831,0,0,1,4.59-.517" transform="translate(-10.971 -205.518)" fill="#455a64"/>
        <path id="Trazado_829841" data-name="Trazado 829841" d="M64.428,372.39c4.08-.066,8.377-3.54,12.438-3.747-4.25-1.372-10.336-.251-12.438,3.747" transform="translate(-35.729 -204.122)" fill="#455a64"/>
        <path id="Trazado_829842" data-name="Trazado 829842" d="M44.8,349.589a13.282,13.282,0,0,0-6.523-.444,39.675,39.675,0,0,0-6.369,1.731c.209-1.416,1.356-2.48,2.433-3.422a16.98,16.98,0,0,1,2.557-1.966,5.7,5.7,0,0,1,3.066-.865,4.85,4.85,0,0,1,3.385,1.706,5.62,5.62,0,0,1,1.45,3.26" transform="translate(-17.695 -191.109)" fill="#455a64"/>
        <path id="Trazado_829843" data-name="Trazado 829843" d="M72.9,343.239c2.568-2.193,6.459-1.979,9.835-1.9a80.108,80.108,0,0,0-15.253,9.505c-.137-2.387,2.173-4.833,5.418-7.6" transform="translate(-37.417 -189.265)" fill="#455a64"/>
        <g id="Grupo_1080553" data-name="Grupo 1080553" transform="translate(30.056 152.028)" opacity="0.3">
          <g id="Grupo_1080552" data-name="Grupo 1080552">
            <g id="Grupo_1080551" data-name="Grupo 1080551" clip-path="url(#clip-path-6)">
              <path id="Trazado_829844" data-name="Trazado 829844" d="M72.9,343.239c2.568-2.193,6.459-1.979,9.835-1.9a80.108,80.108,0,0,0-15.253,9.505c-.137-2.387,2.173-4.833,5.418-7.6" transform="translate(-67.473 -341.293)"/>
            </g>
          </g>
        </g>
        <path id="Trazado_829845" data-name="Trazado 829845" d="M36.162,325.729a28.59,28.59,0,0,0-3.95-2.3c-1.352-.614-2.613-1.593-3.919-2.3a42.712,42.712,0,0,1-4.714-3.328,12.238,12.238,0,0,0-5.163-2.463,10.152,10.152,0,0,1,4.7.271,30.377,30.377,0,0,1,4.422,1.721,21.553,21.553,0,0,1,5.68,3.293c1.638,1.465,3.119,2.911,2.945,5.1" transform="translate(-10.213 -174.782)" fill="#455a64"/>
        <path id="Trazado_829846" data-name="Trazado 829846" d="M33.626,373.918a.523.523,0,0,0,.129-.056l.356-.184c.307-.164.749-.406,1.3-.685.275-.145.58-.3.91-.452s.683-.323,1.059-.485a15.488,15.488,0,0,1,2.512-.876,5.4,5.4,0,0,1,2.617-.066,7.453,7.453,0,0,1,1.109.331,5.7,5.7,0,0,1,2.02,1.389c.237.253.351.408.362.4a.524.524,0,0,0-.073-.12,3.766,3.766,0,0,0-.247-.318,5.257,5.257,0,0,0-1.111-.978,5.548,5.548,0,0,0-.905-.485,7.307,7.307,0,0,0-1.124-.35,5.445,5.445,0,0,0-2.682.055,14.9,14.9,0,0,0-2.533.894c-.377.167-.732.332-1.058.5s-.633.318-.905.469c-.551.292-.985.548-1.284.727l-.343.208a.5.5,0,0,0-.114.081" transform="translate(-18.647 -205.65)" fill="#263238"/>
        <path id="Trazado_829847" data-name="Trazado 829847" d="M65.37,373.208a.95.95,0,0,0-.256.075,5.742,5.742,0,0,0-.665.289,8.066,8.066,0,0,0-3.409,3.275,5.627,5.627,0,0,0-.315.653.93.93,0,0,0-.085.252c.024.011.176-.335.489-.853a9.037,9.037,0,0,1,3.368-3.236c.53-.293.882-.431.872-.455" transform="translate(-33.627 -206.962)" fill="#263238"/>
        <path id="Trazado_829848" data-name="Trazado 829848" d="M74.831,345.2a.82.82,0,0,0-.174.051l-.49.175-.772.285c-.3.112-.628.277-1,.44a23.585,23.585,0,0,0-5.312,3.385,25.936,25.936,0,0,0-2.477,2.44A27.277,27.277,0,0,0,62.85,354.2c-.466.66-.819,1.209-1.061,1.59l-.279.437a.855.855,0,0,0-.09.158.869.869,0,0,0,.114-.141c.071-.1.175-.237.3-.423.257-.371.623-.911,1.1-1.561s1.072-1.4,1.775-2.2a27.109,27.109,0,0,1,2.471-2.418,24.863,24.863,0,0,1,5.262-3.4c.365-.168.688-.339.985-.457l.761-.307.48-.2a.819.819,0,0,0,.164-.079" transform="translate(-34.06 -191.432)" fill="#263238"/>
        <path id="Trazado_829849" data-name="Trazado 829849" d="M47.1,350.262a1.426,1.426,0,0,0,.325-.042l.375-.069c.146-.029.316-.029.5-.048a5.131,5.131,0,0,1,2.8.553,5.068,5.068,0,0,1,1.276.947,5.8,5.8,0,0,1,.821,1.014,8.4,8.4,0,0,1,.561,1.071,1.2,1.2,0,0,0-.083-.318,4.532,4.532,0,0,0-.391-.807,5.422,5.422,0,0,0-.812-1.054A4.967,4.967,0,0,0,48.3,350c-.188.026-.36.034-.506.071l-.374.094a1.4,1.4,0,0,0-.313.1" transform="translate(-26.122 -194.076)" fill="#263238"/>
        <path id="Trazado_829850" data-name="Trazado 829850" d="M37.9,322.065a.888.888,0,0,0,.154.1l.456.247c.4.213.965.528,1.658.936s1.5.921,2.364,1.538a19.719,19.719,0,0,1,2.639,2.211,6.72,6.72,0,0,1,1.08,1.4c.267.514.523,1.009.757,1.486a27,27,0,0,1,1.134,2.581,15.767,15.767,0,0,1,.551,1.817c.1.437.142.683.156.681a.853.853,0,0,0-.016-.18c-.015-.118-.04-.291-.085-.512a13.474,13.474,0,0,0-.51-1.84,24.845,24.845,0,0,0-1.11-2.6c-.233-.479-.486-.978-.751-1.492a6.744,6.744,0,0,0-1.1-1.433,19.137,19.137,0,0,0-2.666-2.22c-.872-.614-1.692-1.114-2.39-1.517s-1.279-.7-1.683-.9l-.468-.223a.836.836,0,0,0-.167-.069" transform="translate(-21.016 -178.602)" fill="#263238"/>
        <path id="Trazado_829851" data-name="Trazado 829851" d="M63.578,339.237a1.664,1.664,0,0,0,.081-.344l.178-.943a24.089,24.089,0,0,1,1.937-6l.4-.874a1.613,1.613,0,0,0,.131-.328,1.659,1.659,0,0,0-.181.3c-.109.2-.261.49-.44.855a20.137,20.137,0,0,0-1.945,6.023c-.064.4-.11.726-.133.952a1.666,1.666,0,0,0-.025.352" transform="translate(-35.255 -183.419)" fill="#263238"/>
        <path id="Trazado_829852" data-name="Trazado 829852" d="M64.213,314.326a11.07,11.07,0,0,1,1.327-4.405,14.542,14.542,0,0,1,9.856-7.35l-9.125,13.6L65.093,318.6a6.979,6.979,0,0,1-.88-4.273" transform="translate(-35.595 -167.791)" fill="#455a64"/>
        <rect id="Rectángulo_382344" data-name="Rectángulo 382344" width="21.218" height="3.761" transform="translate(15.529 173.338)" fill="#ff725e"/>
        <path id="Trazado_829853" data-name="Trazado 829853" d="M56.468,395.9l-2.335,11.669H40.575L38.418,395.9Z" transform="translate(-21.305 -219.548)" fill="#ff725e"/>
        <path id="Trazado_829854" data-name="Trazado 829854" d="M34.888,397.494c0,.041,4.786.074,10.689.074s10.69-.033,10.69-.074-4.785-.074-10.69-.074-10.689.033-10.689.074" transform="translate(-19.347 -220.39)" fill="#263238"/>
      </g>
    </g>
    <path id="Trazado_829855" data-name="Trazado 829855" d="M343.946,19.968,342.372,9.784l-7.916,7.16-8.417-7.316,1.441,11.335L316.7,22.319l7.148,6.8-8.6,7.643,11.332-1.993,1.923,10.9,7.2-6.34,8.842,5.622-.078-9.686,9.8-2.22-6.483-6.189,5.773-6.365Z" transform="translate(-174.818 -5.34)" fill="#fff"/>
    <g id="Grupo_1080557" data-name="Grupo 1080557">
      <g id="Grupo_1080556" data-name="Grupo 1080556" clip-path="url(#clip-path)">
        <path id="Trazado_829856" data-name="Trazado 829856" d="M343.47,19.686s.221,0,.641.023l1.86.088,7.1.356.114.005-.077.085-5.76,6.377,0-.1,6.492,6.179.116.11-.156.036-9.8,2.23.075-.1c.027,3.078.056,6.318.086,9.686l0,.192-.162-.1-8.845-5.618.132-.01-7.2,6.343-.152.134-.035-.2-1.924-10.9.134.094-4.556.8-6.776,1.191-.4.071.305-.271,8.6-7.642,0,.167-7.145-6.8-.167-.159.229-.029,10.785-1.348-.089.114L325.472,9.358l-.03-.238.181.158L334.03,16.6h-.1l7.931-7.144.076-.069.016.1c.5,3.3.879,5.839,1.139,7.562q.19,1.288.289,1.958c.064.441.092.672.092.672s-.041-.216-.113-.651-.176-1.091-.314-1.943c-.274-1.727-.678-4.274-1.2-7.581l.092.033-7.9,7.176-.051.046-.051-.045-8.427-7.3.151-.081c.453,3.539.939,7.327,1.452,11.334l.013.1-.1.013-10.783,1.361.061-.187,7.15,6.8.089.085-.092.082-8.6,7.645-.1-.2,6.776-1.192,4.556-.8.114-.02.02.114,1.92,10.9-.187-.065,7.2-6.338.062-.055.07.045,8.838,5.628-.16.089c-.024-3.368-.048-6.608-.07-9.686V34.9l.076-.017,9.8-2.209-.041.146-6.474-6.2-.051-.049.047-.052,5.787-6.353.037.09-7.129-.416-1.848-.113c-.416-.027-.623-.045-.623-.045" transform="translate(-174.342 -5.058)" fill="#263238"/>
        <path id="Trazado_829857" data-name="Trazado 829857" d="M352.581,45.2v6.2h-1.718l-2.356-2.816V51.4H346.47V45.2h1.719l2.356,2.816V45.2Z" transform="translate(-192.136 -25.067)" fill="#263238"/>
        <path id="Trazado_829858" data-name="Trazado 829858" d="M361.894,48.126a3.509,3.509,0,1,1,3.5,3.242,3.271,3.271,0,0,1-3.5-3.242m4.889,0a1.4,1.4,0,1,0-1.391,1.55,1.41,1.41,0,0,0,1.391-1.55" transform="translate(-200.689 -24.891)" fill="#263238"/>
      </g>
    </g>
    <path id="Trazado_829859" data-name="Trazado 829859" d="M24.789,22.414l-6.322,6.512,8.883,1.7-1.712,9.466L34.6,34.7l5.119,6.52L42.47,31.45l10.721,3.5-7.23-8.2,6.159-8.26-9-.913L41.483,7.752l-6.247,6.676-6.731-6.2.363,7.956-8.81-.794Z" transform="translate(-10.241 -4.299)" fill="#fff"/>
    <g id="Grupo_1080559" data-name="Grupo 1080559">
      <g id="Grupo_1080558" data-name="Grupo 1080558" clip-path="url(#clip-path)">
        <path id="Trazado_829860" data-name="Trazado 829860" d="M41.245,7.53l.1-.107.024.145,1.642,9.818-.068-.064,9,.911.139.014L52,18.359l-6.158,8.26,0-.1,1.972,2.237,5.257,5.965.193.219-.277-.091-10.721-3.5.1-.053-2.75,9.772-.04.14-.09-.114-5.116-6.523.09.016-8.97,5.379-.117.07.024-.134q.951-5.223,1.722-9.464l.041.06L18.275,28.79l-.068-.013.049-.05L22.966,23.9l1.219-1.242c.274-.279.419-.421.419-.421s-.131.143-.4.423L23,23.914l-4.7,4.865-.02-.063L27.175,30.4l.05.009-.009.05-1.7,9.468-.093-.064,8.962-5.392.053-.031.038.048L39.6,41.005l-.129.026,2.743-9.774.022-.078.077.025L53.032,34.7l-.085.129-5.258-5.965-1.972-2.237-.043-.049.039-.052,6.16-8.259.055.126-9-.915-.058-.006-.01-.057c-.566-3.4-1.114-6.694-1.633-9.819l.124.037L35.1,14.3l-.045.049-.049-.045L28.279,8.1l.1-.046c.129,2.888.249,5.574.355,7.956l0,.058-.058-.005-8.809-.808L19.9,15.2l3.5,5.228.9,1.356c.2.306.3.461.3.461s-.112-.157-.32-.462l-.922-1.352-3.519-5.19-.043-.064.077.007,8.812.78-.055.053c-.112-2.382-.237-5.067-.373-7.955l-.007-.145.106.1,6.736,6.2-.094,0" transform="translate(-10.097 -4.116)" fill="#263238"/>
        <path id="Trazado_829861" data-name="Trazado 829861" d="M55.916,32.869l-.664,6.189a1.008,1.008,0,0,1-2.008-.041l-.417-6.267a.791.791,0,0,1,.835-.842l1.513.087a.791.791,0,0,1,.741.874" transform="translate(-29.294 -17.694)" fill="#ff725e"/>
        <path id="Trazado_829862" data-name="Trazado 829862" d="M52.627,54.025a1.516,1.516,0,1,0,1.044-1.873,1.516,1.516,0,0,0-1.044,1.873" transform="translate(-29.152 -28.889)" fill="#ff725e"/>
      </g>
    </g>
    <g id="Grupo_1080561" data-name="Grupo 1080561">
      <g id="Grupo_1080560" data-name="Grupo 1080560" clip-path="url(#clip-path)">
        <path id="Trazado_829863" data-name="Trazado 829863" d="M243.975,201.366c.339,1.7.457,31.766,1.393,45.766,1.249,18.654,2.092,42.195,2.127,40.493h11.2s1.381-30.019,1.748-38.753c.38-9.067,2.408-29.934,2.408-29.934s3.239,27.8,2.791,32.949-3.145,35.186-3.145,35.186l10.67.653s7.936-35.766,8.161-40.1c.57-10.986-3.466-52.389-3.691-53.286S246.82,188.7,246.82,188.7Z" transform="translate(-135.297 -104.641)" fill="#263238"/>
        <path id="Trazado_829864" data-name="Trazado 829864" d="M287.792,235.218a7.073,7.073,0,0,0,1.032-1.155,7.438,7.438,0,0,0,1.07-3.539c.093-1.465,0-2.809.048-3.783a10.755,10.755,0,0,1,.095-1.15,1.4,1.4,0,0,1,.091-.415c.036,0-.031.6-.022,1.567-.007.966.115,2.3.02,3.8a7.084,7.084,0,0,1-1.167,3.615,3.932,3.932,0,0,1-.8.84,1.234,1.234,0,0,1-.363.222" transform="translate(-159.595 -124.872)" fill="#455a64"/>
        <path id="Trazado_829865" data-name="Trazado 829865" d="M257,231.807a3.686,3.686,0,0,1-.412.954,13.5,13.5,0,0,1-3.13,3.893,3.7,3.7,0,0,1-.843.608c-.047-.057,1.2-1.038,2.409-2.554s1.911-2.935,1.977-2.9" transform="translate(-140.085 -128.549)" fill="#455a64"/>
        <path id="Trazado_829866" data-name="Trazado 829866" d="M312.913,231.351a3.223,3.223,0,0,1-.856-.474,11.384,11.384,0,0,1-3.263-3.381,3.221,3.221,0,0,1-.443-.873,18.118,18.118,0,0,0,4.562,4.728" transform="translate(-170.995 -125.674)" fill="#455a64"/>
        <path id="Trazado_829867" data-name="Trazado 829867" d="M296.1,388.626l-1.041,10.144s10.117,3.97,10.2,5.853l-19.693-.372,1.082-15.491Z" transform="translate(-158.357 -215.514)" fill="#263238"/>
        <path id="Trazado_829868" data-name="Trazado 829868" d="M285.558,421.716l.085-1.595,18.85.954s.87.4.759,1.013Z" transform="translate(-158.357 -232.979)" fill="#455a64"/>
        <path id="Trazado_829869" data-name="Trazado 829869" d="M251.75,390.029l.721,12.261-2.226,9.862a1.258,1.258,0,0,0,2.128,1.156c1.809-1.864,8.428-8.753,8.325-9.647-.119-1.036.1-12.983.1-12.983Z" transform="translate(-138.757 -216.291)" fill="#263238"/>
        <path id="Trazado_829870" data-name="Trazado 829870" d="M252.607,429.614,262,418.774l.019.52a1.892,1.892,0,0,1-.4,1.243c-.747.944-2.865,3.505-7.872,8.711a1.256,1.256,0,0,1-1.13.365" transform="translate(-140.084 -232.232)" fill="#455a64"/>
        <path id="Trazado_829871" data-name="Trazado 829871" d="M296.453,410.174a10.07,10.07,0,0,1-1.541-.014c-.95-.038-2.261-.107-3.707-.2s-2.757-.185-3.706-.265a10.3,10.3,0,0,1-1.535-.178,9.994,9.994,0,0,1,1.537.014c.95.038,2.262.107,3.711.2s2.76.185,3.709.265a10.154,10.154,0,0,1,1.532.178" transform="translate(-158.582 -227.09)" fill="#455a64"/>
        <path id="Trazado_829872" data-name="Trazado 829872" d="M263.079,410.641c0,.064-2.508.116-5.6.116s-5.6-.052-5.6-.116,2.507-.116,5.6-.116,5.6.052,5.6.116" transform="translate(-139.679 -227.658)" fill="#455a64"/>
        <path id="Trazado_829873" data-name="Trazado 829873" d="M336.516,251.575s.571.135,1.379,2.919a70.976,70.976,0,0,1,1.482,7.335h-2.29l-1.669-8.213Z" transform="translate(-186.007 -139.512)" fill="#263238"/>
        <path id="Trazado_829874" data-name="Trazado 829874" d="M325.678,235.4c-.245.216-.691.39-.629,2.1s.369,3.19.25,3.79-.706,3.015-.224,3.733.971.578,1.334.063.922-3.16,1.175-3.621,1.285-.3,1.358-.037-.223,3.429-.223,3.429,3-3.062,2.907-4.1-1.878-4.322-2.015-5.085-.137-3.2-.252-3.188l-3.491.446Z" transform="translate(-180.168 -128.922)" fill="#ffc09d"/>
        <path id="Trazado_829875" data-name="Trazado 829875" d="M256.335,97.208l1.222-2.949,11.556.941,1.582,2.041L282,148.2s-7.856,2.691-14.1,2.613-16.06-.91-16.06-.91l4.861-39.537Z" transform="translate(-139.656 -52.272)" fill="#fff"/>
        <path id="Trazado_829876" data-name="Trazado 829876" d="M278.939,104.611c.155.155,1.643,1.971,1.643,1.971h1.6l.983-1.93-2.081-1.93h-.118Z" transform="translate(-154.686 -56.965)" fill="#ff725e"/>
        <path id="Trazado_829877" data-name="Trazado 829877" d="M281.8,151.736l.368-40.349h1.6l5.663,39.5-2.594,4.524Z" transform="translate(-156.273 -61.77)" fill="#ff725e"/>
        <path id="Trazado_829878" data-name="Trazado 829878" d="M263.718,100.878a1.778,1.778,0,0,1,.393.241c.245.167.593.415,1.022.725.857.621,2.031,1.49,3.319,2.462l.685.519-.147.008c1.037-.959,1.96-1.8,2.627-2.391a9.634,9.634,0,0,1,1.1-.92,9.617,9.617,0,0,1-1,1.032c-.64.623-1.543,1.482-2.575,2.447l-.07.065-.077-.058-.686-.517c-1.288-.972-2.446-1.863-3.278-2.517-.416-.327-.75-.595-.977-.784a1.757,1.757,0,0,1-.339-.313" transform="translate(-146.245 -55.942)" fill="#263238"/>
        <path id="Trazado_829879" data-name="Trazado 829879" d="M287.943,102.933a16.894,16.894,0,0,1-1.379,2.213l-.076.112-.1-.095-.48-.466c-.646-.633-1.222-1.214-1.631-1.644a3.98,3.98,0,0,1-.628-.729,3.968,3.968,0,0,1,.743.612c.438.4,1.032.963,1.678,1.6l.476.47-.173.017a16.929,16.929,0,0,1,1.566-2.085" transform="translate(-157.3 -56.743)" fill="#263238"/>
        <path id="Trazado_829880" data-name="Trazado 829880" d="M234.813,75.754a3.2,3.2,0,0,1-.649-3.263,11.772,11.772,0,0,0,.1,1.677,11.674,11.674,0,0,0,.554,1.586" transform="translate(-129.744 -40.2)" fill="#263238"/>
        <path id="Trazado_829881" data-name="Trazado 829881" d="M232.291,77.356a3.172,3.172,0,0,1-.7-3.452,8.422,8.422,0,0,0,.055,1.786,8.4,8.4,0,0,0,.646,1.666" transform="translate(-128.293 -40.983)" fill="#263238"/>
        <path id="Trazado_829882" data-name="Trazado 829882" d="M247.66,74.618a3.391,3.391,0,0,0-1.51-2.139c.009-.027.171,0,.4.114a2.206,2.206,0,0,1,1.135,1.607c.033.258,0,.418-.028.418" transform="translate(-136.502 -40.188)" fill="#263238"/>
        <path id="Trazado_829883" data-name="Trazado 829883" d="M251.853,74.751a9.277,9.277,0,0,0-.5-1.1c-.359-.558-.846-.833-.813-.894a1.906,1.906,0,0,1,1.312,1.994" transform="translate(-138.937 -40.342)" fill="#263238"/>
        <path id="Trazado_829884" data-name="Trazado 829884" d="M291.392,96.634a23.726,23.726,0,0,0,3.362,2.335,31.281,31.281,0,0,0,5.637,2.6c1.611.248,5.205,2.6,5.205,2.6s.62,10.2,0,14.829-1.735,13.8-1.363,16.777,4.338,25.952,4.338,25.952l-3.42,1.362s-3.645-23.066-5.628-33.432-8.132-33.021-8.132-33.021" transform="translate(-161.592 -53.589)" fill="#ff725e"/>
        <path id="Trazado_829885" data-name="Trazado 829885" d="M319.82,169.31l5.558-.841S321.62,137.92,321,134.946s-.52-20.326-2.355-21.442-3.842,25.443-3.718,25.488,4.893,30.319,4.893,30.319" transform="translate(-174.641 -62.925)" fill="#ff725e"/>
        <path id="Trazado_829886" data-name="Trazado 829886" d="M305.91,140.864a.376.376,0,0,1-.015-.107c-.006-.085-.013-.188-.02-.315q-.02-.444-.056-1.211c-.039-1.073-.094-2.59-.161-4.456-.114-3.781-.271-8.97-.444-14.7-.121-4.642-.233-8.929-.322-12.367l.069.087-2.8-.752-.086-.023.032-.081.478-1.2.009.067-1.887-2.489-.512-.649c-.118-.147-.187-.21-.185-.216a4.334,4.334,0,0,1,.756.818c.461.559,1.12,1.389,1.94,2.452l.024.03-.014.037-.461,1.211-.053-.1,2.807.724.067.018,0,.07c.1,3.438.23,7.724.367,12.366.147,5.732.279,10.922.376,14.7.036,1.867.066,3.384.087,4.457q.007.768.012,1.212c0,.127,0,.231,0,.315a.366.366,0,0,1-.009.108" transform="translate(-166.372 -56.811)" fill="#263238"/>
        <path id="Trazado_829887" data-name="Trazado 829887" d="M320.7,120.674a.66.66,0,0,1,.006.142c0,.106,0,.243-.005.415-.01.38-.025.914-.043,1.6-.048,1.4-.118,3.4-.2,5.864-.086,2.481-.189,5.427-.3,8.7-.045,1.637-.092,3.355-.141,5.136-.028,1.78-.085,3.629,0,5.507.149,1.873.434,3.7.693,5.463s.539,3.459.8,5.075l1.446,8.582c.418,2.43.757,4.4.995,5.782.112.671.2,1.2.264,1.574.026.17.047.305.063.41a.689.689,0,0,1,.014.141.632.632,0,0,1-.037-.137l-.086-.406-.306-1.566c-.255-1.378-.619-3.345-1.067-5.77s-.954-5.344-1.5-8.575c-.27-1.616-.547-3.313-.817-5.076s-.549-3.587-.7-5.484c-.086-1.9-.027-3.742,0-5.525s.1-3.5.155-5.138c.133-3.27.253-6.216.353-8.7.116-2.463.211-4.462.277-5.862.036-.68.065-1.213.086-1.593.012-.172.021-.308.029-.414a.648.648,0,0,1,.017-.141" transform="translate(-177.31 -66.92)" fill="#263238"/>
        <path id="Trazado_829888" data-name="Trazado 829888" d="M229.916,121.893l1.622,7.114L221.8,155.965s7.988,9.235,11.108,6.365,10.234-25.086,10.858-31.2-3.622-32.808-3.622-32.808l.311-2.056-2.8,2.165s-9.735,1.622-10.858,1.872,3.12,21.591,3.12,21.591" transform="translate(-123.001 -53.384)" fill="#ff725e"/>
        <path id="Trazado_829889" data-name="Trazado 829889" d="M260.925,140.414a1.105,1.105,0,0,1-.107-.236l-.265-.693c-.226-.6-.54-1.48-.918-2.568-.755-2.175-1.747-5.2-2.747-8.567s-1.817-6.446-2.369-8.68c-.277-1.118-.492-2.024-.631-2.653-.063-.294-.115-.534-.155-.725a1.13,1.13,0,0,1-.039-.257,1.07,1.07,0,0,1,.085.245c.052.188.117.424.2.715l.7,2.633c.593,2.223,1.435,5.288,2.433,8.656s1.965,6.393,2.68,8.581l.848,2.59.224.707a1.079,1.079,0,0,1,.063.252" transform="translate(-140.685 -64.348)" fill="#263238"/>
        <path id="Trazado_829890" data-name="Trazado 829890" d="M245.245,148.826a8.143,8.143,0,0,1-.008,1.464c-.044.9-.145,2.149-.321,3.518s-.4,2.6-.585,3.484a8.1,8.1,0,0,1-.364,1.418,10.454,10.454,0,0,1,.2-1.448c.146-.89.339-2.12.516-3.484s.3-2.6.388-3.5a10.538,10.538,0,0,1,.172-1.452" transform="translate(-135.288 -82.532)" fill="#263238"/>
        <path id="Trazado_829891" data-name="Trazado 829891" d="M232.487,196.877l7.167,3.36L237.29,203.8l-7.42-4.393Z" transform="translate(-127.475 -109.178)" fill="#ff725e"/>
        <path id="Trazado_829892" data-name="Trazado 829892" d="M232.318,196.875a1.445,1.445,0,0,1-.177.2l-.511.524-1.872,1.869-.015-.13,7.406,4.346.031.018-.156.036,2.371-3.562.044.159-5.111-2.45-1.476-.726a4.888,4.888,0,0,1-.534-.284,4.167,4.167,0,0,1,.526.213l1.485.663,5.2,2.386.114.052-.07.106c-.729,1.1-1.525,2.31-2.358,3.569l-.061.092-.095-.056-.032-.019-7.372-4.4-.094-.057.079-.074,1.958-1.837.531-.484a1.116,1.116,0,0,1,.186-.153" transform="translate(-127.305 -109.177)" fill="#263238"/>
        <path id="Trazado_829893" data-name="Trazado 829893" d="M260.24,56.554a37.09,37.09,0,0,1-1.836-6.13,12.954,12.954,0,0,1,.279-6.334c.1-.307.989-2.377,1.312-2.357.231.014-.292,1.934-.169,2.13a10.983,10.983,0,0,1,1.466,6.356,28.9,28.9,0,0,1-1.053,6.335" transform="translate(-143.155 -23.143)" fill="#263238"/>
        <path id="Trazado_829894" data-name="Trazado 829894" d="M275.111,61.963s-.089-1.124-.078-1.125,5.154-.71,5.307-5.847c.074-2.5-.193-7.667-.487-12.322a9.483,9.483,0,0,0-9.3-8.883l-.582-.01c-5.352.219-7.745,5.014-7.377,10.358l1.161,16.459,8.32,3.719h-.121Z" transform="translate(-145.602 -18.73)" fill="#ffc09d"/>
        <path id="Trazado_829895" data-name="Trazado 829895" d="M282.28,91.923a12.415,12.415,0,0,1-6.656-2.095s1.608,3.774,6.743,3.4Z" transform="translate(-152.848 -49.814)" fill="#ff9b6c"/>
        <path id="Trazado_829896" data-name="Trazado 829896" d="M287.349,65.867a5.224,5.224,0,0,1,1.286-.209c.2-.017.394-.054.43-.191a1.024,1.024,0,0,0-.124-.6l-.57-1.546a26.408,26.408,0,0,1-1.27-4.04,26.41,26.41,0,0,1,1.592,3.928c.19.543.371,1.06.544,1.555a1.167,1.167,0,0,1,.091.793.507.507,0,0,1-.337.29,1.388,1.388,0,0,1-.343.041,5.141,5.141,0,0,1-1.3-.021" transform="translate(-159.208 -32.874)" fill="#263238"/>
        <path id="Trazado_829897" data-name="Trazado 829897" d="M278.767,65.228a.733.733,0,0,1-.74.708.7.7,0,0,1-.726-.695.735.735,0,0,1,.739-.709.7.7,0,0,1,.727.7" transform="translate(-153.778 -35.786)" fill="#263238"/>
        <path id="Trazado_829898" data-name="Trazado 829898" d="M278.739,59.409c-.1.091-.633-.344-1.421-.378s-1.385.335-1.466.235c-.04-.045.059-.213.321-.385a2.011,2.011,0,0,1,1.179-.306,1.938,1.938,0,0,1,1.126.42c.233.2.308.374.262.415" transform="translate(-152.969 -32.481)" fill="#263238"/>
        <path id="Trazado_829899" data-name="Trazado 829899" d="M277.928,56.184c-.124.192-.87-.084-1.8-.183-.926-.118-1.715-.02-1.792-.236-.033-.1.14-.27.481-.4a3.144,3.144,0,0,1,2.735.319c.3.21.43.412.374.5" transform="translate(-152.133 -30.602)" fill="#263238"/>
        <path id="Trazado_829900" data-name="Trazado 829900" d="M294.4,64.732a.733.733,0,0,1-.72.728.7.7,0,0,1-.745-.674.735.735,0,0,1,.719-.729.7.7,0,0,1,.746.675" transform="translate(-162.45 -35.522)" fill="#263238"/>
        <path id="Trazado_829901" data-name="Trazado 829901" d="M294.864,59.107c-.093.094-.641-.327-1.431-.339s-1.376.373-1.459.275c-.041-.044.054-.215.31-.394a2.014,2.014,0,0,1,1.17-.339,1.935,1.935,0,0,1,1.137.389c.239.191.319.365.273.407" transform="translate(-161.909 -32.336)" fill="#263238"/>
        <path id="Trazado_829902" data-name="Trazado 829902" d="M295.414,52.513c-.091.224-.749.262-1.468.512-.726.228-1.281.589-1.484.463-.092-.064-.057-.267.15-.522a2.414,2.414,0,0,1,1.089-.7,2.383,2.383,0,0,1,1.289-.081c.315.082.461.226.424.333" transform="translate(-162.159 -28.906)" fill="#263238"/>
        <path id="Trazado_829903" data-name="Trazado 829903" d="M259.119,65.274c-.087-.04-3.513-1.106-3.462,2.409s3.863,2.881,3.868,2.78-.406-5.189-.406-5.189" transform="translate(-141.775 -36.097)" fill="#ffc09d"/>
        <path id="Trazado_829904" data-name="Trazado 829904" d="M259.118,70.459c-.016-.011-.061.044-.164.093a.612.612,0,0,1-.457.016,1.517,1.517,0,0,1-.721-1.349,2.029,2.029,0,0,1,.159-.879.709.709,0,0,1,.453-.477.312.312,0,0,1,.364.163c.049.1.027.168.046.174s.074-.06.044-.2a.393.393,0,0,0-.142-.218.463.463,0,0,0-.34-.085.862.862,0,0,0-.632.554,2.08,2.08,0,0,0-.2.983,1.59,1.59,0,0,0,.915,1.505.656.656,0,0,0,.559-.1c.107-.088.125-.167.113-.173" transform="translate(-142.814 -37.536)" fill="#ff9b6c"/>
        <path id="Trazado_829905" data-name="Trazado 829905" d="M275.2,36.228c.561-.327-1.188-2.129-2.6-2.731-2.135-.909-5.375-1.424-7.31-.826a8.471,8.471,0,0,0-5.378,4.094,13.829,13.829,0,0,0-1.387,7.094A4.2,4.2,0,0,0,259.067,46c.509.765,1.462,1.233,1.446,2.306a1.47,1.47,0,0,0,.39,1.064c.659.67,1.43.008,1.777-.645A10.173,10.173,0,0,0,263.5,44.1a10.274,10.274,0,0,0-.3-3.337c-.185-.582-.474-1.129-.628-1.72a2.112,2.112,0,0,1,.208-1.76,2.175,2.175,0,0,1,.279-.3,3.667,3.667,0,0,1,3.62-.777c2,.654,5.4,1.621,6.267.929a5.413,5.413,0,0,0,1.536-1.633Z" transform="translate(-143.351 -17.975)" fill="#263238"/>
        <path id="Trazado_829906" data-name="Trazado 829906" d="M285.4,78.46a.68.68,0,1,1-.68-.68.68.68,0,0,1,.68.68" transform="translate(-157.515 -43.133)" fill="#ff9b6c"/>
        <path id="Trazado_829907" data-name="Trazado 829907" d="M284.827,78.843c.014.013-.115.193-.46.233a.675.675,0,0,1-.551-.229.946.946,0,0,1-.2-.692.935.935,0,0,1,.326-.642.724.724,0,0,1,.575-.143c.339.065.453.269.43.28-.023.029-.17-.106-.447-.117a.594.594,0,0,0-.42.143.775.775,0,0,0-.233.5.79.79,0,0,0,.135.535.534.534,0,0,0,.385.2c.271.01.443-.106.46-.069" transform="translate(-157.278 -42.9)" fill="#263238"/>
        <path id="Trazado_829908" data-name="Trazado 829908" d="M220.695,104.745s-2.122,2.87-1.373,7.987c0,0-6.74,7.863-5.117,11.981a6.136,6.136,0,0,0,9.36,3.12c3.495-2.246,6.614-16.1,6.614-16.1l-4.586-7.682Z" transform="translate(-118.648 -57.702)" fill="#ff725e"/>
        <path id="Trazado_829909" data-name="Trazado 829909" d="M233.815,92.2l.741-1.083s-1.768-2.965-1.2-5.075,1.2-1.939,1.2-1.939a4.792,4.792,0,0,1,1.426-1.768c.8-.456,1.026,0,1.026,0a3.189,3.189,0,0,1,.912-1.654l.628-.4s-2.9-4.144-2.612-5,1.255-.685,2.053.285,4.266,6.767,4.893,8.022l.627,1.255a2.91,2.91,0,0,1,1.311,3.193c-.513,2.167-1.311,2.566-2.224,3.707a2.006,2.006,0,0,0-1.141,1.482,7.675,7.675,0,0,1-.717,2.016s-2.534,2.376-4.244,1.976-2.749-2.55-2.68-5.018" transform="translate(-129.347 -41.439)" fill="#ffc09d"/>
        <path id="Trazado_829910" data-name="Trazado 829910" d="M234.965,98.877a5.266,5.266,0,0,1,1.127.482s1.927,1.621,2.787,1.346a.99.99,0,0,0,.783-.873l-3.632-3.823" transform="translate(-130.3 -53.242)" fill="#ffc09d"/>
        <path id="Trazado_829911" data-name="Trazado 829911" d="M236.029,96.008a10.375,10.375,0,0,1,1.117,1.059c.67.676,1.588,1.622,2.6,2.684l.033.036v.045a.86.86,0,0,1-.039.221,1.083,1.083,0,0,1-.415.56,1.258,1.258,0,0,1-.629.233,2.517,2.517,0,0,1-1.133-.36,9.09,9.09,0,0,1-1.517-1.073l.013.008c-.338-.189-.611-.331-.8-.424a1.848,1.848,0,0,0-.295-.123c.011-.072.466.069,1.162.418l0,0,.009.007a10.552,10.552,0,0,0,1.52,1,2.408,2.408,0,0,0,1.027.319.982.982,0,0,0,.83-.636.686.686,0,0,0,.029-.153l.033.08c-1.009-1.064-1.907-2.029-2.548-2.733a10.3,10.3,0,0,1-1-1.17" transform="translate(-130.3 -53.241)" fill="#ff9b6c"/>
        <path id="Trazado_829912" data-name="Trazado 829912" d="M243.637,97.688s1.346.724,1.784,0-1.123-2.509-1.329-2.978a28.241,28.241,0,0,0-1.959-2.567" transform="translate(-134.276 -51.098)" fill="#ffc09d"/>
        <path id="Trazado_829913" data-name="Trazado 829913" d="M242.132,92.142a6.129,6.129,0,0,1,.856.919c.249.3.544.651.852,1.065.077.1.155.211.23.327a1.666,1.666,0,0,1,.11.187c.035.064.055.11.1.17.143.228.315.463.48.709a5.572,5.572,0,0,1,.789,1.5.872.872,0,0,1-.087.781.788.788,0,0,1-.62.292,2.138,2.138,0,0,1-.913-.22c-.2-.094-.3-.166-.29-.18a1.39,1.39,0,0,1,.323.1,2.428,2.428,0,0,0,.87.141.624.624,0,0,0,.476-.244.688.688,0,0,0,.035-.608,5.857,5.857,0,0,0-.776-1.425c-.163-.245-.331-.476-.482-.721-.037-.056-.074-.136-.1-.192a1.551,1.551,0,0,0-.093-.164c-.069-.11-.143-.216-.216-.32-.294-.414-.575-.779-.808-1.087a7.491,7.491,0,0,1-.728-1.021" transform="translate(-134.274 -51.097)" fill="#ff9b6c"/>
        <path id="Trazado_829914" data-name="Trazado 829914" d="M245.508,87.374s1.055,1.225,1.862,2.419,1.719,3.341,1.514,4.027a1.165,1.165,0,0,1-1.564.594" transform="translate(-136.147 -48.453)" fill="#ffc09d"/>
        <path id="Trazado_829915" data-name="Trazado 829915" d="M247.319,94.413a.891.891,0,0,0,.339.079,1.428,1.428,0,0,0,.877-.313.747.747,0,0,0,.278-.529,2.6,2.6,0,0,0-.117-.746,10.616,10.616,0,0,0-.648-1.667A15.736,15.736,0,0,0,246.3,88.48a10.63,10.63,0,0,1-.8-1.107,6.367,6.367,0,0,1,.926,1.006,13.058,13.058,0,0,1,1.824,2.758,9.749,9.749,0,0,1,.646,1.713,2.664,2.664,0,0,1,.1.814.913.913,0,0,1-.367.643,1.426,1.426,0,0,1-.986.275c-.253-.029-.348-.164-.333-.169" transform="translate(-136.145 -48.452)" fill="#ff9b6c"/>
        <path id="Trazado_829916" data-name="Trazado 829916" d="M253.694,97.389c-.094.031-1.414-.126-1.351,1.288s.6,1.822.6,1.822" transform="translate(-139.936 -54.007)" fill="#ffc09d"/>
        <path id="Trazado_829917" data-name="Trazado 829917" d="M252.805,100.448c-.019.03-.235-.115-.408-.465a3.4,3.4,0,0,1-.308-1.457,1.3,1.3,0,0,1,.248-.82,1.2,1.2,0,0,1,1.218-.368c.005.047-.24.044-.574.155a.96.96,0,0,0-.474.342,1.167,1.167,0,0,0-.186.693,4.235,4.235,0,0,0,.227,1.389c.123.341.277.508.257.531" transform="translate(-139.796 -53.956)" fill="#ff9b6c"/>
        <path id="Trazado_829918" data-name="Trazado 829918" d="M246.855,105.347a3.683,3.683,0,0,0,.406,2.859" transform="translate(-136.824 -58.42)" fill="#ffc09d"/>
        <path id="Trazado_829919" data-name="Trazado 829919" d="M247.124,108.2a2.741,2.741,0,0,1-.406-2.859c.067.017-.092.665.026,1.455s.44,1.369.38,1.4" transform="translate(-136.687 -58.419)" fill="#ff9b6c"/>
        <path id="Trazado_829920" data-name="Trazado 829920" d="M242.056,118.013a3.77,3.77,0,0,0,.129.441c.1.284.241.7.433,1.219l.007.017,0,.02a41.036,41.036,0,0,1-2.5,7.723,29.25,29.25,0,0,1-3.468,6.067c-.272.356-.523.675-.764.937s-.434.5-.619.671a4.937,4.937,0,0,1-.571.528,4.984,4.984,0,0,1,.505-.59c.173-.179.361-.419.586-.693s.47-.592.732-.952a32.043,32.043,0,0,0,3.387-6.061,48.207,48.207,0,0,0,2.585-7.659l0,.036a5.584,5.584,0,0,1-.438-1.7" transform="translate(-130.151 -65.444)" fill="#263238"/>
        <path id="Trazado_829921" data-name="Trazado 829921" d="M226.759,111.5a13.686,13.686,0,0,1-.871,1.258c-.55.768-1.3,1.837-2.119,3.021s-1.551,2.266-2.074,3.053a13.777,13.777,0,0,1-.868,1.261,7.9,7.9,0,0,1,.729-1.349c.49-.811,1.2-1.907,2.022-3.1s1.593-2.243,2.178-2.988a7.868,7.868,0,0,1,1-1.16" transform="translate(-122.459 -61.835)" fill="#263238"/>
        <path id="Trazado_829922" data-name="Trazado 829922" d="M328.217,252.265l-1.46,9.592H329.2l1.077-9.316a1.039,1.039,0,0,0-2.06-.276" transform="translate(-181.204 -139.404)" fill="#263238"/>
        <path id="Trazado_829923" data-name="Trazado 829923" d="M331.8,289.446H315.864a1.341,1.341,0,0,1-1.341-1.341V270.883a1.341,1.341,0,0,1,1.341-1.341H331.8a1.341,1.341,0,0,1,1.341,1.341v17.222a1.341,1.341,0,0,1-1.341,1.341" transform="translate(-174.419 -149.475)" fill="#455a64"/>
        <path id="Trazado_829924" data-name="Trazado 829924" d="M322.889,290.289c-.059,0-.107-4-.107-8.938s.048-8.939.107-8.939.107,4,.107,8.939-.048,8.938-.107,8.938" transform="translate(-178.999 -151.067)" fill="#263238"/>
        <path id="Trazado_829925" data-name="Trazado 829925" d="M336.948,278.152a6.277,6.277,0,0,1-.36.848,20.376,20.376,0,0,1-1.156,2.147,8.9,8.9,0,0,1-2.209,2.5,4.2,4.2,0,0,1-1.6.743,3.318,3.318,0,0,1-1.807-.143,10.04,10.04,0,0,1-3.119-2.126,23.828,23.828,0,0,1-2.263-2.388c-.612-.739-1.076-1.386-1.387-1.845-.155-.23-.273-.412-.35-.54a.867.867,0,0,1-.11-.2,6.414,6.414,0,0,1,.518.66c.328.431.8,1.051,1.425,1.764a25.859,25.859,0,0,0,2.273,2.317,10.147,10.147,0,0,0,3.064,2.067,3.423,3.423,0,0,0,3.267-.556,8.891,8.891,0,0,0,2.187-2.4c.543-.826.93-1.564,1.2-2.07a7.315,7.315,0,0,1,.428-.779" transform="translate(-178.891 -153.692)" fill="#263238"/>
      </g>
    </g>
    <g id="Grupo_1080563" data-name="Grupo 1080563">
      <g id="Grupo_1080562" data-name="Grupo 1080562" clip-path="url(#clip-path)">
        <path id="Trazado_829926" data-name="Trazado 829926" d="M148.509,71.464a11.347,11.347,0,0,0-3.5-6.021,4.614,4.614,0,0,1-1.424-1.916,5.588,5.588,0,0,1,.272-2.322c.3-1.689.024-4.059-1.341-5.309-.82-.751-1.878-.92-2.4-1.846a6.869,6.869,0,0,1-.893-2.636c-.206-1.8-.722-4.055-2.407-5.15a4.956,4.956,0,0,0-5.222-.649,6.221,6.221,0,0,0-6.291-4.051c-3.118.105-5.992,2.1-6.625,4.6a8.1,8.1,0,0,0-7.023,3.78c-1.182,2.223-1.763,5.428.253,7.206-2.708,1.64-2.513,4.508-1,6.97a5.388,5.388,0,0,0-3.994,3.014,4,4,0,0,0,1.045,4.361c-1.191,1.786-.581,4.123,1.014,5.683a12.444,12.444,0,0,0,6.422,2.889,19.464,19.464,0,0,0,8.782-.283,11.4,11.4,0,0,0,6.625-4.593,8.57,8.57,0,0,0,.937-2.173l3.375,7.345a8.15,8.15,0,0,0,6.928,2.151c2.512-.5,4.52-2.763,3.92-4.9a6.242,6.242,0,0,0,2.55-6.147" transform="translate(-59.141 -23.047)" fill="#263238"/>
        <path id="Trazado_829927" data-name="Trazado 829927" d="M150.762,63.972a8.109,8.109,0,0,0-3.584-8.047,10.459,10.459,0,0,0-3.934-1.344,6.406,6.406,0,0,0-3.786.435c-.887.124-4.337,2.742-4.794,5.887a56.46,56.46,0,0,0-.789,10.435c.406,5.338,4.39,6.338,4.39,6.338s-.228,1.572-.228,1.572l5.287,3.7,4.63-3.538Z" transform="translate(-74.214 -30.201)" fill="#ae7461"/>
        <path id="Trazado_829928" data-name="Trazado 829928" d="M144.88,80.238a4.844,4.844,0,0,0-1.164-.31c-.184-.034-.357-.086-.378-.215a.952.952,0,0,1,.169-.54l.665-1.369a24.4,24.4,0,0,0,1.535-3.6,24.465,24.465,0,0,0-1.822,3.466l-.642,1.38a1.076,1.076,0,0,0-.156.721.468.468,0,0,0,.283.3,1.282,1.282,0,0,0,.312.069,4.755,4.755,0,0,0,1.2.1" transform="translate(-79.339 -41.151)" fill="#263238"/>
        <path id="Trazado_829929" data-name="Trazado 829929" d="M143.573,104.885a13.5,13.5,0,0,0,7.235-1.3s-2.182,3.561-7.416,2.637Z" transform="translate(-79.518 -57.442)" fill="#6f4439"/>
        <path id="Trazado_829930" data-name="Trazado 829930" d="M140.484,78.607a.678.678,0,0,0,.6.735.649.649,0,0,0,.747-.552.679.679,0,0,0-.6-.735.649.649,0,0,0-.747.553" transform="translate(-77.903 -43.281)" fill="#263238"/>
        <path id="Trazado_829931" data-name="Trazado 829931" d="M138.048,73.778c.077.1.62-.242,1.347-.181s1.23.469,1.316.386c.042-.037-.03-.2-.249-.391a1.863,1.863,0,0,0-1.045-.418,1.786,1.786,0,0,0-1.081.254c-.237.153-.326.306-.288.349" transform="translate(-76.55 -40.576)" fill="#263238"/>
        <path id="Trazado_829932" data-name="Trazado 829932" d="M138.025,69.592c.138.166.684,0,1.339-.008.654-.026,1.209.117,1.338-.055.057-.084-.03-.25-.272-.408a2.074,2.074,0,0,0-2.157.051c-.232.169-.309.34-.248.421" transform="translate(-76.531 -38.177)" fill="#263238"/>
        <path id="Trazado_829933" data-name="Trazado 829933" d="M156.778,78.946a.678.678,0,0,1-.731.6.649.649,0,0,1-.621-.69.678.678,0,0,1,.73-.6.649.649,0,0,1,.622.69" transform="translate(-86.191 -43.396)" fill="#263238"/>
        <path id="Trazado_829934" data-name="Trazado 829934" d="M156.839,74.433c-.094.078-.559-.36-1.284-.445s-1.3.215-1.367.116c-.034-.044.07-.192.321-.333a1.865,1.865,0,0,1,1.107-.2,1.791,1.791,0,0,1,1.009.464c.2.2.259.366.213.4" transform="translate(-85.502 -40.79)" fill="#263238"/>
        <path id="Trazado_829935" data-name="Trazado 829935" d="M156.768,68.6c-.106.238-.827.273-1.619.531-.8.235-1.417.615-1.635.478-.1-.069-.054-.286.18-.556a2.7,2.7,0,0,1,1.212-.741,2.665,2.665,0,0,1,1.41-.072c.342.091.5.246.453.359" transform="translate(-85.104 -37.809)" fill="#263238"/>
        <path id="Trazado_829936" data-name="Trazado 829936" d="M149.2,89.879a1.017,1.017,0,0,0-1.246-.158,1.055,1.055,0,0,0-.422,1.191,1.1,1.1,0,0,0,1.045.724,1.141,1.141,0,0,0,1.021-.77,1.025,1.025,0,0,0-.4-.988" transform="translate(-81.789 -49.675)" fill="#6f4439"/>
        <path id="Trazado_829937" data-name="Trazado 829937" d="M149.107,91.369a.873.873,0,0,0,.475-.2.976.976,0,0,0,.045-1.145,1.077,1.077,0,0,0-.484-.459.944.944,0,0,0-.543-.062c-.322.058-.464.24-.491.214-.026-.006.079-.255.453-.373a1.033,1.033,0,0,1,.664.025,1.22,1.22,0,0,1,.6.542,1.1,1.1,0,0,1-.141,1.384.622.622,0,0,1-.429.134c-.107-.012-.156-.05-.151-.063" transform="translate(-82.132 -49.524)" fill="#263238"/>
        <path id="Trazado_829938" data-name="Trazado 829938" d="M167.842,81.029c.033-.392.562-1.281.955-1.309,1.048-.077,2.907.159,2.709,2.788-.27,3.595-4.487,2.538-4.485,2.435a33.39,33.39,0,0,0,.821-3.914" transform="translate(-92.622 -44.202)" fill="#ae7461"/>
        <path id="Trazado_829939" data-name="Trazado 829939" d="M170.527,85.34c.016-.01.059.049.161.105a.628.628,0,0,0,.468.045,1.552,1.552,0,0,0,.821-1.336,2.072,2.072,0,0,0-.108-.91.727.727,0,0,0-.435-.516.32.32,0,0,0-.383.144c-.056.1-.038.171-.058.175s-.073-.066-.033-.212a.4.4,0,0,1,.159-.215.473.473,0,0,1,.353-.065.882.882,0,0,1,.612.606,2.129,2.129,0,0,1,.142,1.018,1.629,1.629,0,0,1-1.03,1.484.673.673,0,0,1-.565-.138c-.1-.1-.118-.179-.1-.184" transform="translate(-94.564 -45.775)" fill="#6f4439"/>
        <path id="Trazado_829940" data-name="Trazado 829940" d="M171.234,90.691a1.12,1.12,0,1,1-1.119-1.119,1.119,1.119,0,0,1,1.119,1.119" transform="translate(-93.717 -49.672)" fill="#455a64"/>
        <path id="Trazado_829941" data-name="Trazado 829941" d="M131.883,59.07c5.164.016,3.937-4.965,6.046-4.286,3.973,1.279,5.553-1.037,6.645-2.809,0,0,1.589,6.181,3.184,6.688a9.462,9.462,0,0,0-.225,3.441c.192.965-.136,1.146.794,1.466.909.314,2.216-1.714,2.847-2.439a7.327,7.327,0,0,0,1.25-2.578l-1.666-6.173-6.184-3.238L139.9,47.751l-3.936,1.217s-4.168,3.18-4.083,3.248,0,6.855,0,6.855" transform="translate(-73.135 -26.48)" fill="#263238"/>
        <path id="Trazado_829942" data-name="Trazado 829942" d="M167.85,59.508a3.8,3.8,0,0,1-1.141.041A10.6,10.6,0,0,1,164,59.029a8.775,8.775,0,0,1-1.408-.589,3.114,3.114,0,0,1-.977-.795,1.465,1.465,0,0,1-.4-1.073,2.811,2.811,0,0,0,.522.968,5.26,5.26,0,0,0,2.332,1.268,13.292,13.292,0,0,0,2.649.576,10.422,10.422,0,0,1,1.127.123" transform="translate(-89.398 -31.372)" fill="#455a64"/>
        <path id="Trazado_829943" data-name="Trazado 829943" d="M173.623,76.861c-.02-.01.082-.213.2-.6a4.573,4.573,0,0,0,.147-1.692,4.322,4.322,0,0,0-.923-2.3,5.815,5.815,0,0,0-2.545-1.686c-1.035-.394-2.076-.623-3.005-.915a9.746,9.746,0,0,1-2.368-1.048,4.593,4.593,0,0,1-1.277-1.194,2.782,2.782,0,0,1-.241-.41c-.048-.1-.069-.151-.062-.154a5.194,5.194,0,0,0,1.667,1.619,10.178,10.178,0,0,0,2.343.983c.921.277,1.969.5,3.026.9a5.908,5.908,0,0,1,2.629,1.77,4.4,4.4,0,0,1,.919,2.421,4.3,4.3,0,0,1-.224,1.734,3.339,3.339,0,0,1-.194.435c-.052.1-.082.143-.09.14" transform="translate(-90.693 -37.075)" fill="#455a64"/>
        <path id="Trazado_829944" data-name="Trazado 829944" d="M125.022,56.018a2.789,2.789,0,0,1-.507.248,15.1,15.1,0,0,0-1.371.669,5,5,0,0,0-1.671,1.451,2.781,2.781,0,0,0-.438,2.538,3.64,3.64,0,0,0,1.8,1.932,6.207,6.207,0,0,0,2.149.584c1.281.118,2.09.075,2.088.121a2.521,2.521,0,0,1-.562.055,12.756,12.756,0,0,1-1.541-.012,6.1,6.1,0,0,1-2.23-.557A3.8,3.8,0,0,1,120.815,61a2.708,2.708,0,0,1-.091-1.483,3.42,3.42,0,0,1,.573-1.254,4.985,4.985,0,0,1,1.767-1.471,10.815,10.815,0,0,1,1.417-.61,2.51,2.51,0,0,1,.541-.164" transform="translate(-66.913 -31.064)" fill="#455a64"/>
        <path id="Trazado_829945" data-name="Trazado 829945" d="M132.524,111.966c.178-.137,1.58-2.145,1.58-2.145l5.556,3.83,4.918-3.694,1.4,2.192,4.2,30.163s3.742,11.272,3.7,11.317-26.65.639-26.65.639l2.91-13.98Z" transform="translate(-70.55 -60.901)" fill="#fff"/>
        <path id="Trazado_829946" data-name="Trazado 829946" d="M155.2,155.251c-.064,0-.116-7.9-.116-17.638s.052-17.64.116-17.64.116,7.9.116,17.64-.052,17.638-.116,17.638" transform="translate(-86.003 -66.531)" fill="#263238"/>
        <path id="Trazado_829947" data-name="Trazado 829947" d="M152.586,122.165a4.326,4.326,0,0,1-.472.624l-.038.046-.041-.048c-.664-.771-1.953-2.331-3.471-4.205l.185-.009-.6.916-2.2,3.319-.061.092-.082-.07-1.851-1.572a5.524,5.524,0,0,1-.673-.625,5.474,5.474,0,0,1,.744.538l1.9,1.509-.143.021,2.173-3.339.6-.915.086-.131.1.122c1.509,1.881,2.76,3.472,3.372,4.284h-.078a4.335,4.335,0,0,1,.55-.556" transform="translate(-79.454 -65.612)" fill="#263238"/>
        <path id="Trazado_829948" data-name="Trazado 829948" d="M146.025,331.777c0,.064-6.935.116-15.488.116s-15.49-.052-15.49-.116,6.934-.116,15.49-.116,15.488.052,15.488.116" transform="translate(-63.8 -183.923)" fill="#455a64"/>
        <path id="Trazado_829949" data-name="Trazado 829949" d="M135.4,300.237l-12.147.994s.221,6.073,0,8.834-1.46,10.932.1,17.558,5.313,19.877,5.313,19.877h.072l.253.823-.138,1.8-1.7,6.871.714,1.621h5.856s.6-6.6.872-7.938a8.16,8.16,0,0,0-.844-3.443c.045-2.667.41-24.848,0-29-.441-4.417.552-9.386.884-12.478s.773-5.521.773-5.521" transform="translate(-67.976 -166.497)" fill="#ae7461"/>
        <path id="Trazado_829950" data-name="Trazado 829950" d="M134.386,408.721s-1.285,4.316-1.7,6.871a6.552,6.552,0,0,0-.12,1.447c.152,1.692.91,3.031,4.1,2.82s3.793-.987,3.869-2.96-.607-5.992-.455-7.19a4.029,4.029,0,0,0-.307-2.777l-.414-1.029s.252,2.837.288,3.845a30.469,30.469,0,0,1-.505,6.1c-.379.705-5.178,1.223-5.738.064s.986-7.19.986-7.19" transform="translate(-73.509 -225.093)" fill="#263238"/>
        <path id="Trazado_829951" data-name="Trazado 829951" d="M163.413,327.623c1.558-6.626.319-14.8.1-17.558s0-8.834,0-8.834l-12.146-.994s.441,2.429.773,5.521,1.325,8.061.883,12.478c-.4,3.968-.081,24.42-.012,28.537-.043.888-.1,2.043-.16,3.292-.066,1.356.646,8.012.646,8.012h5.857l.714-1.621-1.7-6.871-.137-1.8.092-1.058c.821-2.916,3.761-13.432,5.095-19.1" transform="translate(-83.94 -166.497)" fill="#ae7461"/>
        <path id="Trazado_829952" data-name="Trazado 829952" d="M159.414,409.211s1.285,4.315,1.7,6.871a6.578,6.578,0,0,1,.12,1.447c-.152,1.692-.911,3.031-4.1,2.82s-3.793-.987-3.869-2.96a64.517,64.517,0,0,1,.455-7.19c.152-1.289.266-2.047.266-2.047l0-.393a18.192,18.192,0,0,1,.165,2.479,30.464,30.464,0,0,0,.505,6.1c.379.705,5.177,1.223,5.738.064s-.986-7.19-.986-7.19" transform="translate(-84.99 -226.123)" fill="#263238"/>
        <path id="Trazado_829953" data-name="Trazado 829953" d="M112.521,209.374s-4.623,15.114-4.623,21.871,3.185,32.718,3.185,32.718H142.06s5.86-25.873,4.971-36.008a59.469,59.469,0,0,0-4.993-18.58H113.41" transform="translate(-59.835 -116.109)" fill="#263238"/>
        <path id="Trazado_829954" data-name="Trazado 829954" d="M152.563,275.779a.992.992,0,0,1-.163.185l-.5.5-1.844,1.822c-1.551,1.544-3.658,3.711-5.892,6.193s-4.166,4.808-5.538,6.513l-1.617,2.026-.443.549a1,1,0,0,1-.167.182.961.961,0,0,1,.13-.21l.408-.575c.357-.5.89-1.207,1.56-2.073,1.34-1.733,3.258-4.079,5.494-6.567s4.368-4.639,5.95-6.154c.791-.758,1.44-1.363,1.9-1.77l.529-.467a1,1,0,0,1,.2-.151" transform="translate(-75.641 -152.934)" fill="#455a64"/>
        <path id="Trazado_829955" data-name="Trazado 829955" d="M106.2,167.766s13.394,5.5,16.46,3.242,4.841-12.748,4.2-22.269-4.967-37.5-4.967-37.5l-2.773,1.847s-8.2,1.751-8.36,2.4,3.191,31.484,3.191,31.484Z" transform="translate(-58.895 -61.686)" fill="#ff725e"/>
        <path id="Trazado_829956" data-name="Trazado 829956" d="M140.253,156.328a.343.343,0,0,1-.043-.094l-.1-.282-.377-1.094c-.328-.951-.767-2.338-1.277-4.062s-1.071-3.791-1.638-6.1-1.111-4.867-1.607-7.566-.869-5.289-1.166-7.648-.492-4.492-.619-6.286-.21-3.246-.239-4.251q-.021-.73-.033-1.157c0-.121,0-.22,0-.3a.35.35,0,0,1,.007-.1.342.342,0,0,1,.017.1c.007.082.015.18.025.3q.028.426.077,1.155c.056,1,.159,2.453.312,4.242s.372,3.917.668,6.272.695,4.936,1.182,7.633,1.045,5.246,1.587,7.557,1.095,4.377,1.588,6.1.9,3.121,1.2,4.08l.336,1.107.082.29a.352.352,0,0,1,.021.1" transform="translate(-73.838 -65.095)" fill="#263238"/>
        <path id="Trazado_829957" data-name="Trazado 829957" d="M115.386,200.346c.168-.192,8.223,1.5,8.169,1.836s-.866,4.407-.866,4.407-8.68-1.634-8.771-1.961Z" transform="translate(-63.173 -111.094)" fill="#ff725e"/>
        <path id="Trazado_829958" data-name="Trazado 829958" d="M115.269,200.325a1.607,1.607,0,0,1-.08.31c-.07.223-.16.509-.272.863l-1.034,3.136,0-.052c.01-.007-.005-.02,0-.013l.04.02a.71.71,0,0,0,.093.038c.064.026.136.045.2.068.141.042.286.082.436.12l.931.223c.644.146,1.329.291,2.048.439,1.437.3,3.006.6,4.648.917l.306.058-.135.091c.174-.878.343-1.733.506-2.559l.242-1.215.118-.588c.067.055-.055-.037-.132-.06s-.176-.068-.266-.1c-1.465-.453-2.832-.741-3.965-1s-2.06-.439-2.7-.558c-.319-.059-.568-.1-.736-.124a1.218,1.218,0,0,0-.256-.018,15.326,15.326,0,0,1,3.724.541c1.143.241,2.5.509,4,.958.094.03.187.063.282.1a1.248,1.248,0,0,1,.146.069.324.324,0,0,1,.087.066.2.2,0,0,1,.028.041.169.169,0,0,1,.01.079l-.007.037-.114.59-.236,1.218c-.162.828-.33,1.686-.5,2.565l-.022.113-.113-.022-.306-.058c-1.643-.314-3.212-.627-4.649-.933-.718-.153-1.4-.3-2.048-.457-.322-.077-.634-.154-.934-.235-.15-.041-.3-.083-.442-.128-.072-.026-.143-.045-.215-.075a.92.92,0,0,1-.108-.047l-.056-.03a.245.245,0,0,1-.075-.087l-.01-.02.011-.032,1.113-3.124.314-.844a1.441,1.441,0,0,1,.124-.286" transform="translate(-63.056 -111.073)" fill="#263238"/>
        <path id="Trazado_829959" data-name="Trazado 829959" d="M175.159,167.643s-12.619,5.43-15.685,3.17-4.841-12.748-4.2-22.269,4.961-37.658,4.961-37.658l3.753,2.48s7.94,1.006,8.1,1.652-3.8,30.552-3.8,30.552Z" transform="translate(-86.036 -61.493)" fill="#ff725e"/>
        <path id="Trazado_829960" data-name="Trazado 829960" d="M165.518,118.538a2.518,2.518,0,0,1,.045.392q.031.417.084,1.129c.037.49.075,1.09.092,1.788s.061,1.493.053,2.372.006,1.842-.036,2.876c-.017,1.034-.094,2.136-.163,3.3-.176,2.319-.456,4.862-.89,7.511s-1.006,5.145-1.591,7.4c-.31,1.121-.594,2.189-.913,3.173-.295.991-.608,1.9-.9,2.732s-.573,1.573-.818,2.227-.472,1.211-.666,1.662l-.445,1.041a2.543,2.543,0,0,1-.169.357,2.45,2.45,0,0,1,.126-.375l.4-1.056c.181-.457.4-1.017.628-1.674s.519-1.4.784-2.235.582-1.744.869-2.736c.31-.984.587-2.051.89-3.171.572-2.248,1.122-4.74,1.569-7.38s.718-5.177.906-7.488c.075-1.157.159-2.257.184-3.288.05-1.031.058-1.992.064-2.869s-.01-1.671-.018-2.368-.029-1.3-.052-1.788q-.025-.712-.041-1.13a2.51,2.51,0,0,1,0-.4" transform="translate(-88.286 -65.736)" fill="#263238"/>
        <path id="Trazado_829961" data-name="Trazado 829961" d="M180.545,200.346c-.168-.192-8.223,1.5-8.169,1.836s.866,4.407.866,4.407,8.68-1.634,8.771-1.961Z" transform="translate(-95.592 -111.094)" fill="#ff725e"/>
        <path id="Trazado_829962" data-name="Trazado 829962" d="M180.412,200.325a1.442,1.442,0,0,1,.124.286l.314.844,1.113,3.124.011.032-.01.02a.245.245,0,0,1-.075.087l-.056.03a.921.921,0,0,1-.108.047c-.072.03-.143.049-.215.075-.144.045-.292.087-.442.128-.3.081-.612.158-.934.235-.644.153-1.329.3-2.048.457-1.437.306-3.006.62-4.649.933l-.306.058-.113.022-.022-.113c-.172-.879-.339-1.737-.5-2.565q-.12-.621-.237-1.218-.057-.3-.114-.59l-.007-.037a.171.171,0,0,1,.011-.079.2.2,0,0,1,.028-.041.324.324,0,0,1,.087-.066,1.252,1.252,0,0,1,.146-.069c.095-.039.189-.071.282-.1,1.493-.449,2.855-.717,4-.958a15.326,15.326,0,0,1,3.724-.541,1.217,1.217,0,0,0-.256.018c-.169.023-.417.065-.737.124-.638.119-1.561.306-2.7.558s-2.5.547-3.964,1c-.09.03-.18.062-.266.1-.071.028-.21.106-.132.06l.118.588.242,1.215c.163.826.332,1.682.506,2.559l-.135-.091.306-.058c1.641-.314,3.211-.621,4.648-.917s2.765-.592,3.817-.877l-.061.034-1.034-3.136-.272-.863a1.609,1.609,0,0,1-.08-.31" transform="translate(-95.458 -111.073)" fill="#263238"/>
        <path id="Trazado_829963" data-name="Trazado 829963" d="M127.362,105.381c.132-.058,1.081,2.562,1.8,3.563s4.283,5.244,4.843,6,3.748,3.553,3.748,3.553l-1.966,3.575-.861-.6s-2.562.32-3.442-1.4-1.081-3.082-1.521-3.683-1.718-1.868-1.841-2.842a2.224,2.224,0,0,1,.481-1.648s-.993-2.115-1.718-4.076-.164-2.162.477-2.442" transform="translate(-70.175 -58.439)" fill="#ae7461"/>
        <path id="Trazado_829964" data-name="Trazado 829964" d="M132.283,116.845a5.3,5.3,0,0,1-.724-.862c-.421-.551-.992-1.322-1.6-2.193a6.987,6.987,0,0,1-.778-1.3,2.1,2.1,0,0,1-.031-1.253,2.494,2.494,0,0,1,.137-.462.514.514,0,0,1,.271-.272c.214-.065.321.022.313.029a.823.823,0,0,0-.276.054.436.436,0,0,0-.189.241,2.886,2.886,0,0,0-.095.442,2.025,2.025,0,0,0,.07,1.146,7.832,7.832,0,0,0,.769,1.243l1.537,2.229a5.57,5.57,0,0,1,.591.958" transform="translate(-71.578 -61.266)" fill="#6f4439"/>
        <path id="Trazado_829965" data-name="Trazado 829965" d="M136.558,128.539a1.229,1.229,0,0,1-.337-.227,4.435,4.435,0,0,1-.748-.817,5.887,5.887,0,0,1-.75-1.464,9.618,9.618,0,0,1-.274-.93,2.089,2.089,0,0,0-.457-.859c-.425-.552-.886-1.041-1.294-1.5a3.9,3.9,0,0,1-.542-.7c-.143-.236-.262-.46-.371-.665a7.74,7.74,0,0,1-.623-1.366,12.7,12.7,0,0,1,.766,1.287,5.739,5.739,0,0,0,.926,1.3c.417.447.885.933,1.322,1.5a4.547,4.547,0,0,1,.3.443,1.6,1.6,0,0,1,.191.5c.078.323.159.629.256.914a6.289,6.289,0,0,0,.683,1.441,9.374,9.374,0,0,0,.949,1.137" transform="translate(-72.735 -66.554)" fill="#6f4439"/>
        <path id="Trazado_829966" data-name="Trazado 829966" d="M164.613,119.678c.894.132,2.231,1.557,3.473,6.895.435,1.871,2.918,16.878,2.656,18.536s-3.714,5.951-5.459,6.3S142.2,133.257,142.2,133.257l5.136-7.6L162.04,135.74Z" transform="translate(-78.856 -66.368)" fill="#ff725e"/>
        <path id="Trazado_829967" data-name="Trazado 829967" d="M182.776,154.393c-.036.012-.163-.518-.617-1.326a6.35,6.35,0,0,0-1.008-1.313,5.783,5.783,0,0,0-1.735-1.211l-.012-.006-.007,0-3.794-2.47c-2.275-1.49-4.328-2.85-5.807-3.845l-1.745-1.188a5.008,5.008,0,0,1-.623-.461,4.936,4.936,0,0,1,.672.386l1.786,1.126c1.5.959,3.569,2.3,5.845,3.788l3.78,2.492-.019-.01a6.085,6.085,0,0,1,2.775,2.657,4.8,4.8,0,0,1,.263.571,3.333,3.333,0,0,1,.155.438,1.735,1.735,0,0,1,.092.376" transform="translate(-92.847 -79.062)" fill="#263238"/>
        <path id="Trazado_829968" data-name="Trazado 829968" d="M167.741,171.4a4.038,4.038,0,0,1-.621-.347c-.39-.241-.943-.607-1.6-1.089-1.328-.958-3.1-2.357-5.021-3.955s-3.617-3.085-4.837-4.175c-.609-.545-1.1-.992-1.431-1.3a4.167,4.167,0,0,1-.5-.5,4.112,4.112,0,0,1,.562.437l1.479,1.248c1.246,1.057,2.962,2.524,4.877,4.12s3.671,3.013,4.97,4c.646.5,1.183.883,1.556,1.146a4.217,4.217,0,0,1,.572.422" transform="translate(-85.249 -88.74)" fill="#263238"/>
        <path id="Trazado_829969" data-name="Trazado 829969" d="M188.515,132.6a9.8,9.8,0,0,1-.163,1.506c-.131.926-.327,2.2-.58,3.606s-.52,2.67-.746,3.578a8.346,8.346,0,0,1-.43,1.453,11.879,11.879,0,0,1,.27-1.489c.185-.915.427-2.18.678-3.583.247-1.369.47-2.608.646-3.591a9.78,9.78,0,0,1,.324-1.479" transform="translate(-103.475 -73.536)" fill="#263238"/>
        <path id="Trazado_829970" data-name="Trazado 829970" d="M167.527,107.566c-.132-.058-1.081,2.562-1.8,3.563s-4.283,5.244-4.844,6-3.747,3.553-3.747,3.553l1.966,3.575.861-.6s2.562.32,3.442-1.4,1.081-3.082,1.521-3.683,1.718-1.868,1.841-2.842a2.224,2.224,0,0,0-.481-1.648s.993-2.115,1.718-4.076.164-2.162-.477-2.442" transform="translate(-87.14 -59.65)" fill="#ae7461"/>
        <path id="Trazado_829971" data-name="Trazado 829971" d="M172.563,119.031a5.569,5.569,0,0,1,.591-.958l1.537-2.229a7.817,7.817,0,0,0,.769-1.244,2.022,2.022,0,0,0,.07-1.146,2.887,2.887,0,0,0-.095-.442.439.439,0,0,0-.189-.242.828.828,0,0,0-.276-.053c-.008-.007.1-.094.313-.029a.517.517,0,0,1,.271.272,2.486,2.486,0,0,1,.137.462,2.1,2.1,0,0,1-.031,1.253,7.029,7.029,0,0,1-.778,1.3c-.6.872-1.174,1.642-1.6,2.193a5.29,5.29,0,0,1-.724.862" transform="translate(-95.694 -62.478)" fill="#6f4439"/>
        <path id="Trazado_829972" data-name="Trazado 829972" d="M165.564,130.724a9.469,9.469,0,0,0,.949-1.137,6.3,6.3,0,0,0,.683-1.441c.1-.286.178-.592.256-.914a1.6,1.6,0,0,1,.191-.5,4.491,4.491,0,0,1,.3-.443c.437-.567.906-1.053,1.322-1.5a5.739,5.739,0,0,0,.926-1.3,12.639,12.639,0,0,1,.766-1.287,7.74,7.74,0,0,1-.623,1.366c-.108.205-.228.429-.371.666a3.9,3.9,0,0,1-.542.7c-.408.456-.87.945-1.294,1.5a2.093,2.093,0,0,0-.457.86c-.081.324-.169.638-.274.93a5.9,5.9,0,0,1-.75,1.464,4.449,4.449,0,0,1-.748.817,1.228,1.228,0,0,1-.337.227" transform="translate(-91.813 -67.765)" fill="#6f4439"/>
        <path id="Trazado_829973" data-name="Trazado 829973" d="M108.3,120.763c-.262.087-2.615,1.074-3.857,6.411-.435,1.871-2.918,16.879-2.656,18.536s3.714,5.951,5.459,6.3,23.087-18.152,23.087-18.152l-5.486-8.113L111.486,135.6Z" transform="translate(-56.434 -66.969)" fill="#ff725e"/>
        <path id="Trazado_829974" data-name="Trazado 829974" d="M113.638,155.623a.545.545,0,0,1,.088-.085L114,155.3l1.06-.894,3.969-3.3,13.548-11.155-.024.149-3.417-5.306-1.926-3,.165.03c-7.38,5.418-13.725,10.179-17.81,12.929l-.006,0-.008,0a5.829,5.829,0,0,0-1.8,1.278,6.148,6.148,0,0,0-.984,1.331,11.388,11.388,0,0,0-.561,1.276.369.369,0,0,1,.02-.089l.077-.257a3.069,3.069,0,0,1,.15-.413,4.506,4.506,0,0,1,.253-.55,6.044,6.044,0,0,1,.972-1.367,5.866,5.866,0,0,1,1.828-1.331l-.014.008c4.052-2.793,10.374-7.584,17.748-13.008l.1-.073.066.1,1.927,2.994,3.413,5.309.055.085-.078.064-13.6,11.093-4.011,3.244-1.085.864-.284.22a.541.541,0,0,1-.1.069" transform="translate(-58.894 -72.967)" fill="#263238"/>
        <path id="Trazado_829975" data-name="Trazado 829975" d="M121.9,133.259a9.851,9.851,0,0,1,.1,1.392c.056.93.125,2.082.2,3.357.081,1.313.131,2.5.134,3.367a7.256,7.256,0,0,1-.059,1.4,9.853,9.853,0,0,1-.1-1.392c-.056-.93-.125-2.082-.2-3.358-.081-1.312-.131-2.5-.134-3.367a7.211,7.211,0,0,1,.059-1.4" transform="translate(-67.564 -73.899)" fill="#263238"/>
      </g>
    </g>
  </g>
</svg>
