<svg xmlns="http://www.w3.org/2000/svg" xmlns:xlink="http://www.w3.org/1999/xlink" width="400" height="287" viewBox="0 0 400 287">
  <defs>
    <clipPath id="clip-path">
      <rect id="Rectángulo_382376" data-name="Rectángulo 382376" width="353" height="250.139" fill="none"/>
    </clipPath>
    <clipPath id="clip-path-3">
      <rect id="Rectángulo_382356" data-name="Rectángulo 382356" width="46.146" height="51.794" fill="none"/>
    </clipPath>
    <clipPath id="clip-path-4">
      <rect id="Rectángulo_382357" data-name="Rectángulo 382357" width="6.672" height="7.685" fill="none"/>
    </clipPath>
    <clipPath id="clip-path-5">
      <rect id="Rectángulo_382358" data-name="Rectángulo 382358" width="53.565" height="41.519" fill="none"/>
    </clipPath>
    <clipPath id="clip-path-6">
      <rect id="Rectángulo_382360" data-name="Rectángulo 382360" width="3.558" height="11.651" fill="none"/>
    </clipPath>
    <clipPath id="clip-path-7">
      <rect id="Rectángulo_382361" data-name="Rectángulo 382361" width="6.332" height="6.424" fill="none"/>
    </clipPath>
    <clipPath id="clip-path-8">
      <rect id="Rectángulo_382363" data-name="Rectángulo 382363" width="65.898" height="77.104" fill="none"/>
    </clipPath>
    <clipPath id="clip-path-9">
      <rect id="Rectángulo_382365" data-name="Rectángulo 382365" width="45.11" height="33.152" fill="none"/>
    </clipPath>
    <clipPath id="clip-path-10">
      <rect id="Rectángulo_382367" data-name="Rectángulo 382367" width="24.293" height="6.143" fill="none"/>
    </clipPath>
    <clipPath id="clip-path-11">
      <rect id="Rectángulo_382368" data-name="Rectángulo 382368" width="15.113" height="39.947" fill="none"/>
    </clipPath>
    <clipPath id="clip-path-12">
      <rect id="Rectángulo_382370" data-name="Rectángulo 382370" width="29.193" height="8.684" fill="none"/>
    </clipPath>
    <clipPath id="clip-path-13">
      <rect id="Rectángulo_382372" data-name="Rectángulo 382372" width="29.192" height="8.684" fill="none"/>
    </clipPath>
  </defs>
  <g id="Grupo_1080613" data-name="Grupo 1080613" transform="translate(-180 -1005)">
    <g id="Grupo_1080612" data-name="Grupo 1080612" transform="translate(190.093 959.229)">
      <g id="Grupo_1080611" data-name="Grupo 1080611" transform="translate(13.407 64.202)" clip-path="url(#clip-path)">
        <g id="Grupo_1080610" data-name="Grupo 1080610">
          <g id="Grupo_1080609" data-name="Grupo 1080609" clip-path="url(#clip-path)">
            <path id="Trazado_829977" data-name="Trazado 829977" d="M183.858.171c-7.28.834-15.538,6.441-16.479,12.984-3.362-5.692-15.1-7.282-22.147-5.281-18.6,5.28-20.83,27.63-10.01,40.223,5.824,6.777,13.344,12.223,21.293,16.876,6.657,3.9,23.372,11.646,23.409,11.6.052.028,12.556-13.5,17.228-19.641,5.579-7.329,10.459-15.228,13.264-23.713,5.211-15.764-7.348-35.25-26.559-33.05" transform="translate(-78.057 0)" fill="#d34e4e"/>
            <g id="Grupo_1080575" data-name="Grupo 1080575" transform="translate(87.754 24.981)" opacity="0.12" style="mix-blend-mode: multiply;isolation: isolate">
              <g id="Grupo_1080574" data-name="Grupo 1080574">
                <g id="Grupo_1080573" data-name="Grupo 1080573" clip-path="url(#clip-path-3)">
                  <path id="Trazado_829978" data-name="Trazado 829978" d="M264.262,74.234a104.789,104.789,0,0,1-13,18.808c-4.85,5.57-10.8,10.764-17.929,13.517a26.416,26.416,0,0,1-10.355,1.818c6.951,3.461,14.446,6.923,14.471,6.893.052.028,12.557-13.5,17.228-19.641,5.579-7.33,10.459-15.228,13.264-23.713a23.861,23.861,0,0,0,1.163-8.44,75.971,75.971,0,0,1-4.842,10.758" transform="translate(-222.977 -63.476)"/>
                </g>
              </g>
            </g>
            <path id="Trazado_829979" data-name="Trazado 829979" d="M219.159,51.653l-14.778,3.315-9.232-18.435a1.06,1.06,0,0,0-1.95.386l-4.784,36.215q-.139,1.049-.277,2.1L175.9,54.435,173.936,51.1a1.07,1.07,0,0,0-1.893.139l-3.536,11.979-16.621,3.288a.97.97,0,1,0,.377,1.9L169.511,65a1.033,1.033,0,0,0,.78-.644l3.03-10.266,12.557,21.335,1.963,3.335a1.06,1.06,0,0,0,1.95-.386l4.784-36.215.229-1.732,8.07,16.114a1.037,1.037,0,0,0,1.113.506l15.551-3.488a.97.97,0,1,0-.377-1.9" transform="translate(-91.621 -21.843)" fill="#fff"/>
            <path id="Trazado_829980" data-name="Trazado 829980" d="M670.833,59.993h0a.426.426,0,0,1-.567.206l-16.612-7.754a.427.427,0,0,1,.361-.773l16.612,7.754a.426.426,0,0,1,.206.567" transform="translate(-396.256 -31.312)" fill="#3b455a"/>
            <path id="Trazado_829981" data-name="Trazado 829981" d="M689.107,66.7l-.928,1.987-8.867-4.139a1.1,1.1,0,1,1,.928-1.987Z" transform="translate(-411.582 -37.876)" fill="#8ec3cb"/>
            <path id="Trazado_829982" data-name="Trazado 829982" d="M863.148,148.641l-1.262,2.405-10.678-5.6-3.816,7.275,10.678,5.6-1.262,2.405a1.988,1.988,0,0,0,3.52,1.847l6.34-12.086a1.988,1.988,0,0,0-3.52-1.847" transform="translate(-513.896 -88.204)" fill="#474ebb"/>
            <g id="Grupo_1080578" data-name="Grupo 1080578" transform="translate(339.597 60.441)" opacity="0.12">
              <g id="Grupo_1080577" data-name="Grupo 1080577">
                <g id="Grupo_1080576" data-name="Grupo 1080576" clip-path="url(#clip-path-4)">
                  <path id="Trazado_829983" data-name="Trazado 829983" d="M862.9,160.853l3.816-7.275,2.855,1.5-5.889,6.188Z" transform="translate(-862.896 -153.578)"/>
                </g>
              </g>
            </g>
            <path id="Trazado_829984" data-name="Trazado 829984" d="M856.571,135.128l-9.082,17.313a1.09,1.09,0,0,1-1.472.459l-4.2-2.2,10.094-19.244,4.2,2.2a1.09,1.09,0,0,1,.459,1.472" transform="translate(-510.517 -79.72)" fill="#3b455a"/>
            <path id="Trazado_829985" data-name="Trazado 829985" d="M766.12,83.239a1.871,1.871,0,0,0-2.388.879l-.741,1.413a1.8,1.8,0,0,1-2.428.757L712.019,60.824a2.826,2.826,0,0,0-1.9-.261l-13.9,2.978a.9.9,0,0,0-.611.466l-1.439,2.762a.9.9,0,0,0-.032.765l5.47,13.063a2.825,2.825,0,0,0,1.294,1.411l48.548,25.466a1.8,1.8,0,0,1,.757,2.428l-.741,1.413a1.871,1.871,0,0,0,.635,2.464,1.829,1.829,0,0,0,2.575-.71L767,85.761a1.829,1.829,0,0,0-.88-2.522" transform="translate(-420.913 -36.69)" fill="#8ec3cb"/>
            <g id="Grupo_1080581" data-name="Grupo 1080581" transform="translate(275.075 26.565)" opacity="0.17">
              <g id="Grupo_1080580" data-name="Grupo 1080580">
                <g id="Grupo_1080579" data-name="Grupo 1080579" clip-path="url(#clip-path-5)">
                  <path id="Trazado_829986" data-name="Trazado 829986" d="M715.051,67.861a3.037,3.037,0,0,0-1.769-.34l-12.589,1.569a.677.677,0,0,0-.532.347l-1.144,2.2a.679.679,0,0,0,.021.633l5.88,11.2a3.04,3.04,0,0,0,1.282,1.255l46.313,24.293Z" transform="translate(-698.948 -67.5)" fill="#dbe8eb"/>
                </g>
              </g>
            </g>
            <path id="Trazado_829987" data-name="Trazado 829987" d="M770.649,127.806l-3.238,6.173-1.184-.621,3.238-6.173a.125.125,0,0,1,.169-.053l.962.5a.125.125,0,0,1,.053.168" transform="translate(-464.674 -77.09)" fill="#3b455a"/>
            <path id="Trazado_829988" data-name="Trazado 829988" d="M728.652,105.777l-3.238,6.173-1.184-.621,3.238-6.173a.125.125,0,0,1,.169-.053l.962.5a.125.125,0,0,1,.053.169" transform="translate(-439.205 -63.731)" fill="#3b455a"/>
            <path id="Trazado_829989" data-name="Trazado 829989" d="M812.646,149.836l-3.238,6.173-1.184-.621,3.238-6.173a.125.125,0,0,1,.169-.053l.962.5a.125.125,0,0,1,.053.169" transform="translate(-490.143 -90.45)" fill="#3b455a"/>
            <path id="Trazado_829990" data-name="Trazado 829990" d="M790.107,146.609l-1.64,3.127-.972-.51,1.64-3.127a.1.1,0,0,1,.139-.043l.789.414a.1.1,0,0,1,.043.139" transform="translate(-477.572 -88.568)" fill="#3b455a"/>
            <path id="Trazado_829991" data-name="Trazado 829991" d="M748.11,124.58l-1.64,3.127-.971-.51,1.64-3.127a.1.1,0,0,1,.138-.043l.789.414a.1.1,0,0,1,.043.139" transform="translate(-452.103 -75.209)" fill="#3b455a"/>
            <path id="Trazado_829992" data-name="Trazado 829992" d="M328.283,420.53l-2.046,27.987-6.772,46.335h-5.207L310.969,452.1l-1.457-34.591Z" transform="translate(-187.702 -253.196)" fill="#ccd2d9"/>
            <path id="Trazado_829993" data-name="Trazado 829993" d="M321.647,612.461v2.815l5.631,2.816,2.816-2.816-2.816-2.815Z" transform="translate(-195.061 -371.424)" fill="#3b455a"/>
            <path id="Trazado_829994" data-name="Trazado 829994" d="M263.484,403.32l1.979,39.231,4.531,45.036h5.333l4.335-42.67,6.332-44.912Z" transform="translate(-159.788 -242.581)" fill="#ccd2d9"/>
            <path id="Trazado_829995" data-name="Trazado 829995" d="M280.17,620.932v2.884L274.4,626.7l-2.884-2.884,2.884-2.884Z" transform="translate(-164.661 -376.561)" fill="#3b455a"/>
            <path id="Trazado_829996" data-name="Trazado 829996" d="M296.205,218.535,290.747,218a27.385,27.385,0,0,1,.29-4.359c-1.517-.531-3.27-1.328-3.536-2.914a4.537,4.537,0,0,1,.087-1.508l1.061-6.188a5.536,5.536,0,0,1,.64-2.059,4.644,4.644,0,0,1,3.251-1.763,11.3,11.3,0,0,1,9.153,2.217,4.953,4.953,0,0,1,1.548,2.036,6.713,6.713,0,0,1-.22,3.92l-.931,3.564c-.357,1.366-.872,2.919-2.187,3.433-.7.273-1.523.194-2.156.6-1.115.711-.962,2.37-1.541,3.558" transform="translate(-174.332 -120.696)" fill="#efbfa5"/>
            <path id="Trazado_829997" data-name="Trazado 829997" d="M298.668,180.23a14.706,14.706,0,0,0-.1-4.727c-.2-.967-1.44-4.01-1.064-4.869-.7,1.49-2.6,1.9-4.238,2.064-6.141.613-12.994-.905-18.641,2.247a7.291,7.291,0,0,0-2.493,2.466,10.982,10.982,0,0,0-.015,11.614,15.74,15.74,0,0,0,1.712,2.152c1.29,1.395,2.832,3.117,4.6,3.632.04-1.584-1.41-6.579-.194-7.881,1.706-1.825,4.809-1.47,7.027-1.154a32.573,32.573,0,0,0,8.488.045,10.007,10.007,0,0,0,2.723-.578c2.056-.859,1.984-2.769,2.168-4.719q.014-.141.028-.293" transform="translate(-164.019 -103.48)" fill="#3b455a"/>
            <path id="Trazado_829998" data-name="Trazado 829998" d="M208.979,171.528l-.662-3.389,1.74-2.5-.342-.638-.8.39.85-2.488-.756-1.995-2.745-.725-2.7,1.153-.431,2.8,1.224,3.141.706,4.678Z" transform="translate(-123.189 -97.143)" fill="#efbfa5"/>
            <path id="Trazado_829999" data-name="Trazado 829999" d="M211.068,182.43l-5.2-.325,2.323,28.388,22.088,11.682,5.089-13.787L217.9,200.356Z" transform="translate(-124.846 -110.437)" fill="#ebb044"/>
            <path id="Trazado_830000" data-name="Trazado 830000" d="M367.447,139.768l.177-3.448-2.075-2.228.249-.68.849.272-1.193-2.342.467-2.082,2.615-1.105,2.833.76.822,2.713-.768,3.283-.038,4.731Z" transform="translate(-221.628 -77.719)" fill="#efbfa5"/>
            <path id="Trazado_830001" data-name="Trazado 830001" d="M337.388,150.175l5.1-1.057.4,19.64-2.006,15.179L327.838,203.1,317.15,187.634l12.409-9.119Z" transform="translate(-192.334 -90.432)" fill="#ebb044"/>
            <path id="Trazado_830002" data-name="Trazado 830002" d="M269.591,245.035l-17.245.73L243.641,278.9l-7.188,45.933,55.5,1.35L278.9,261.264Z" transform="translate(-143.395 -148.6)" fill="#ebb044"/>
            <path id="Trazado_830003" data-name="Trazado 830003" d="M529.2,197.833l-.634-3.311,1.708-2.434-.332-.624-.785.377.839-2.425-.731-1.951-2.677-.718-2.638,1.116-.431,2.734,1.183,3.071.672,4.57Z" transform="translate(-317.486 -113.252)" fill="#c1796b"/>
            <path id="Trazado_830004" data-name="Trazado 830004" d="M530.373,206.087l-5.21,4.427.74,22.736,8.763,6.1,16.747-2.145-2.234-14.389-13.988,2.694Z" transform="translate(-318.482 -124.98)" fill="#474ebb"/>
            <path id="Trazado_830005" data-name="Trazado 830005" d="M661.52,604.106l.655,3-5.19,4.279-3.577-2.368,2.268-3.642,5.19-4.278Z" transform="translate(-396.255 -364.535)" fill="#3b455a"/>
            <path id="Trazado_830006" data-name="Trazado 830006" d="M604.082,374l5.792,13.355.546,37.575,11.908,40.417-5.537,2.455-24.3-46.93-2.766-14.864-1.1-31.305Z" transform="translate(-356.969 -226.809)" fill="#474ebb"/>
            <path id="Trazado_830007" data-name="Trazado 830007" d="M555.95,376.14l-.455,39.378,7.421,50.773h5.706l3.6-46.849,7.808-46.848Z" transform="translate(-336.876 -225.957)" fill="#474ebb"/>
            <path id="Trazado_830008" data-name="Trazado 830008" d="M574.5,608.947v3.085l-6.17,3.085-3.085-3.085,3.085-3.085Z" transform="translate(-342.791 -369.292)" fill="#3a332d"/>
            <path id="Trazado_830009" data-name="Trazado 830009" d="M555.459,245.251l15.156-.562s9.067,7.956,13.753,28.63c4.771,21.051-.881,51.355-.881,51.355s-40.663-5.42-47.331-6.257l10.172-41.563Z" transform="translate(-325.149 -148.39)" fill="#474ebb"/>
            <path id="Trazado_830010" data-name="Trazado 830010" d="M588.133,220.8l5.31-.519a26.646,26.646,0,0,0-.282-4.241c1.475-.517,3.181-1.292,3.44-2.834a4.406,4.406,0,0,0-.085-1.468l-1.032-6.02a5.384,5.384,0,0,0-.622-2A4.517,4.517,0,0,0,591.7,202a10.993,10.993,0,0,0-8.9,2.156,4.817,4.817,0,0,0-1.506,1.981,6.532,6.532,0,0,0,.214,3.814l.905,3.466c.347,1.329.849,2.84,2.128,3.34.679.266,1.482.189,2.1.582,1.084.691.936,2.305,1.5,3.461" transform="translate(-352.392 -122.392)" fill="#c1796b"/>
            <path id="Trazado_830011" data-name="Trazado 830011" d="M555.059,185.615a17.077,17.077,0,0,1,.434-4.022c.472-2.155,3.015-3.124,5.217-3.277,4.755-.33,9.343-2.485,13.986-.822,2.654.951,6.219,1.179,8.62,2.52a7.091,7.091,0,0,1,2.426,2.4,10.684,10.684,0,0,1,.014,11.3,15.246,15.246,0,0,1-1.666,2.094c-1.254,1.357-2.755,3.033-4.479,3.534-.039-1.542,1.372-6.4.19-7.666-1.876-2.008-6.125-1.314-8.457-.823-2.543.535-4.812,2.332-7.333,2.714a9.5,9.5,0,0,1-5.669-1.558c-2.415-1.472-3.221-3.9-3.283-6.391" transform="translate(-336.61 -107.262)" fill="#3b455a"/>
            <path id="Trazado_830012" data-name="Trazado 830012" d="M569.259,249.67l-15.934,63.736-1.306,8.359,19.852,2.612s-.784-30.521-.522-34.59,3.205-12.871,3.657-22.354c.261-5.485,2-15.338.784-18.546Z" transform="translate(-334.769 -150.936)" fill="#fff"/>
            <path id="Trazado_830013" data-name="Trazado 830013" d="M47.909,614.077l-.082.854-.272,2.833-5.736,2.457L39.359,617.2l3-2.645.277-.119.033.352Z" transform="translate(-23.869 -372.404)" fill="#3b455a"/>
            <path id="Trazado_830014" data-name="Trazado 830014" d="M45.4,537.412l-.292.04H44.8l-4.929.711L35.3,489.984l-.559-2.259c4.291.063,9.39.127,14.528.168Z" transform="translate(-21.067 -295.778)" fill="#c1796b"/>
            <path id="Trazado_830015" data-name="Trazado 830015" d="M94.011,488.087l-1.056,12.519L82.366,533.063l-5.174-.687-.084.634-.029,0,3.812-33.449-3.265-11.426c6,.037,11.878.036,16.384-.044" transform="translate(-46.744 -295.998)" fill="#c1796b"/>
            <path id="Trazado_830016" data-name="Trazado 830016" d="M81.95,602.285l.325.043,2.366,3.248-3.133,2.517-5.116-3.613.3-2.248,5.056.672Z" transform="translate(-46.328 -365.22)" fill="#3b455a"/>
            <path id="Trazado_830017" data-name="Trazado 830017" d="M82.411,601.308l-.2.619-5.056-.672.085-.634Z" transform="translate(-46.789 -364.243)" fill="#3e3d3b"/>
            <path id="Trazado_830018" data-name="Trazado 830018" d="M20.354,296.2c-.665,3.132-3.144,5.429-5.564,7.6a131.808,131.808,0,0,1,5.421-12.1,10.694,10.694,0,0,1,.143,4.5" transform="translate(-8.969 -176.9)" fill="#8ec3cb"/>
            <path id="Trazado_830019" data-name="Trazado 830019" d="M3.182,344.053s4.678.093,11.256.189c4.291.063,9.39.127,14.528.167l2.683.019c6,.037,11.878.035,16.384-.044,3.4-.06,6.028-.165,7.336-.331L44.385,287.23l-.043-.176L41.42,275.16l-4.261-17.343-10.621-5.062a6.176,6.176,0,0,1-3.031-1.445l-.386-.184a8.6,8.6,0,0,0,.452,1.349q.109.25.234.476c.885,1.615,2.256,3.131,2.222,4.973a4.336,4.336,0,0,1-.149,1.006,16.78,16.78,0,0,1-.625,1.764c-2.358,6.174.235,13.145,4.068,18.362,1.964,2.672,4.557,4.989,5.676,8.111a6.906,6.906,0,0,1,.366,1.691c.261,2.813-1.064,5.877-3.773,6.335a7.306,7.306,0,0,0-1.9.338c-2,.93-1.136,4.212-2.618,5.848-.957,1.057-2.576,1.094-4,1.053a2.566,2.566,0,0,1-1.35-.289c-.833-.543-.753-1.753-1-2.717a5,5,0,0,0-3.947-3.278,24.94,24.94,0,0,0-5.388-.178,13.778,13.778,0,0,1-6.537-1.392,8.57,8.57,0,0,1-2.119-1.6c-3.549,21.7.448,51.071.448,51.071" transform="translate(-0.767 -152.295)" fill="#8ec3cb"/>
            <path id="Trazado_830020" data-name="Trazado 830020" d="M56.108,227.664c-1-4.313.083-11.127,2.967-13.67a5.477,5.477,0,0,1,3.874-1.192c.683-.005.911.171,1.264.109a6.987,6.987,0,0,1,1.663,4.665c-.111,1.343-.885,2.367-.947,3.809-.123,2.625-3.877,5.261-2.435,7.868a6.175,6.175,0,0,1-2.916.261l-3.031-1.445q-.226-.192-.439-.4" transform="translate(-33.807 -129.052)" fill="#c1796b"/>
            <path id="Trazado_830021" data-name="Trazado 830021" d="M60.813,253.038a6.172,6.172,0,0,1-3.031-1.445Z" transform="translate(-35.042 -152.577)" fill="#e1cfb5"/>
            <path id="Trazado_830022" data-name="Trazado 830022" d="M74.82,218.291c.062-1.442.836-2.466.947-3.809a6.986,6.986,0,0,0-1.663-4.665,1.739,1.739,0,0,0,.6-.266,3.879,3.879,0,0,0,1.221-1.851,6.065,6.065,0,0,1,2.583,4.709,17.578,17.578,0,0,1-.581,7.742,9.57,9.57,0,0,1-5.126,5.86c-.14.055-.279.1-.417.148-1.442-2.607,2.312-5.243,2.435-7.868" transform="translate(-43.698 -125.959)" fill="#c1796b"/>
            <path id="Trazado_830023" data-name="Trazado 830023" d="M.089,253.262a6.816,6.816,0,0,0,1.878,3.554q.114-.7.238-1.383-.125.686-.238,1.383a8.569,8.569,0,0,0,2.119,1.6,13.781,13.781,0,0,0,6.537,1.391,24.932,24.932,0,0,1,5.388.178,5,5,0,0,1,3.947,3.277c.246.963.165,2.174,1,2.717a2.569,2.569,0,0,0,1.35.29c1.425.041,3.044,0,4-1.053,1.481-1.636.616-4.918,2.618-5.848a7.283,7.283,0,0,1,1.9-.338c2.708-.458,4.033-3.522,3.773-6.335A6.9,6.9,0,0,0,34.232,251c-1.119-3.122-3.712-5.439-5.676-8.111-3.834-5.217-6.426-12.188-4.069-18.362a16.775,16.775,0,0,0,.625-1.764,4.342,4.342,0,0,0,.149-1.006c.034-1.841-1.336-3.357-2.222-4.972q-.124-.226-.234-.477a8.6,8.6,0,0,1-.451-1.349c-.018-.073-.036-.147-.054-.222a10.718,10.718,0,0,1-2.019-11.515q.153-.321.324-.628-.171.307-.324.628A10.718,10.718,0,0,0,22.3,214.74c-1-4.313.083-11.127,2.967-13.67a5.478,5.478,0,0,1,3.874-1.192c.683-.005.911.172,1.263.109a1.731,1.731,0,0,0,.6-.266,3.878,3.878,0,0,0,1.22-1.852,6.065,6.065,0,0,1,2.584,4.709,17.577,17.577,0,0,1-.581,7.742,9.57,9.57,0,0,1-5.126,5.86c-.14.055-.279.1-.417.148a3.421,3.421,0,0,0,.466.648c1.317,1.448,3.429,1.785,5.37,2.035a1.435,1.435,0,0,0,.7-.027,1.01,1.01,0,0,0,.555-.954,4.106,4.106,0,0,0-.246-1.142c-1.128-3.928.871-8.415,1.2-12.375s-.483-8.253-3.656-10.925a8.544,8.544,0,0,0-1.56.6q-.074-.1-.153-.194c-4.592-5.514-11.075-.8-14.563,3.411a30.492,30.492,0,0,0-6.371,11.861A47.528,47.528,0,0,0,9.5,223.652c.254,2.458,1.226,4.871,1.74,7.278a10.688,10.688,0,0,1,.144,4.5c-.665,3.132-3.144,5.429-5.564,7.6q-.331.848-.658,1.719t-.65,1.769q-.208.578-.4,1.175.195-.6.4-1.175.322-.9.65-1.769t.658-1.719c-.335.3-.669.6-1,.9-2.7,2.453-5.348,5.738-4.736,9.332m24.145-54.579a10.768,10.768,0,0,1,1.1-.637,10.768,10.768,0,0,0-1.1.637" transform="translate(0 -116.129)" fill="#3b455a"/>
            <path id="Trazado_830024" data-name="Trazado 830024" d="M746.345,417.586l22.382-8.231-4.613,39.21,2.673,33.828.236,2.152-4.4.116-10.253-31.667-5.219-32.1Z" transform="translate(-452.617 -248.251)" fill="#efbfa5"/>
            <path id="Trazado_830025" data-name="Trazado 830025" d="M778.522,600.524l4.579-.116,1.17,3.864-.116.035.029,0-7.57,4.486-3.6.4-.457-4.114.972-.712Z" transform="translate(-468.513 -364.115)" fill="#3b455a"/>
            <path id="Trazado_830026" data-name="Trazado 830026" d="M707.606,424.252l6.875,68.71,4.426.65,4.3-38.275,7.716-36.1Z" transform="translate(-429.124 -254.243)" fill="#efbfa5"/>
            <path id="Trazado_830027" data-name="Trazado 830027" d="M715.66,606.527l-5.868,3.328.55,2.769,10.486-1.58-.617-3.99Z" transform="translate(-430.449 -367.825)" fill="#3b455a"/>
            <path id="Trazado_830028" data-name="Trazado 830028" d="M678.717,340.525c-1.417-.983-1.447-2.7-1.444-4.411a42.826,42.826,0,0,1,1.321-9.642,144.712,144.712,0,0,0,3.7-20.549c1.811-19.661,8.02-32.855,8.02-32.855l2-5.343q.6-1.042,1.242-2.059c2.5-3.927,6.847-10.6,11.494-11.691.1-.023.195-.045.293-.067,4.885-1.072,11.145-.575,15.56,1.8a15.426,15.426,0,0,1,2.322,1.647c2.159,1.742,3.919,2.684,4.851,5.338a48.52,48.52,0,0,1,1.441,7.206c.905,4.851,1.445,9.76,2.168,14.64,1.356,9.15,2.507,18.33,3.957,27.466.746,4.7,1.5,9.413,1.85,14.164.312,4.2,4.1,8.466,6.231,12.231.741,1.31-9.9,4.7-10.855,4.927-4.415,1.028-9.112.765-13.663.786q-14.961.067-29.9-.922c-3.307-.219-7.382-.85-10.317-2.5q-.145-.081-.274-.171" transform="translate(-410.728 -153.656)" fill="#d34e4e"/>
            <path id="Trazado_830029" data-name="Trazado 830029" d="M728.528,253.285s5.618-1.517,6.394,11.16S736.992,309.2,738.8,318s4.527,26.048,4.527,26.048l-17.2.6-19.661-1.552s6.726-12.417,7.761-21.213-.776-41.909,3.622-54.327,5.32-14.041,10.68-14.264" transform="translate(-428.432 -153.569)" fill="#fff"/>
            <path id="Trazado_830030" data-name="Trazado 830030" d="M684.094,282.458l-8.972-1.384v-7.729l21.649-16.5,6.985-2.069-3.363,9.055Z" transform="translate(-409.424 -154.508)" fill="#d34e4e"/>
            <path id="Trazado_830031" data-name="Trazado 830031" d="M734.622,211.294c-.85,2.552.38,5.274,1.46,7.6.958,2.063,1.291,3.42-1.141,3.977-1.37.314-3.8.9-5-.15-.909-.795-.4-3.248.044-4.223.338-.745,1.233-1.122,1.551-1.876a2.629,2.629,0,0,0,.155-.992,13.7,13.7,0,0,0-.563-4.074,13.906,13.906,0,0,1-.706-2.707c-.116-1.35.838-2.923,1.34-4.163.933-2.308,4.182-5.4,6.9-3.592a3.974,3.974,0,0,1,1.282,1.79,3.3,3.3,0,0,1,.356,1.275c.021,1.772-1.6,2.071-2.714,2.914a8.876,8.876,0,0,0-2.965,4.222" transform="translate(-442.361 -121.621)" fill="#3b455a"/>
            <path id="Trazado_830032" data-name="Trazado 830032" d="M746.66,225.48a7.67,7.67,0,0,1-5.091-4.793,15.362,15.362,0,0,1-.688-7.169c.816-8.025,10.8-7.51,14.179-1.359,2.946,5.36-1.54,14.938-8.4,13.322" transform="translate(-449.226 -125.848)" fill="#efbfa5"/>
            <path id="Trazado_830033" data-name="Trazado 830033" d="M755.693,247.882q.059,1.371.119,2.742a.42.42,0,0,0,.541.483l2.235-.078a2.435,2.435,0,0,0,1.079-.2,2.049,2.049,0,0,0,.746-2.149,6.938,6.938,0,0,1-.231-2.4c-1.538.758-3-.955-4.538-.2Z" transform="translate(-458.256 -149.114)" fill="#efbfa5"/>
            <path id="Trazado_830034" data-name="Trazado 830034" d="M752.07,186.968c2.621.891,4.3,3.542,6.86,4.6,1.467.607,3.2.684,4.4,1.728,2.682,2.338.526,7.243,2.73,10.037.458.581,1.076,1.02,1.536,1.6a7.858,7.858,0,0,1,1.211,4.549,5.016,5.016,0,0,1-.038,1.109c-.344,3.679-5.686,3.445-7.807,3.209-2.329-.259-1.553-1.552-1.553-1.552l.085-.1a4.453,4.453,0,0,0-1.564-4.039,5.462,5.462,0,0,1-1.258-1.1c-.69-1.053-.032-2.448-.133-3.7-.408-5.052-8.887-3.969-11.28-7.567-2.934-4.411,1.862-10.447,6.812-8.765" transform="translate(-451.414 -113.211)" fill="#3b455a"/>
            <path id="Trazado_830035" data-name="Trazado 830035" d="M808.824,162.825l-3.246-4.541-2,1.3,1.534,3.6-1.232.177,3.251,3.548,2.263-1.073Z" transform="translate(-487.325 -95.99)" fill="#efbfa5"/>
            <path id="Trazado_830036" data-name="Trazado 830036" d="M782,210.947l16.98-13.714-6.3-20.952,6.262-2.55,11.675,27.628-17,21.45Z" transform="translate(-474.237 -105.358)" fill="#d34e4e"/>
            <path id="Trazado_830037" data-name="Trazado 830037" d="M718.865,321.748l5.071-.838-.264-2.183-3.6-.195.354-1.09-4.252,1.246-.032,2.306Z" transform="translate(-434.301 -192.511)" fill="#efbfa5"/>
            <path id="Trazado_830038" data-name="Trazado 830038" d="M680.212,307.542l-.026.442,12.41,3.8-.3,4.573-17.177-4.405Z" transform="translate(-409.424 -186.507)" fill="#d34e4e"/>
            <path id="Trazado_830039" data-name="Trazado 830039" d="M529.579,555.293H480.355a7.04,7.04,0,0,1-7.04-7.04V514.882a7.04,7.04,0,0,1,7.04-7.04h49.224a7.04,7.04,0,0,1,7.04,7.04v33.371a7.04,7.04,0,0,1-7.04,7.04" transform="translate(-287.039 -307.978)" fill="#d34e4e"/>
            <path id="Trazado_830040" data-name="Trazado 830040" d="M541.884,484.923v-9.1a1.646,1.646,0,0,0-1.707-1.521H515.525a1.646,1.646,0,0,0-1.707,1.521V484.9a2.583,2.583,0,0,0-2.487,2.6h8.364a2.583,2.583,0,0,0-2.463-2.6v-7.557H538.47V484.9H538.3a2.583,2.583,0,0,0-2.56,2.606H544.1a2.589,2.589,0,0,0-2.219-2.58" transform="translate(-310.094 -287.638)" fill="#d34e4e"/>
            <path id="Trazado_830041" data-name="Trazado 830041" d="M542.946,537.162H531.7V525.718a.79.79,0,0,0-.772-.786h-6.391a.79.79,0,0,0-.772.786v11.444H512.52a.79.79,0,0,0-.772.785v6.5a.731.731,0,0,0,.222.55.705.705,0,0,0,.55.236h11.246v11.444a.79.79,0,0,0,.772.786h6.391a.706.706,0,0,0,.54-.225.729.729,0,0,0,.232-.56V545.236h11.246a.79.79,0,0,0,.772-.786v-6.5a.79.79,0,0,0-.772-.785" transform="translate(-310.347 -318.342)" fill="#fff"/>
            <path id="Trazado_830042" data-name="Trazado 830042" d="M264.139,278.152a14.782,14.782,0,1,0,11.3-17.634,14.807,14.807,0,0,0-11.3,17.634" transform="translate(-159.978 -157.785)" fill="#3b455a"/>
            <path id="Trazado_830043" data-name="Trazado 830043" d="M275.779,284.32a10.16,10.16,0,1,0,7.767-12.121,10.178,10.178,0,0,0-7.767,12.121" transform="translate(-167.102 -164.932)" fill="#ccd2d9"/>
            <rect id="Rectángulo_382359" data-name="Rectángulo 382359" width="3.961" height="47.289" transform="matrix(0.977, -0.212, 0.212, 0.977, 117.978, 123.695)" fill="#ccd2d9"/>
            <path id="Trazado_830044" data-name="Trazado 830044" d="M293.007,294.1a3.478,3.478,0,1,0,2.659-4.149,3.484,3.484,0,0,0-2.659,4.149" transform="translate(-177.644 -175.791)" fill="#3b455a"/>
            <g id="Grupo_1080584" data-name="Grupo 1080584" transform="translate(116.23 120.399)" opacity="0.13">
              <g id="Grupo_1080583" data-name="Grupo 1080583">
                <g id="Grupo_1080582" data-name="Grupo 1080582" clip-path="url(#clip-path-6)">
                  <path id="Trazado_830045" data-name="Trazado 830045" d="M296.446,306.284l2.444,11.265a17.862,17.862,0,0,1-3.558-.148l.5-11.475Z" transform="translate(-295.332 -305.927)"/>
                </g>
              </g>
            </g>
            <path id="Trazado_830046" data-name="Trazado 830046" d="M387.858,397.059c-.86.153-1.6.894-2.55.8.213,1.359-.269-1.8-.136-.424q.266,2.753.333,5.527.037,1.571.005,3.146c0,.181-.042,1.164-.009.421-.012.277-.022.553-.035.83q-.04.8-.1,1.6a55.09,55.09,0,0,1-.949,6.962c-.24,1.176-.525,2.349-.863,3.516q-.265.917-.574,1.828c-.088.259-.182.518-.274.777-.017.048-.046.128-.07.189s-.037.1-.057.146a33.587,33.587,0,0,1-3.437,6.528c-.176.255-.359.508-.544.76.191-.265-.292.376-.39.5q-.533.657-1.114,1.291a28.913,28.913,0,0,1-2.64,2.506c.179-.157-.568.44-.706.542q-.4.3-.825.58-.761.514-1.567.984-.543.316-1.1.611c-.126.066-.255.128-.379.2l-.036.02-.039.017c-.608.266-1.2.541-1.826.786q-1.172.46-2.391.832-.512.156-1.03.3c-.154.042-.31.082-.465.123l-.03.007a47.883,47.883,0,0,1-5.009.836c-.484.049-.967.081-1.452.116l-.094.005-.058,0-.325.016.194-.01c-.069,0-.141.005-.19.005-.729.005-1.455.005-2.179-.03q-1.164-.057-2.31-.2c-.321-.041-.639-.094-.959-.138l-.021,0-.048-.011c-.136-.031-.276-.054-.413-.083a27.447,27.447,0,0,1-3.937-1.13c-.19-.07-1.355-.566-.623-.237-.27-.121-.544-.238-.811-.364q-.85-.4-1.657-.844a30.61,30.61,0,0,1-3.088-1.973c-.076-.057-.178-.132-.225-.169-.15-.119-.3-.237-.451-.357q-.336-.271-.663-.549-.7-.592-1.349-1.213a37.318,37.318,0,0,1-2.621-2.76q-.652-.76-1.261-1.543c-.114-.147-.532-.71-.3-.388-.167-.229-.334-.457-.5-.688a58.946,58.946,0,0,1-6.749-12.832q-.6-1.531-1.124-3.082c-.093-.272-.183-.545-.274-.818l-.022-.066-.039-.125c-.147-.471-.294-.942-.435-1.414q-.73-2.448-1.308-4.929c-.353-1.52-.688-3.051-.907-4.595-.432-3.04-6.576-2.167-6.144.868.015.107.035.214.049.321a55.37,55.37,0,0,0,1.511,6.888,81.035,81.035,0,0,0,4.5,12.729c4.11,9.013,10.6,18.543,22.149,22.72,12.1,4.375,28.014.516,36.47-8.18,7.99-8.217,9.941-18.953,10.243-28.592.146-4.646.629-4.841-.159-9.419-1.078.461-2.494.138-3.613.337M364.1,438.946c.427-.111.159-.037,0,0M382.611,422.3h0" transform="translate(-192.052 -240.59)" fill="#7fc5a3"/>
            <path id="Trazado_830047" data-name="Trazado 830047" d="M498.094,155.779l13.27-2.224a1.8,1.8,0,0,1,2.04,1.46q2.54,15.162,5.078,30.323l.717,4.278a1.771,1.771,0,0,1-3.492.585q-2.54-15.161-5.078-30.323l-.423-2.525-11.524,1.931a1.778,1.778,0,0,1-.587-3.505" transform="translate(-301.204 -93.109)" fill="#ccd2d9"/>
            <path id="Trazado_830048" data-name="Trazado 830048" d="M484.061,162.612l4.029-.675-1.174-7.01-4.03.675a3,3,0,0,0-2.461,3.449l.185,1.1a3,3,0,0,0,3.45,2.459" transform="translate(-291.326 -93.955)" fill="#3b455a"/>
            <path id="Trazado_830049" data-name="Trazado 830049" d="M496.725,160.918l3.415-.572a3.462,3.462,0,0,0,2.843-3.985l-.213-1.274a3.461,3.461,0,0,0-3.987-2.841l-3.414.572Z" transform="translate(-300.413 -92.299)" fill="#ccd2d9"/>
            <path id="Trazado_830050" data-name="Trazado 830050" d="M389.517,173.34l-13.27,2.224a1.8,1.8,0,0,0-1.453,2.045q2.54,15.162,5.079,30.323.358,2.139.716,4.278a1.771,1.771,0,0,0,3.492-.585Q381.542,196.464,379,181.3q-.212-1.263-.423-2.525l11.524-1.931a1.778,1.778,0,0,0-.587-3.505" transform="translate(-227.277 -105.104)" fill="#ccd2d9"/>
            <path id="Trazado_830051" data-name="Trazado 830051" d="M419.161,173.459l-4.03.675-1.174-7.01,4.029-.675a3,3,0,0,1,3.45,2.459l.185,1.1a3,3,0,0,1-2.46,3.448" transform="translate(-251.042 -100.917)" fill="#3b455a"/>
            <path id="Trazado_830052" data-name="Trazado 830052" d="M406.747,174.713l-3.414.572a3.461,3.461,0,0,1-3.986-2.841l-.214-1.274a3.461,3.461,0,0,1,2.843-3.985l3.414-.572Z" transform="translate(-242.023 -101.041)" fill="#ccd2d9"/>
            <g id="Grupo_1080587" data-name="Grupo 1080587" transform="translate(193.27 158.28)" opacity="0.13">
              <g id="Grupo_1080586" data-name="Grupo 1080586">
                <g id="Grupo_1080585" data-name="Grupo 1080585" clip-path="url(#clip-path-7)">
                  <path id="Trazado_830053" data-name="Trazado 830053" d="M491.086,403.91s.251,2.173.42,4.694l5.912-3.809-.41-2.615Z" transform="translate(-491.086 -402.18)"/>
                </g>
              </g>
            </g>
            <path id="Trazado_830054" data-name="Trazado 830054" d="M453.842,241.737a102.813,102.813,0,0,1,2.307,19.314c.389,11.436-.663,24.148-7.438,33.778-7.171,10.191-21.532,14.527-32.955,9.148-10.907-5.135-17.529-16.546-21.93-27.306a123.331,123.331,0,0,1-5.017-15.177c-.713-2.7-1.419-5.439-1.865-8.2-.02-.128-.046-.254-.068-.382-.606-3.609,4.98-4.551,5.587-.936.309,1.836.721,3.658,1.152,5.468q.7,2.952,1.543,5.87c.162.563.33,1.124.5,1.685.223.743-.132-.408.07.227.1.325.2.651.308.975q.594,1.848,1.246,3.675a85.485,85.485,0,0,0,7.091,15.334c.185.307.374.612.563.917-.355-.573.12.183.242.372q.615.938,1.266,1.851c.818,1.143,1.682,2.253,2.6,3.316q.643.746,1.324,1.461.32.335.647.662c.145.144.293.286.439.43.118.117.6.549.063.065a32.161,32.161,0,0,0,3.13,2.527q.773.542,1.582,1.028c.255.153.514.3.771.445-.7-.4.41.2.589.29a22.655,22.655,0,0,0,3.7,1.4c.128.036.259.066.386.1.658.2-.613-.113.065.018.3.057.593.125.891.178q1.061.19,2.138.275c.668.053,1.335.064,2,.069.176,0,.688-.031,0,.005.145-.007.291-.011.436-.022.443-.034.885-.065,1.327-.115a33.6,33.6,0,0,0,4.546-.915c.135-.035.536-.173-.081.028.176-.057.352-.115.527-.174q.466-.16.926-.338,1.092-.423,2.14-.951c.555-.28,1.084-.6,1.624-.9.607-.344-.5.361.066-.042.11-.078.224-.15.335-.226q.5-.341.973-.708.708-.545,1.372-1.145.366-.33.718-.676c.141-.139,1-1.067.462-.459a28.127,28.127,0,0,0,2.4-3.106q.491-.743.935-1.515c.093-.161.592-1.1.233-.405.183-.356.365-.712.538-1.073a41.63,41.63,0,0,0,2.708-7.695c.034-.134.066-.269.1-.4-.161.661-.041.174,0,.007.066-.306.134-.611.2-.918q.221-1.076.4-2.161c.229-1.38.41-2.768.55-4.16a81.851,81.851,0,0,0,.391-8.248q0-.949-.02-1.9c-.007-.328-.017-.656-.024-.984.022.882-.012-.285-.021-.5q-.079-1.869-.222-3.734-.251-3.29-.689-6.565c-.338-2.546-.809-5.059-1.276-7.583-.023-.122-.053-.244-.081-.366a2.833,2.833,0,1,1,5.588-.936" transform="translate(-234.591 -145.16)" fill="#7fc5a3"/>
            <path id="Trazado_830055" data-name="Trazado 830055" d="M426.456,520.972l-.005-.021.264-.067h0l.011,0,0,.01s0,.007-.009.011h0l-.008,0c-.026.01-.092.027-.255.065" transform="translate(-258.619 -315.886)" fill="#a0a2a5"/>
            <path id="Trazado_830056" data-name="Trazado 830056" d="M480.254,472.7l-.021-.008.009-.021.02.008Z" transform="translate(-291.235 -286.651)" fill="#a0a2a5"/>
            <path id="Trazado_830057" data-name="Trazado 830057" d="M486.537,380.564l0-.022c.053-.006.086-.007.1-.008v.022Z" transform="translate(-295.056 -230.773)" fill="#a0a2a5"/>
            <path id="Trazado_830058" data-name="Trazado 830058" d="M500.634,383.706l-.007-.021c.042-.014.179-.058.187-.059l.01,0,0,.01s0,.007-.009.013h0a1.728,1.728,0,0,1-.181.058" transform="translate(-303.603 -232.647)" fill="#a0a2a5"/>
            <path id="Trazado_830059" data-name="Trazado 830059" d="M536.32,339.563h0l-.022-.006v0l0-.007c.008-.03.018-.073.032-.131l.005-.021.02-.081v0l.021.005c-.01.04-.019.076-.026.107l-.034.141" transform="translate(-325.235 -205.773)" fill="#a0a2a5"/>
            <path id="Trazado_830060" data-name="Trazado 830060" d="M536.29,340.043l-.022,0s0-.007,0-.019l.022.006c0,.012,0,.018,0,.018" transform="translate(-325.217 -206.203)" fill="#a0a2a5"/>
            <path id="Trazado_830061" data-name="Trazado 830061" d="M486.752,386.161v-.022h.015l.139-.006v.022l-.047,0-.106,0Z" transform="translate(-295.187 -234.168)" fill="#a0a2a5"/>
            <rect id="Rectángulo_382362" data-name="Rectángulo 382362" width="82.362" height="62.088" transform="translate(32.325 188.244) rotate(-80.719)" fill="#3b455a"/>
            <g id="Grupo_1080590" data-name="Grupo 1080590" transform="translate(37.47 119.058)" opacity="0.26">
              <g id="Grupo_1080589" data-name="Grupo 1080589">
                <g id="Grupo_1080588" data-name="Grupo 1080588" clip-path="url(#clip-path-8)">
                  <path id="Trazado_830062" data-name="Trazado 830062" d="M95.209,368.96l.917.15,53.839,10.511,11.142-77.1-2.633.308Z" transform="translate(-95.209 -302.518)" fill="#040909"/>
                </g>
              </g>
            </g>
            <rect id="Rectángulo_382364" data-name="Rectángulo 382364" width="76.2" height="55.825" transform="translate(35.986 185.258) rotate(-80.719)" fill="#f7f7f7"/>
            <g id="Grupo_1080593" data-name="Grupo 1080593" transform="translate(42.538 109.718)" opacity="0.05">
              <g id="Grupo_1080592" data-name="Grupo 1080592">
                <g id="Grupo_1080591" data-name="Grupo 1080591" clip-path="url(#clip-path-9)">
                  <path id="Trazado_830063" data-name="Trazado 830063" d="M113.569,278.786l39.627,6.476-45.11,26.676Z" transform="translate(-108.086 -278.786)"/>
                </g>
              </g>
            </g>
            <g id="Grupo_1080596" data-name="Grupo 1080596" transform="translate(63.557 112.203)" opacity="0.12">
              <g id="Grupo_1080595" data-name="Grupo 1080595">
                <g id="Grupo_1080594" data-name="Grupo 1080594" clip-path="url(#clip-path-10)">
                  <rect id="Rectángulo_382366" data-name="Rectángulo 382366" width="2.262" height="24.245" transform="translate(0 2.233) rotate(-80.719)"/>
                </g>
              </g>
            </g>
            <path id="Trazado_830064" data-name="Trazado 830064" d="M181.985,266.573l-.371-.061.041-.249c.383-2.344-1.5-4.6-4.211-5.046l-3.568-.583c-2.709-.443-5.215,1.1-5.6,3.443l-.041.249-.371-.061c-2.709-.442-5.215,1.1-5.6,3.443l-.775,4.742,23.928,3.91.775-4.742c.383-2.344-1.5-4.6-4.211-5.046m-3.923-.541-6.3-1.03a1.18,1.18,0,1,1,.381-2.329l6.3,1.03a1.18,1.18,0,1,1-.381,2.329" transform="translate(-97.937 -158.014)" fill="#bec6cc"/>
            <g id="Grupo_1080599" data-name="Grupo 1080599" transform="translate(45.478 132.263)" opacity="0.47">
              <g id="Grupo_1080598" data-name="Grupo 1080598">
                <g id="Grupo_1080597" data-name="Grupo 1080597" clip-path="url(#clip-path-11)">
                  <path id="Trazado_830065" data-name="Trazado 830065" d="M137.8,337.4l-8.089-1.322a.431.431,0,0,0-.49.35l-1.313,8.041a.431.431,0,0,0,.353.488l8.089,1.322a.393.393,0,0,0,.3-.065l.017-.011.006,0a.394.394,0,0,0,.164-.269q.657-4.02,1.314-8.041a.433.433,0,0,0-.353-.488m-1.735,7.972-7.246-1.184,1.176-7.2,7.247,1.184-1.177,7.2" transform="translate(-123.042 -336.073)" fill="#c0c4c9"/>
                  <path id="Trazado_830066" data-name="Trazado 830066" d="M131.626,375.178l-8.089-1.322a.431.431,0,0,0-.49.35l-1.313,8.041a.431.431,0,0,0,.353.488l8.089,1.322a.393.393,0,0,0,.3-.065l.017-.011.009-.007a.389.389,0,0,0,.161-.266l1.314-8.041a.432.432,0,0,0-.353-.488m-1.735,7.972-7.247-1.184q.589-3.6,1.177-7.2l7.247,1.184-1.177,7.2" transform="translate(-119.3 -358.983)" fill="#c0c4c9"/>
                  <path id="Trazado_830067" data-name="Trazado 830067" d="M125.456,412.954l-8.089-1.322a.432.432,0,0,0-.49.35l-1.313,8.041a.431.431,0,0,0,.353.488l8.089,1.322a.393.393,0,0,0,.3-.065l.017-.011.009-.007a.389.389,0,0,0,.161-.266q.657-4.02,1.314-8.041a.432.432,0,0,0-.353-.488m-1.735,7.972-7.246-1.184,1.176-7.2,7.247,1.184-1.177,7.2" transform="translate(-115.558 -381.892)" fill="#c0c4c9"/>
                </g>
              </g>
            </g>
            <path id="Trazado_830068" data-name="Trazado 830068" d="M138.154,340l1.96-.312.731,2.017,9.922-4.914,1,.374-11.7,6.731Z" transform="translate(-83.783 -204.247)" fill="#d34e4e"/>
            <path id="Trazado_830069" data-name="Trazado 830069" d="M130.114,378.458l1.96-.312.731,2.017,9.922-4.914,1,.374-11.7,6.731Z" transform="translate(-78.907 -227.567)" fill="#d34e4e"/>
            <path id="Trazado_830070" data-name="Trazado 830070" d="M123.846,414.143l1.96-.312.731,2.017,9.922-4.914,1,.374-11.7,6.731Z" transform="translate(-75.106 -249.208)" fill="#d34e4e"/>
            <g id="Grupo_1080602" data-name="Grupo 1080602" transform="translate(59.382 167.441)" opacity="0.32">
              <g id="Grupo_1080601" data-name="Grupo 1080601">
                <g id="Grupo_1080600" data-name="Grupo 1080600" clip-path="url(#clip-path-12)">
                  <rect id="Rectángulo_382369" data-name="Rectángulo 382369" width="4.074" height="28.914" transform="translate(0 4.021) rotate(-80.719)" fill="#8ec3cb"/>
                </g>
              </g>
            </g>
            <g id="Grupo_1080605" data-name="Grupo 1080605" transform="translate(61.954 151.694)" opacity="0.32">
              <g id="Grupo_1080604" data-name="Grupo 1080604">
                <g id="Grupo_1080603" data-name="Grupo 1080603" clip-path="url(#clip-path-13)">
                  <rect id="Rectángulo_382371" data-name="Rectángulo 382371" width="4.074" height="28.914" transform="translate(0 4.02) rotate(-80.719)" fill="#8ec3cb"/>
                </g>
              </g>
            </g>
            <g id="Grupo_1080608" data-name="Grupo 1080608" transform="translate(64.526 135.947)" opacity="0.32">
              <g id="Grupo_1080607" data-name="Grupo 1080607">
                <g id="Grupo_1080606" data-name="Grupo 1080606" clip-path="url(#clip-path-12)">
                  <rect id="Rectángulo_382373" data-name="Rectángulo 382373" width="4.074" height="28.914" transform="translate(0 4.021) rotate(-80.719)" fill="#8ec3cb"/>
                </g>
              </g>
            </g>
            <path id="Trazado_830071" data-name="Trazado 830071" d="M674.432,358.183l-27.783,6.742a18.92,18.92,0,1,1-8.925-36.769l27.713-6.724Z" transform="translate(-377.846 -194.93)" fill="#e0e0e0"/>
            <path id="Trazado_830072" data-name="Trazado 830072" d="M742.348,345l31.237-7.644a17.591,17.591,0,0,0,12.946-21.243l-.627-2.581a17.591,17.591,0,0,0-21.242-12.945l-31.24,7.644Z" transform="translate(-444.78 -181.986)" fill="#3b455a"/>
            <path id="Trazado_830073" data-name="Trazado 830073" d="M681.633,357.269l-7.059,1.713-.661.161q-.616-2.54-1.233-5.08-.31-1.275-.619-2.549a.55.55,0,0,0-.657-.4l-4.387,1.065a.551.551,0,0,0-.4.652q.847,3.488,1.693,6.976.079.327.159.653l-5.141,1.248-2.579.626a.55.55,0,0,0-.4.652q.525,2.168,1.052,4.335a.5.5,0,0,0,.241.33.505.505,0,0,0,.416.065l7.059-1.713.662-.161,1.233,5.08q.309,1.275.619,2.549a.55.55,0,0,0,.657.4l4.387-1.065a.508.508,0,0,0,.335-.24.494.494,0,0,0,.068-.412q-.846-3.488-1.693-6.976c-.052-.218-.106-.436-.159-.653l5.141-1.248,2.579-.626a.551.551,0,0,0,.4-.653q-.527-2.168-1.052-4.335a.55.55,0,0,0-.657-.4" transform="translate(-400.452 -212.925)" fill="#3b455a"/>
            <path id="Trazado_830074" data-name="Trazado 830074" d="M539.992,335.638l-3.552,1.123-2.891-1.56-.642.445.515.812-2.77-.608-2.047,1.054-.442,3.031,1.565,2.751,3.056.12L536,341.11l4.929-1.327Z" transform="translate(-320.302 -203.28)" fill="#c1796b"/>
            <path id="Trazado_830075" data-name="Trazado 830075" d="M550.544,296.437l16.548-3.88c1.484-.348,3.024-.423,4.509-.782,2.171-.525,2.766-.709,3.071-2.779.884-6-.239-12.226.667-18.137a57.367,57.367,0,0,1,6.506-.7c3.631.048,3.317,2.546,3.52,5.329.243,3.3.387,6.613.409,9.922.019,2.743.924,14.639-3.1,15.509-2.887.633-31.986,2.182-31.973,2.779-.005-.24-.152-7.257-.152-7.257" transform="translate(-333.874 -163.833)" fill="#474ebb"/>
            <path id="Trazado_830076" data-name="Trazado 830076" d="M145.638,363.314c.692-.217,5.831,1.074,5.49,1.523a9.421,9.421,0,0,1-1.3,1.3c1.465.893,6.049,2.448,2.779,4.11-1.417.72-5.191-.293-6.31-1.251l-.076-.065-1.819-4.861a2.611,2.611,0,0,1,1.239-.752" transform="translate(-87.57 -220.315)" fill="#c1796b"/>
            <path id="Trazado_830077" data-name="Trazado 830077" d="M92.51,327.465l20.4,14.814.023.062,1.819,4.861.472,1.263c-10.985-1.424-11.94-4.344-22.31-8.827Z" transform="translate(-56.102 -198.589)" fill="#8ec3cb"/>
          </g>
        </g>
      </g>
    </g>
    <rect id="Rectángulo_382377" data-name="Rectángulo 382377" width="400" height="287" transform="translate(180 1005)" fill="none"/>
  </g>
</svg>
